G04 #@! TF.FileFunction,Copper,L3,Inr,Signal*
%FSLAX46Y46*%
G04 Gerber Fmt 4.6, Leading zero omitted, Abs format (unit mm)*
G04 Created by KiCad (PCBNEW (2015-09-03 BZR 6154, Git 4636d8d)-product) date Tue Sep  8 23:52:58 2015*
%MOMM*%
G01*
G04 APERTURE LIST*
%ADD10C,0.100000*%
%ADD11O,1.506220X3.014980*%
%ADD12C,1.800000*%
%ADD13C,0.900000*%
%ADD14C,0.600000*%
%ADD15C,0.800000*%
%ADD16C,0.200000*%
%ADD17C,0.360000*%
%ADD18C,0.400000*%
G04 APERTURE END LIST*
D10*
D11*
X181290000Y-87750000D03*
X178750000Y-87750000D03*
X176210000Y-87750000D03*
X167250000Y-115250000D03*
X164710000Y-115250000D03*
X162170000Y-115250000D03*
D12*
X188800000Y-95000000D03*
X188800000Y-108600000D03*
D13*
X164190000Y-86500000D03*
X165460000Y-86500000D03*
X166730000Y-86500000D03*
X168000000Y-86500000D03*
X169270000Y-86500000D03*
X170540000Y-86500000D03*
D14*
X185500000Y-114500000D03*
X179800000Y-94600000D03*
X159000000Y-95000000D03*
X107900000Y-92500000D03*
X130200000Y-92000000D03*
X134000000Y-90800000D03*
X137600000Y-92000000D03*
X158500000Y-91100000D03*
X152700000Y-92000000D03*
X159000000Y-110800000D03*
X158500000Y-114900000D03*
X152700000Y-117000000D03*
X136000000Y-115800000D03*
X134000000Y-115800000D03*
X132000000Y-115800000D03*
X109500000Y-114650000D03*
X111800000Y-117000000D03*
X109000000Y-110800000D03*
X115400000Y-92000000D03*
X109000000Y-98300000D03*
X149750000Y-86250000D03*
X138000000Y-88000000D03*
X138000000Y-107750000D03*
X134500000Y-101500000D03*
X135750000Y-97500000D03*
X137750000Y-94500000D03*
X135750000Y-96750000D03*
X156000000Y-114500000D03*
X128375000Y-108125000D03*
X127125000Y-109375000D03*
X127125000Y-108125000D03*
X128375000Y-109375000D03*
X126000000Y-95000000D03*
X121250000Y-94500000D03*
X121250000Y-96500000D03*
X131750000Y-98500000D03*
X123250000Y-99500000D03*
X123250000Y-101500000D03*
X120000000Y-94000000D03*
X114250000Y-97000000D03*
X139250000Y-112250000D03*
X141500000Y-112250000D03*
X148450000Y-104950000D03*
X148500000Y-108000000D03*
X184000000Y-106500000D03*
X182000000Y-106500000D03*
X180000000Y-106500000D03*
X174500000Y-97500000D03*
X185371311Y-102500000D03*
X184000000Y-99000000D03*
X174500000Y-101000000D03*
X174575000Y-102075000D03*
X174655000Y-103345000D03*
X174615000Y-104615000D03*
X174615000Y-105885000D03*
X174655000Y-107155000D03*
X174575000Y-108425000D03*
X152600000Y-106900000D03*
X150250000Y-115000000D03*
X149250000Y-115000000D03*
X113500000Y-104500000D03*
X115630029Y-113000000D03*
X118500000Y-100000000D03*
X115500000Y-100000000D03*
X124900000Y-116100000D03*
X122900000Y-116100000D03*
X129300000Y-115900000D03*
X133500000Y-104250000D03*
X130592511Y-105250000D03*
X125500000Y-104000000D03*
X127500000Y-115750000D03*
X120500000Y-105000000D03*
X122650000Y-110850000D03*
X122000000Y-106500000D03*
X123000000Y-106500000D03*
X175000000Y-114500000D03*
X123000000Y-103500000D03*
X121850000Y-113550000D03*
X126000000Y-113600000D03*
X130300000Y-113500000D03*
X133000000Y-96000000D03*
X134500000Y-99750000D03*
X154250000Y-114500000D03*
X116250000Y-94000000D03*
X134500000Y-106750000D03*
X144000000Y-112250000D03*
X145750000Y-85250000D03*
X166750000Y-92000000D03*
X184000000Y-110000000D03*
X182000000Y-110000000D03*
X180000000Y-110000000D03*
X171000000Y-115000000D03*
X147500000Y-93000000D03*
X151750000Y-97750000D03*
X163000000Y-96000000D03*
X157000000Y-98000000D03*
X169000000Y-100750000D03*
X152000000Y-101000000D03*
X161000000Y-86000000D03*
X156000000Y-95000000D03*
X162000000Y-94000000D03*
X154000000Y-94250000D03*
X161000000Y-94000000D03*
X157000000Y-96000000D03*
X145000000Y-106750000D03*
X112500000Y-96750000D03*
X113750000Y-98500000D03*
X148750000Y-106250000D03*
X119000000Y-98000000D03*
X145000000Y-108250000D03*
X144750000Y-99750000D03*
X142990870Y-100750000D03*
X141250000Y-104250000D03*
X138250000Y-104250000D03*
X140000000Y-102250000D03*
X142500000Y-102250000D03*
X142250000Y-95439990D03*
X142250000Y-96560010D03*
X152250000Y-97000000D03*
X149500000Y-93750000D03*
X149000000Y-99000000D03*
X144000000Y-99000000D03*
X149000000Y-103000000D03*
X138750000Y-103500000D03*
D15*
X119800000Y-106400000D02*
X119800000Y-111500000D01*
X119800000Y-111500000D02*
X121850000Y-113550000D01*
X120300000Y-103500000D02*
X119639999Y-104160001D01*
X119639999Y-104160001D02*
X119639999Y-106239999D01*
X119639999Y-106239999D02*
X119800000Y-106400000D01*
X123000000Y-103500000D02*
X120300000Y-103500000D01*
X121850000Y-113550000D02*
X125950000Y-113550000D01*
X125950000Y-113550000D02*
X126000000Y-113600000D01*
X126000000Y-113600000D02*
X130200000Y-113600000D01*
X130200000Y-113600000D02*
X130300000Y-113500000D01*
D16*
X147500000Y-93500000D02*
X147500000Y-93000000D01*
X149324634Y-95324634D02*
X149250000Y-95250000D01*
X151750000Y-97750000D02*
X149324634Y-95324634D01*
X149324634Y-95324634D02*
X147500000Y-93500000D01*
X162000000Y-96000000D02*
X163000000Y-96000000D01*
X161000000Y-97000000D02*
X162000000Y-96000000D01*
X160000000Y-98000000D02*
X161000000Y-97000000D01*
X157000000Y-98000000D02*
X160000000Y-98000000D01*
D17*
X166250000Y-99000000D02*
X168000000Y-100750000D01*
X168000000Y-100750000D02*
X169000000Y-100750000D01*
X161000000Y-99000000D02*
X166250000Y-99000000D01*
X159000000Y-101000000D02*
X161000000Y-99000000D01*
X152000000Y-101000000D02*
X159000000Y-101000000D01*
D18*
X157000000Y-94000000D02*
X156000000Y-95000000D01*
X157000000Y-90000000D02*
X157000000Y-94000000D01*
X161000000Y-86000000D02*
X157000000Y-90000000D01*
D17*
X154000000Y-96000000D02*
X154000000Y-94250000D01*
X155000000Y-97000000D02*
X154000000Y-96000000D01*
X160000000Y-97000000D02*
X155000000Y-97000000D01*
X162000000Y-95000000D02*
X160000000Y-97000000D01*
X162000000Y-94000000D02*
X162000000Y-95000000D01*
X159000000Y-96000000D02*
X161000000Y-94000000D01*
X157000000Y-96000000D02*
X159000000Y-96000000D01*
X112500000Y-96750000D02*
X112500000Y-114500000D01*
X112500000Y-114500000D02*
X115500000Y-117500000D01*
X115500000Y-117500000D02*
X137802798Y-117500000D01*
X137802798Y-117500000D02*
X142750000Y-112552798D01*
X142750000Y-112552798D02*
X142750000Y-109000000D01*
X142750000Y-109000000D02*
X145000000Y-106750000D01*
X113750000Y-98500000D02*
X113750000Y-103250000D01*
X113750000Y-103250000D02*
X114990028Y-104490028D01*
X140500000Y-113000000D02*
X140500000Y-109500000D01*
X140500000Y-109500000D02*
X144742799Y-105257201D01*
X114990028Y-104490028D02*
X114990028Y-115740028D01*
X114990028Y-115740028D02*
X115990001Y-116740001D01*
X146250000Y-106250000D02*
X148750000Y-106250000D01*
X115990001Y-116740001D02*
X136759999Y-116740001D01*
X136759999Y-116740001D02*
X140500000Y-113000000D01*
X144742799Y-105257201D02*
X145257201Y-105257201D01*
X145257201Y-105257201D02*
X146250000Y-106250000D01*
X116250000Y-95000000D02*
X119000000Y-97750000D01*
X119000000Y-97750000D02*
X119000000Y-98000000D01*
X112500000Y-95000000D02*
X116250000Y-95000000D01*
X111859999Y-95640001D02*
X112500000Y-95000000D01*
X115250000Y-118250000D02*
X111859999Y-114859999D01*
X111859999Y-114859999D02*
X111859999Y-95640001D01*
X139500000Y-118250000D02*
X115250000Y-118250000D01*
X139729990Y-118020010D02*
X139500000Y-118250000D01*
X145250000Y-112500000D02*
X139729990Y-118020010D01*
X145250000Y-108924264D02*
X145250000Y-112500000D01*
X145000000Y-108250000D02*
X145000000Y-108674264D01*
X145000000Y-108674264D02*
X145250000Y-108924264D01*
D16*
X144750000Y-99750000D02*
X143750000Y-100750000D01*
X143750000Y-100750000D02*
X142990870Y-100750000D01*
X138250000Y-104250000D02*
X141145360Y-104250000D01*
X141250000Y-104250000D02*
X141145360Y-104250000D01*
X140250000Y-102250000D02*
X140000000Y-102250000D01*
X142075736Y-102250000D02*
X140250000Y-102250000D01*
X142500000Y-102250000D02*
X142075736Y-102250000D01*
X142250000Y-95500000D02*
X142250000Y-95439990D01*
X142250000Y-96560010D02*
X142250000Y-95500000D01*
X152250000Y-97000000D02*
X152250000Y-96500000D01*
X152250000Y-96500000D02*
X149500000Y-93750000D01*
X148750000Y-99000000D02*
X149000000Y-99000000D01*
X144000000Y-99000000D02*
X148750000Y-99000000D01*
X149000000Y-103000000D02*
X139250000Y-103000000D01*
X139250000Y-103000000D02*
X138750000Y-103500000D01*
M02*
