G04 #@! TF.FileFunction,Legend,Bot*
%FSLAX46Y46*%
G04 Gerber Fmt 4.6, Leading zero omitted, Abs format (unit mm)*
G04 Created by KiCad (PCBNEW (2015-09-03 BZR 6154, Git 4636d8d)-product) date Tue Sep 15 00:06:25 2015*
%MOMM*%
G01*
G04 APERTURE LIST*
%ADD10C,0.100000*%
%ADD11C,0.150000*%
%ADD12C,0.300000*%
G04 APERTURE END LIST*
D10*
D11*
X129642856Y-90271429D02*
X129642856Y-89671429D01*
X129385713Y-90271429D02*
X129385713Y-89957143D01*
X129414284Y-89900000D01*
X129471427Y-89871429D01*
X129557142Y-89871429D01*
X129614284Y-89900000D01*
X129642856Y-89928571D01*
X129185713Y-89871429D02*
X128957142Y-89871429D01*
X129099999Y-89671429D02*
X129099999Y-90185714D01*
X129071427Y-90242857D01*
X129014285Y-90271429D01*
X128957142Y-90271429D01*
X128842856Y-89871429D02*
X128614285Y-89871429D01*
X128757142Y-89671429D02*
X128757142Y-90185714D01*
X128728570Y-90242857D01*
X128671428Y-90271429D01*
X128614285Y-90271429D01*
X128414285Y-89871429D02*
X128414285Y-90471429D01*
X128414285Y-89900000D02*
X128357142Y-89871429D01*
X128242856Y-89871429D01*
X128185713Y-89900000D01*
X128157142Y-89928571D01*
X128128571Y-89985714D01*
X128128571Y-90157143D01*
X128157142Y-90214286D01*
X128185713Y-90242857D01*
X128242856Y-90271429D01*
X128357142Y-90271429D01*
X128414285Y-90242857D01*
X127899999Y-90242857D02*
X127842856Y-90271429D01*
X127728571Y-90271429D01*
X127671428Y-90242857D01*
X127642856Y-90185714D01*
X127642856Y-90157143D01*
X127671428Y-90100000D01*
X127728571Y-90071429D01*
X127814285Y-90071429D01*
X127871428Y-90042857D01*
X127899999Y-89985714D01*
X127899999Y-89957143D01*
X127871428Y-89900000D01*
X127814285Y-89871429D01*
X127728571Y-89871429D01*
X127671428Y-89900000D01*
X127385714Y-90214286D02*
X127357142Y-90242857D01*
X127385714Y-90271429D01*
X127414285Y-90242857D01*
X127385714Y-90214286D01*
X127385714Y-90271429D01*
X127385714Y-89900000D02*
X127357142Y-89928571D01*
X127385714Y-89957143D01*
X127414285Y-89928571D01*
X127385714Y-89900000D01*
X127385714Y-89957143D01*
X126671428Y-89642857D02*
X127185714Y-90414286D01*
X126042857Y-89642857D02*
X126557143Y-90414286D01*
X125585715Y-89871429D02*
X125585715Y-90357143D01*
X125614286Y-90414286D01*
X125642858Y-90442857D01*
X125700001Y-90471429D01*
X125785715Y-90471429D01*
X125842858Y-90442857D01*
X125585715Y-90242857D02*
X125642858Y-90271429D01*
X125757144Y-90271429D01*
X125814286Y-90242857D01*
X125842858Y-90214286D01*
X125871429Y-90157143D01*
X125871429Y-89985714D01*
X125842858Y-89928571D01*
X125814286Y-89900000D01*
X125757144Y-89871429D01*
X125642858Y-89871429D01*
X125585715Y-89900000D01*
X125300001Y-90271429D02*
X125300001Y-89871429D01*
X125300001Y-89671429D02*
X125328572Y-89700000D01*
X125300001Y-89728571D01*
X125271429Y-89700000D01*
X125300001Y-89671429D01*
X125300001Y-89728571D01*
X125100001Y-89871429D02*
X124871430Y-89871429D01*
X125014287Y-89671429D02*
X125014287Y-90185714D01*
X124985715Y-90242857D01*
X124928573Y-90271429D01*
X124871430Y-90271429D01*
X124671430Y-90271429D02*
X124671430Y-89671429D01*
X124414287Y-90271429D02*
X124414287Y-89957143D01*
X124442858Y-89900000D01*
X124500001Y-89871429D01*
X124585716Y-89871429D01*
X124642858Y-89900000D01*
X124671430Y-89928571D01*
X123871430Y-89871429D02*
X123871430Y-90271429D01*
X124128573Y-89871429D02*
X124128573Y-90185714D01*
X124100001Y-90242857D01*
X124042859Y-90271429D01*
X123957144Y-90271429D01*
X123900001Y-90242857D01*
X123871430Y-90214286D01*
X123585716Y-90271429D02*
X123585716Y-89671429D01*
X123585716Y-89900000D02*
X123528573Y-89871429D01*
X123414287Y-89871429D01*
X123357144Y-89900000D01*
X123328573Y-89928571D01*
X123300002Y-89985714D01*
X123300002Y-90157143D01*
X123328573Y-90214286D01*
X123357144Y-90242857D01*
X123414287Y-90271429D01*
X123528573Y-90271429D01*
X123585716Y-90242857D01*
X123042859Y-90214286D02*
X123014287Y-90242857D01*
X123042859Y-90271429D01*
X123071430Y-90242857D01*
X123042859Y-90214286D01*
X123042859Y-90271429D01*
X122500002Y-90242857D02*
X122557145Y-90271429D01*
X122671431Y-90271429D01*
X122728573Y-90242857D01*
X122757145Y-90214286D01*
X122785716Y-90157143D01*
X122785716Y-89985714D01*
X122757145Y-89928571D01*
X122728573Y-89900000D01*
X122671431Y-89871429D01*
X122557145Y-89871429D01*
X122500002Y-89900000D01*
X122157145Y-90271429D02*
X122214287Y-90242857D01*
X122242859Y-90214286D01*
X122271430Y-90157143D01*
X122271430Y-89985714D01*
X122242859Y-89928571D01*
X122214287Y-89900000D01*
X122157145Y-89871429D01*
X122071430Y-89871429D01*
X122014287Y-89900000D01*
X121985716Y-89928571D01*
X121957145Y-89985714D01*
X121957145Y-90157143D01*
X121985716Y-90214286D01*
X122014287Y-90242857D01*
X122071430Y-90271429D01*
X122157145Y-90271429D01*
X121700002Y-90271429D02*
X121700002Y-89871429D01*
X121700002Y-89928571D02*
X121671430Y-89900000D01*
X121614288Y-89871429D01*
X121528573Y-89871429D01*
X121471430Y-89900000D01*
X121442859Y-89957143D01*
X121442859Y-90271429D01*
X121442859Y-89957143D02*
X121414288Y-89900000D01*
X121357145Y-89871429D01*
X121271430Y-89871429D01*
X121214288Y-89900000D01*
X121185716Y-89957143D01*
X121185716Y-90271429D01*
X120471430Y-89642857D02*
X120985716Y-90414286D01*
X120185717Y-90271429D02*
X120242859Y-90242857D01*
X120271431Y-90185714D01*
X120271431Y-89671429D01*
X119871431Y-90271429D02*
X119928573Y-90242857D01*
X119957145Y-90214286D01*
X119985716Y-90157143D01*
X119985716Y-89985714D01*
X119957145Y-89928571D01*
X119928573Y-89900000D01*
X119871431Y-89871429D01*
X119785716Y-89871429D01*
X119728573Y-89900000D01*
X119700002Y-89928571D01*
X119671431Y-89985714D01*
X119671431Y-90157143D01*
X119700002Y-90214286D01*
X119728573Y-90242857D01*
X119785716Y-90271429D01*
X119871431Y-90271429D01*
X119471431Y-90271429D02*
X119157145Y-89871429D01*
X119471431Y-89871429D02*
X119157145Y-90271429D01*
X118842860Y-90271429D02*
X118900002Y-90242857D01*
X118928574Y-90214286D01*
X118957145Y-90157143D01*
X118957145Y-89985714D01*
X118928574Y-89928571D01*
X118900002Y-89900000D01*
X118842860Y-89871429D01*
X118757145Y-89871429D01*
X118700002Y-89900000D01*
X118671431Y-89928571D01*
X118642860Y-89985714D01*
X118642860Y-90157143D01*
X118671431Y-90214286D01*
X118700002Y-90242857D01*
X118757145Y-90271429D01*
X118842860Y-90271429D01*
X118128574Y-90271429D02*
X118128574Y-89671429D01*
X118128574Y-90242857D02*
X118185717Y-90271429D01*
X118300003Y-90271429D01*
X118357145Y-90242857D01*
X118385717Y-90214286D01*
X118414288Y-90157143D01*
X118414288Y-89985714D01*
X118385717Y-89928571D01*
X118357145Y-89900000D01*
X118300003Y-89871429D01*
X118185717Y-89871429D01*
X118128574Y-89900000D01*
X117614288Y-90242857D02*
X117671431Y-90271429D01*
X117785717Y-90271429D01*
X117842860Y-90242857D01*
X117871431Y-90185714D01*
X117871431Y-89957143D01*
X117842860Y-89900000D01*
X117785717Y-89871429D01*
X117671431Y-89871429D01*
X117614288Y-89900000D01*
X117585717Y-89957143D01*
X117585717Y-90014286D01*
X117871431Y-90071429D01*
X117357145Y-90242857D02*
X117300002Y-90271429D01*
X117185717Y-90271429D01*
X117128574Y-90242857D01*
X117100002Y-90185714D01*
X117100002Y-90157143D01*
X117128574Y-90100000D01*
X117185717Y-90071429D01*
X117271431Y-90071429D01*
X117328574Y-90042857D01*
X117357145Y-89985714D01*
X117357145Y-89957143D01*
X117328574Y-89900000D01*
X117271431Y-89871429D01*
X117185717Y-89871429D01*
X117128574Y-89900000D01*
X116414288Y-89642857D02*
X116928574Y-90414286D01*
X115985717Y-90242857D02*
X116042860Y-90271429D01*
X116157146Y-90271429D01*
X116214289Y-90242857D01*
X116242860Y-90185714D01*
X116242860Y-89957143D01*
X116214289Y-89900000D01*
X116157146Y-89871429D01*
X116042860Y-89871429D01*
X115985717Y-89900000D01*
X115957146Y-89957143D01*
X115957146Y-90014286D01*
X116242860Y-90071429D01*
X115471431Y-90242857D02*
X115528574Y-90271429D01*
X115642860Y-90271429D01*
X115700003Y-90242857D01*
X115728574Y-90185714D01*
X115728574Y-89957143D01*
X115700003Y-89900000D01*
X115642860Y-89871429D01*
X115528574Y-89871429D01*
X115471431Y-89900000D01*
X115442860Y-89957143D01*
X115442860Y-90014286D01*
X115728574Y-90071429D01*
X114928574Y-89671429D02*
X115042860Y-89671429D01*
X115100003Y-89700000D01*
X115128574Y-89728571D01*
X115185717Y-89814286D01*
X115214288Y-89928571D01*
X115214288Y-90157143D01*
X115185717Y-90214286D01*
X115157145Y-90242857D01*
X115100003Y-90271429D01*
X114985717Y-90271429D01*
X114928574Y-90242857D01*
X114900003Y-90214286D01*
X114871431Y-90157143D01*
X114871431Y-90014286D01*
X114900003Y-89957143D01*
X114928574Y-89928571D01*
X114985717Y-89900000D01*
X115100003Y-89900000D01*
X115157145Y-89928571D01*
X115185717Y-89957143D01*
X115214288Y-90014286D01*
X114357145Y-89871429D02*
X114357145Y-90271429D01*
X114500002Y-89642857D02*
X114642859Y-90071429D01*
X114271431Y-90071429D01*
X113785716Y-89671429D02*
X113900002Y-89671429D01*
X113957145Y-89700000D01*
X113985716Y-89728571D01*
X114042859Y-89814286D01*
X114071430Y-89928571D01*
X114071430Y-90157143D01*
X114042859Y-90214286D01*
X114014287Y-90242857D01*
X113957145Y-90271429D01*
X113842859Y-90271429D01*
X113785716Y-90242857D01*
X113757145Y-90214286D01*
X113728573Y-90157143D01*
X113728573Y-90014286D01*
X113757145Y-89957143D01*
X113785716Y-89928571D01*
X113842859Y-89900000D01*
X113957145Y-89900000D01*
X114014287Y-89928571D01*
X114042859Y-89957143D01*
X114071430Y-90014286D01*
X113614287Y-90328571D02*
X113157144Y-90328571D01*
X113071430Y-89871429D02*
X112957144Y-90271429D01*
X112842858Y-89985714D01*
X112728573Y-90271429D01*
X112614287Y-89871429D01*
X112385716Y-90271429D02*
X112385716Y-89871429D01*
X112385716Y-89671429D02*
X112414287Y-89700000D01*
X112385716Y-89728571D01*
X112357144Y-89700000D01*
X112385716Y-89671429D01*
X112385716Y-89728571D01*
X112100002Y-90271429D02*
X112100002Y-89871429D01*
X112100002Y-89985714D02*
X112071430Y-89928571D01*
X112042859Y-89900000D01*
X111985716Y-89871429D01*
X111928573Y-89871429D01*
X111500001Y-90242857D02*
X111557144Y-90271429D01*
X111671430Y-90271429D01*
X111728573Y-90242857D01*
X111757144Y-90185714D01*
X111757144Y-89957143D01*
X111728573Y-89900000D01*
X111671430Y-89871429D01*
X111557144Y-89871429D01*
X111500001Y-89900000D01*
X111471430Y-89957143D01*
X111471430Y-90014286D01*
X111757144Y-90071429D01*
X111128573Y-90271429D02*
X111185715Y-90242857D01*
X111214287Y-90185714D01*
X111214287Y-89671429D01*
X110671429Y-90242857D02*
X110728572Y-90271429D01*
X110842858Y-90271429D01*
X110900001Y-90242857D01*
X110928572Y-90185714D01*
X110928572Y-89957143D01*
X110900001Y-89900000D01*
X110842858Y-89871429D01*
X110728572Y-89871429D01*
X110671429Y-89900000D01*
X110642858Y-89957143D01*
X110642858Y-90014286D01*
X110928572Y-90071429D01*
X110414286Y-90242857D02*
X110357143Y-90271429D01*
X110242858Y-90271429D01*
X110185715Y-90242857D01*
X110157143Y-90185714D01*
X110157143Y-90157143D01*
X110185715Y-90100000D01*
X110242858Y-90071429D01*
X110328572Y-90071429D01*
X110385715Y-90042857D01*
X110414286Y-89985714D01*
X110414286Y-89957143D01*
X110385715Y-89900000D01*
X110328572Y-89871429D01*
X110242858Y-89871429D01*
X110185715Y-89900000D01*
X109928572Y-90242857D02*
X109871429Y-90271429D01*
X109757144Y-90271429D01*
X109700001Y-90242857D01*
X109671429Y-90185714D01*
X109671429Y-90157143D01*
X109700001Y-90100000D01*
X109757144Y-90071429D01*
X109842858Y-90071429D01*
X109900001Y-90042857D01*
X109928572Y-89985714D01*
X109928572Y-89957143D01*
X109900001Y-89900000D01*
X109842858Y-89871429D01*
X109757144Y-89871429D01*
X109700001Y-89900000D01*
X109557144Y-90328571D02*
X109100001Y-90328571D01*
X108985715Y-90242857D02*
X108928572Y-90271429D01*
X108814287Y-90271429D01*
X108757144Y-90242857D01*
X108728572Y-90185714D01*
X108728572Y-90157143D01*
X108757144Y-90100000D01*
X108814287Y-90071429D01*
X108900001Y-90071429D01*
X108957144Y-90042857D01*
X108985715Y-89985714D01*
X108985715Y-89957143D01*
X108957144Y-89900000D01*
X108900001Y-89871429D01*
X108814287Y-89871429D01*
X108757144Y-89900000D01*
X108242858Y-90242857D02*
X108300001Y-90271429D01*
X108414287Y-90271429D01*
X108471430Y-90242857D01*
X108500001Y-90185714D01*
X108500001Y-89957143D01*
X108471430Y-89900000D01*
X108414287Y-89871429D01*
X108300001Y-89871429D01*
X108242858Y-89900000D01*
X108214287Y-89957143D01*
X108214287Y-90014286D01*
X108500001Y-90071429D01*
X107957144Y-89871429D02*
X107957144Y-90271429D01*
X107957144Y-89928571D02*
X107928572Y-89900000D01*
X107871430Y-89871429D01*
X107785715Y-89871429D01*
X107728572Y-89900000D01*
X107700001Y-89957143D01*
X107700001Y-90271429D01*
X107442858Y-90242857D02*
X107385715Y-90271429D01*
X107271430Y-90271429D01*
X107214287Y-90242857D01*
X107185715Y-90185714D01*
X107185715Y-90157143D01*
X107214287Y-90100000D01*
X107271430Y-90071429D01*
X107357144Y-90071429D01*
X107414287Y-90042857D01*
X107442858Y-89985714D01*
X107442858Y-89957143D01*
X107414287Y-89900000D01*
X107357144Y-89871429D01*
X107271430Y-89871429D01*
X107214287Y-89900000D01*
X106842859Y-90271429D02*
X106900001Y-90242857D01*
X106928573Y-90214286D01*
X106957144Y-90157143D01*
X106957144Y-89985714D01*
X106928573Y-89928571D01*
X106900001Y-89900000D01*
X106842859Y-89871429D01*
X106757144Y-89871429D01*
X106700001Y-89900000D01*
X106671430Y-89928571D01*
X106642859Y-89985714D01*
X106642859Y-90157143D01*
X106671430Y-90214286D01*
X106700001Y-90242857D01*
X106757144Y-90271429D01*
X106842859Y-90271429D01*
X106385716Y-90271429D02*
X106385716Y-89871429D01*
X106385716Y-89985714D02*
X106357144Y-89928571D01*
X106328573Y-89900000D01*
X106271430Y-89871429D01*
X106214287Y-89871429D01*
X106157144Y-90328571D02*
X105700001Y-90328571D01*
X105557144Y-89871429D02*
X105557144Y-90271429D01*
X105557144Y-89928571D02*
X105528572Y-89900000D01*
X105471430Y-89871429D01*
X105385715Y-89871429D01*
X105328572Y-89900000D01*
X105300001Y-89957143D01*
X105300001Y-90271429D01*
X104785715Y-90242857D02*
X104842858Y-90271429D01*
X104957144Y-90271429D01*
X105014287Y-90242857D01*
X105042858Y-90185714D01*
X105042858Y-89957143D01*
X105014287Y-89900000D01*
X104957144Y-89871429D01*
X104842858Y-89871429D01*
X104785715Y-89900000D01*
X104757144Y-89957143D01*
X104757144Y-90014286D01*
X105042858Y-90071429D01*
X104585715Y-89871429D02*
X104357144Y-89871429D01*
X104500001Y-89671429D02*
X104500001Y-90185714D01*
X104471429Y-90242857D01*
X104414287Y-90271429D01*
X104357144Y-90271429D01*
X104214287Y-89871429D02*
X104100001Y-90271429D01*
X103985715Y-89985714D01*
X103871430Y-90271429D01*
X103757144Y-89871429D01*
X103442859Y-90271429D02*
X103500001Y-90242857D01*
X103528573Y-90214286D01*
X103557144Y-90157143D01*
X103557144Y-89985714D01*
X103528573Y-89928571D01*
X103500001Y-89900000D01*
X103442859Y-89871429D01*
X103357144Y-89871429D01*
X103300001Y-89900000D01*
X103271430Y-89928571D01*
X103242859Y-89985714D01*
X103242859Y-90157143D01*
X103271430Y-90214286D01*
X103300001Y-90242857D01*
X103357144Y-90271429D01*
X103442859Y-90271429D01*
X102985716Y-90271429D02*
X102985716Y-89871429D01*
X102985716Y-89985714D02*
X102957144Y-89928571D01*
X102928573Y-89900000D01*
X102871430Y-89871429D01*
X102814287Y-89871429D01*
X102614287Y-90271429D02*
X102614287Y-89671429D01*
X102557144Y-90042857D02*
X102385715Y-90271429D01*
X102385715Y-89871429D02*
X102614287Y-90100000D01*
X102157144Y-90242857D02*
X102100001Y-90271429D01*
X101985716Y-90271429D01*
X101928573Y-90242857D01*
X101900001Y-90185714D01*
X101900001Y-90157143D01*
X101928573Y-90100000D01*
X101985716Y-90071429D01*
X102071430Y-90071429D01*
X102128573Y-90042857D01*
X102157144Y-89985714D01*
X102157144Y-89957143D01*
X102128573Y-89900000D01*
X102071430Y-89871429D01*
X101985716Y-89871429D01*
X101928573Y-89900000D01*
X101785716Y-90328571D02*
X101328573Y-90328571D01*
X101185716Y-89871429D02*
X101185716Y-90471429D01*
X101185716Y-89900000D02*
X101128573Y-89871429D01*
X101014287Y-89871429D01*
X100957144Y-89900000D01*
X100928573Y-89928571D01*
X100900002Y-89985714D01*
X100900002Y-90157143D01*
X100928573Y-90214286D01*
X100957144Y-90242857D01*
X101014287Y-90271429D01*
X101128573Y-90271429D01*
X101185716Y-90242857D01*
X100642859Y-90271429D02*
X100642859Y-89871429D01*
X100642859Y-89985714D02*
X100614287Y-89928571D01*
X100585716Y-89900000D01*
X100528573Y-89871429D01*
X100471430Y-89871429D01*
X100185716Y-90271429D02*
X100242858Y-90242857D01*
X100271430Y-90214286D01*
X100300001Y-90157143D01*
X100300001Y-89985714D01*
X100271430Y-89928571D01*
X100242858Y-89900000D01*
X100185716Y-89871429D01*
X100100001Y-89871429D01*
X100042858Y-89900000D01*
X100014287Y-89928571D01*
X99985716Y-89985714D01*
X99985716Y-90157143D01*
X100014287Y-90214286D01*
X100042858Y-90242857D01*
X100100001Y-90271429D01*
X100185716Y-90271429D01*
X99728573Y-89871429D02*
X99728573Y-90385714D01*
X99757144Y-90442857D01*
X99814287Y-90471429D01*
X99842859Y-90471429D01*
X99728573Y-89671429D02*
X99757144Y-89700000D01*
X99728573Y-89728571D01*
X99700001Y-89700000D01*
X99728573Y-89671429D01*
X99728573Y-89728571D01*
X99214287Y-90242857D02*
X99271430Y-90271429D01*
X99385716Y-90271429D01*
X99442859Y-90242857D01*
X99471430Y-90185714D01*
X99471430Y-89957143D01*
X99442859Y-89900000D01*
X99385716Y-89871429D01*
X99271430Y-89871429D01*
X99214287Y-89900000D01*
X99185716Y-89957143D01*
X99185716Y-90014286D01*
X99471430Y-90071429D01*
X98671430Y-90242857D02*
X98728573Y-90271429D01*
X98842859Y-90271429D01*
X98900001Y-90242857D01*
X98928573Y-90214286D01*
X98957144Y-90157143D01*
X98957144Y-89985714D01*
X98928573Y-89928571D01*
X98900001Y-89900000D01*
X98842859Y-89871429D01*
X98728573Y-89871429D01*
X98671430Y-89900000D01*
X98500001Y-89871429D02*
X98271430Y-89871429D01*
X98414287Y-89671429D02*
X98414287Y-90185714D01*
X98385715Y-90242857D01*
X98328573Y-90271429D01*
X98271430Y-90271429D01*
D12*
X127928570Y-86678571D02*
X127928570Y-87964286D01*
X127999999Y-88107143D01*
X128142856Y-88178571D01*
X128214284Y-88178571D01*
X127928570Y-86178571D02*
X127999999Y-86250000D01*
X127928570Y-86321429D01*
X127857142Y-86250000D01*
X127928570Y-86178571D01*
X127928570Y-86321429D01*
X126999998Y-87678571D02*
X127142856Y-87607143D01*
X127214284Y-87535714D01*
X127285713Y-87392857D01*
X127285713Y-86964286D01*
X127214284Y-86821429D01*
X127142856Y-86750000D01*
X126999998Y-86678571D01*
X126785713Y-86678571D01*
X126642856Y-86750000D01*
X126571427Y-86821429D01*
X126499998Y-86964286D01*
X126499998Y-87392857D01*
X126571427Y-87535714D01*
X126642856Y-87607143D01*
X126785713Y-87678571D01*
X126999998Y-87678571D01*
X125857141Y-86678571D02*
X125857141Y-87678571D01*
X125857141Y-86821429D02*
X125785713Y-86750000D01*
X125642855Y-86678571D01*
X125428570Y-86678571D01*
X125285713Y-86750000D01*
X125214284Y-86892857D01*
X125214284Y-87678571D01*
X123357141Y-87678571D02*
X123357141Y-86178571D01*
X123214284Y-87107143D02*
X122785713Y-87678571D01*
X122785713Y-86678571D02*
X123357141Y-87250000D01*
X121928569Y-87678571D02*
X122071427Y-87607143D01*
X122142855Y-87464286D01*
X122142855Y-86178571D01*
X120785713Y-87607143D02*
X120928570Y-87678571D01*
X121214284Y-87678571D01*
X121357141Y-87607143D01*
X121428570Y-87464286D01*
X121428570Y-86892857D01*
X121357141Y-86750000D01*
X121214284Y-86678571D01*
X120928570Y-86678571D01*
X120785713Y-86750000D01*
X120714284Y-86892857D01*
X120714284Y-87035714D01*
X121428570Y-87178571D01*
X120071427Y-87678571D02*
X120071427Y-86678571D01*
X120071427Y-86178571D02*
X120142856Y-86250000D01*
X120071427Y-86321429D01*
X119999999Y-86250000D01*
X120071427Y-86178571D01*
X120071427Y-86321429D01*
X119357141Y-86678571D02*
X119357141Y-87678571D01*
X119357141Y-86821429D02*
X119285713Y-86750000D01*
X119142855Y-86678571D01*
X118928570Y-86678571D01*
X118785713Y-86750000D01*
X118714284Y-86892857D01*
X118714284Y-87678571D01*
X117928570Y-87607143D02*
X117928570Y-87678571D01*
X117999998Y-87821429D01*
X118071427Y-87892857D01*
X116214284Y-86321429D02*
X116142855Y-86250000D01*
X115999998Y-86178571D01*
X115642855Y-86178571D01*
X115499998Y-86250000D01*
X115428569Y-86321429D01*
X115357141Y-86464286D01*
X115357141Y-86607143D01*
X115428569Y-86821429D01*
X116285712Y-87678571D01*
X115357141Y-87678571D01*
X114428570Y-86178571D02*
X114285713Y-86178571D01*
X114142856Y-86250000D01*
X114071427Y-86321429D01*
X113999998Y-86464286D01*
X113928570Y-86750000D01*
X113928570Y-87107143D01*
X113999998Y-87392857D01*
X114071427Y-87535714D01*
X114142856Y-87607143D01*
X114285713Y-87678571D01*
X114428570Y-87678571D01*
X114571427Y-87607143D01*
X114642856Y-87535714D01*
X114714284Y-87392857D01*
X114785713Y-87107143D01*
X114785713Y-86750000D01*
X114714284Y-86464286D01*
X114642856Y-86321429D01*
X114571427Y-86250000D01*
X114428570Y-86178571D01*
X112499999Y-87678571D02*
X113357142Y-87678571D01*
X112928570Y-87678571D02*
X112928570Y-86178571D01*
X113071427Y-86392857D01*
X113214285Y-86535714D01*
X113357142Y-86607143D01*
X111142856Y-86178571D02*
X111857142Y-86178571D01*
X111928571Y-86892857D01*
X111857142Y-86821429D01*
X111714285Y-86750000D01*
X111357142Y-86750000D01*
X111214285Y-86821429D01*
X111142856Y-86892857D01*
X111071428Y-87035714D01*
X111071428Y-87392857D01*
X111142856Y-87535714D01*
X111214285Y-87607143D01*
X111357142Y-87678571D01*
X111714285Y-87678571D01*
X111857142Y-87607143D01*
X111928571Y-87535714D01*
X110428571Y-87535714D02*
X110357143Y-87607143D01*
X110428571Y-87678571D01*
X110500000Y-87607143D01*
X110428571Y-87535714D01*
X110428571Y-87678571D01*
X109428571Y-86178571D02*
X109285714Y-86178571D01*
X109142857Y-86250000D01*
X109071428Y-86321429D01*
X108999999Y-86464286D01*
X108928571Y-86750000D01*
X108928571Y-87107143D01*
X108999999Y-87392857D01*
X109071428Y-87535714D01*
X109142857Y-87607143D01*
X109285714Y-87678571D01*
X109428571Y-87678571D01*
X109571428Y-87607143D01*
X109642857Y-87535714D01*
X109714285Y-87392857D01*
X109785714Y-87107143D01*
X109785714Y-86750000D01*
X109714285Y-86464286D01*
X109642857Y-86321429D01*
X109571428Y-86250000D01*
X109428571Y-86178571D01*
X108214286Y-87678571D02*
X107928571Y-87678571D01*
X107785714Y-87607143D01*
X107714286Y-87535714D01*
X107571428Y-87321429D01*
X107500000Y-87035714D01*
X107500000Y-86464286D01*
X107571428Y-86321429D01*
X107642857Y-86250000D01*
X107785714Y-86178571D01*
X108071428Y-86178571D01*
X108214286Y-86250000D01*
X108285714Y-86321429D01*
X108357143Y-86464286D01*
X108357143Y-86821429D01*
X108285714Y-86964286D01*
X108214286Y-87035714D01*
X108071428Y-87107143D01*
X107785714Y-87107143D01*
X107642857Y-87035714D01*
X107571428Y-86964286D01*
X107500000Y-86821429D01*
X105714286Y-87678571D02*
X105714286Y-86678571D01*
X105714286Y-86964286D02*
X105642858Y-86821429D01*
X105571429Y-86750000D01*
X105428572Y-86678571D01*
X105285715Y-86678571D01*
X104500001Y-86178571D02*
X104357144Y-86178571D01*
X104214287Y-86250000D01*
X104142858Y-86321429D01*
X104071429Y-86464286D01*
X104000001Y-86750000D01*
X104000001Y-87107143D01*
X104071429Y-87392857D01*
X104142858Y-87535714D01*
X104214287Y-87607143D01*
X104357144Y-87678571D01*
X104500001Y-87678571D01*
X104642858Y-87607143D01*
X104714287Y-87535714D01*
X104785715Y-87392857D01*
X104857144Y-87107143D01*
X104857144Y-86750000D01*
X104785715Y-86464286D01*
X104714287Y-86321429D01*
X104642858Y-86250000D01*
X104500001Y-86178571D01*
D11*
X189640000Y-117800000D02*
X132640000Y-117800000D01*
X132640000Y-117800000D02*
X132640000Y-89800000D01*
X132640000Y-89800000D02*
X132640000Y-85800000D01*
X132640000Y-85800000D02*
X188640000Y-85800000D01*
X188640000Y-85800000D02*
X190640000Y-85800000D01*
X190640000Y-85800000D02*
X190640000Y-117800000D01*
X190640000Y-117800000D02*
X189640000Y-117800000D01*
X162722476Y-112448905D02*
X162722476Y-111648905D01*
X162417714Y-111648905D01*
X162341523Y-111687000D01*
X162303428Y-111725095D01*
X162265333Y-111801286D01*
X162265333Y-111915571D01*
X162303428Y-111991762D01*
X162341523Y-112029857D01*
X162417714Y-112067952D01*
X162722476Y-112067952D01*
X161998666Y-111648905D02*
X161503428Y-111648905D01*
X161770095Y-111953667D01*
X161655809Y-111953667D01*
X161579619Y-111991762D01*
X161541523Y-112029857D01*
X161503428Y-112106048D01*
X161503428Y-112296524D01*
X161541523Y-112372714D01*
X161579619Y-112410810D01*
X161655809Y-112448905D01*
X161884381Y-112448905D01*
X161960571Y-112410810D01*
X161998666Y-112372714D01*
M02*
