G04 #@! TF.FileFunction,Copper,L4,Bot,Signal*
%FSLAX46Y46*%
G04 Gerber Fmt 4.6, Leading zero omitted, Abs format (unit mm)*
G04 Created by KiCad (PCBNEW (2015-09-03 BZR 6154, Git 4636d8d)-product) date Tue Sep 15 00:06:25 2015*
%MOMM*%
G01*
G04 APERTURE LIST*
%ADD10C,0.100000*%
%ADD11O,1.506220X3.014980*%
%ADD12C,1.800000*%
%ADD13C,0.900000*%
%ADD14C,0.600000*%
%ADD15C,0.360000*%
%ADD16C,0.254000*%
G04 APERTURE END LIST*
D10*
D11*
X181290000Y-87750000D03*
X178750000Y-87750000D03*
X176210000Y-87750000D03*
X167250000Y-115250000D03*
X164710000Y-115250000D03*
X162170000Y-115250000D03*
D12*
X188800000Y-95000000D03*
X188800000Y-108600000D03*
D13*
X164190000Y-86500000D03*
X165460000Y-86500000D03*
X166730000Y-86500000D03*
X168000000Y-86500000D03*
X169270000Y-86500000D03*
X170540000Y-86500000D03*
D14*
X185500000Y-114500000D03*
X179800000Y-94600000D03*
X159000000Y-95000000D03*
X107900000Y-92500000D03*
X130200000Y-92000000D03*
X134000000Y-90800000D03*
X137600000Y-92000000D03*
X158500000Y-91100000D03*
X152700000Y-92000000D03*
X159000000Y-110800000D03*
X158500000Y-114900000D03*
X152700000Y-117000000D03*
X136000000Y-115800000D03*
X134000000Y-115800000D03*
X132000000Y-115800000D03*
X109500000Y-114650000D03*
X111800000Y-117000000D03*
X109000000Y-110800000D03*
X115400000Y-92000000D03*
X109000000Y-98300000D03*
X149750000Y-86250000D03*
X138000000Y-88000000D03*
X138000000Y-107750000D03*
X134500000Y-101500000D03*
X135750000Y-97500000D03*
X137750000Y-94500000D03*
X135750000Y-96750000D03*
X156000000Y-114500000D03*
X128375000Y-108125000D03*
X127125000Y-109375000D03*
X127125000Y-108125000D03*
X128375000Y-109375000D03*
X126000000Y-95000000D03*
X121250000Y-94500000D03*
X121250000Y-96500000D03*
X131750000Y-98500000D03*
X123250000Y-99500000D03*
X123250000Y-101500000D03*
X120000000Y-94000000D03*
X114250000Y-97000000D03*
X139250000Y-112250000D03*
X141500000Y-112250000D03*
X148450000Y-104950000D03*
X148500000Y-108000000D03*
X184000000Y-106500000D03*
X182000000Y-106500000D03*
X180000000Y-106500000D03*
X174500000Y-97500000D03*
X185371311Y-102500000D03*
X184000000Y-99000000D03*
X174500000Y-101000000D03*
X174575000Y-102075000D03*
X174655000Y-103345000D03*
X174615000Y-104615000D03*
X174615000Y-105885000D03*
X174655000Y-107155000D03*
X174575000Y-108425000D03*
X152600000Y-106900000D03*
X150250000Y-115000000D03*
X149250000Y-115000000D03*
X113500000Y-104500000D03*
X115630029Y-113000000D03*
X118500000Y-100000000D03*
X115500000Y-100000000D03*
X124900000Y-116100000D03*
X122900000Y-116100000D03*
X129300000Y-115900000D03*
X133500000Y-104250000D03*
X130592511Y-105250000D03*
X125500000Y-104000000D03*
X127500000Y-115750000D03*
X120500000Y-105000000D03*
X122650000Y-110850000D03*
X122000000Y-106500000D03*
X123000000Y-106500000D03*
X175000000Y-114500000D03*
X123000000Y-103500000D03*
X121850000Y-113550000D03*
X126000000Y-113600000D03*
X130300000Y-113500000D03*
X133000000Y-96000000D03*
X134500000Y-99750000D03*
X154250000Y-114500000D03*
X116250000Y-94000000D03*
X134500000Y-106750000D03*
X144000000Y-112250000D03*
X145750000Y-85250000D03*
X166750000Y-92000000D03*
X184000000Y-110000000D03*
X182000000Y-110000000D03*
X180000000Y-110000000D03*
X171000000Y-115000000D03*
X147500000Y-93000000D03*
X151750000Y-97750000D03*
X163000000Y-96000000D03*
X157000000Y-98000000D03*
X169000000Y-100750000D03*
X152000000Y-101000000D03*
X161000000Y-86000000D03*
X156000000Y-95000000D03*
X162000000Y-94000000D03*
X154000000Y-94250000D03*
X161000000Y-94000000D03*
X157000000Y-96000000D03*
X145000000Y-106750000D03*
X112500000Y-96750000D03*
X113750000Y-98500000D03*
X148750000Y-106250000D03*
X119000000Y-98000000D03*
X145000000Y-108250000D03*
X144750000Y-99750000D03*
X142990870Y-100750000D03*
X141250000Y-104250000D03*
X138250000Y-104250000D03*
X140000000Y-102250000D03*
X142500000Y-102250000D03*
X142250000Y-95439990D03*
X142250000Y-96560010D03*
X152250000Y-97000000D03*
X149500000Y-93750000D03*
X149000000Y-99000000D03*
X144000000Y-99000000D03*
X149000000Y-103000000D03*
X138750000Y-103500000D03*
D15*
X169250000Y-87250000D02*
X169250000Y-88000000D01*
X169270000Y-87230000D02*
X169250000Y-87250000D01*
X169270000Y-86500000D02*
X169270000Y-87230000D01*
D16*
G36*
X144957808Y-84719673D02*
X144815162Y-85063201D01*
X144814838Y-85435167D01*
X144956883Y-85778943D01*
X145219673Y-86042192D01*
X145563201Y-86184838D01*
X145935167Y-86185162D01*
X146278943Y-86043117D01*
X146542192Y-85780327D01*
X146684838Y-85436799D01*
X146685162Y-85064833D01*
X146543117Y-84721057D01*
X146532079Y-84710000D01*
X191790000Y-84710000D01*
X191790000Y-118290000D01*
X107627000Y-118290000D01*
X107627000Y-114685167D01*
X153314838Y-114685167D01*
X153456883Y-115028943D01*
X153719673Y-115292192D01*
X154063201Y-115434838D01*
X154435167Y-115435162D01*
X154778943Y-115293117D01*
X155042192Y-115030327D01*
X155184838Y-114686799D01*
X155185041Y-114453646D01*
X160781890Y-114453646D01*
X160781890Y-116046354D01*
X160887554Y-116577561D01*
X161188458Y-117027896D01*
X161638793Y-117328800D01*
X162170000Y-117434464D01*
X162701207Y-117328800D01*
X163151542Y-117027896D01*
X163440000Y-116596188D01*
X163728458Y-117027896D01*
X164178793Y-117328800D01*
X164710000Y-117434464D01*
X165241207Y-117328800D01*
X165691542Y-117027896D01*
X165992446Y-116577561D01*
X165993016Y-116574694D01*
X166016154Y-116652919D01*
X166358260Y-117075724D01*
X166836125Y-117335427D01*
X166908326Y-117349783D01*
X167123000Y-117227162D01*
X167123000Y-115377000D01*
X167377000Y-115377000D01*
X167377000Y-117227162D01*
X167591674Y-117349783D01*
X167663875Y-117335427D01*
X168141740Y-117075724D01*
X168483846Y-116652919D01*
X168638110Y-116131380D01*
X168638110Y-115948550D01*
X187239696Y-115948550D01*
X187507075Y-116595657D01*
X188001739Y-117091185D01*
X188648379Y-117359693D01*
X189348550Y-117360304D01*
X189995657Y-117092925D01*
X190491185Y-116598261D01*
X190759693Y-115951621D01*
X190760304Y-115251450D01*
X190492925Y-114604343D01*
X189998261Y-114108815D01*
X189351621Y-113840307D01*
X188651450Y-113839696D01*
X188004343Y-114107075D01*
X187508815Y-114601739D01*
X187240307Y-115248379D01*
X187239696Y-115948550D01*
X168638110Y-115948550D01*
X168638110Y-115377000D01*
X167377000Y-115377000D01*
X167123000Y-115377000D01*
X167103000Y-115377000D01*
X167103000Y-115185167D01*
X170064838Y-115185167D01*
X170206883Y-115528943D01*
X170469673Y-115792192D01*
X170813201Y-115934838D01*
X171185167Y-115935162D01*
X171528943Y-115793117D01*
X171792192Y-115530327D01*
X171934838Y-115186799D01*
X171935162Y-114814833D01*
X171881586Y-114685167D01*
X174064838Y-114685167D01*
X174206883Y-115028943D01*
X174469673Y-115292192D01*
X174813201Y-115434838D01*
X175185167Y-115435162D01*
X175528943Y-115293117D01*
X175792192Y-115030327D01*
X175934838Y-114686799D01*
X175935162Y-114314833D01*
X175793117Y-113971057D01*
X175530327Y-113707808D01*
X175186799Y-113565162D01*
X174814833Y-113564838D01*
X174471057Y-113706883D01*
X174207808Y-113969673D01*
X174065162Y-114313201D01*
X174064838Y-114685167D01*
X171881586Y-114685167D01*
X171793117Y-114471057D01*
X171530327Y-114207808D01*
X171186799Y-114065162D01*
X170814833Y-114064838D01*
X170471057Y-114206883D01*
X170207808Y-114469673D01*
X170065162Y-114813201D01*
X170064838Y-115185167D01*
X167103000Y-115185167D01*
X167103000Y-115123000D01*
X167123000Y-115123000D01*
X167123000Y-113272838D01*
X167377000Y-113272838D01*
X167377000Y-115123000D01*
X168638110Y-115123000D01*
X168638110Y-114368620D01*
X168483846Y-113847081D01*
X168141740Y-113424276D01*
X167663875Y-113164573D01*
X167591674Y-113150217D01*
X167377000Y-113272838D01*
X167123000Y-113272838D01*
X166908326Y-113150217D01*
X166836125Y-113164573D01*
X166358260Y-113424276D01*
X166016154Y-113847081D01*
X165993016Y-113925306D01*
X165992446Y-113922439D01*
X165691542Y-113472104D01*
X165241207Y-113171200D01*
X164710000Y-113065536D01*
X164178793Y-113171200D01*
X163728458Y-113472104D01*
X163440000Y-113903812D01*
X163151542Y-113472104D01*
X162701207Y-113171200D01*
X162170000Y-113065536D01*
X161638793Y-113171200D01*
X161188458Y-113472104D01*
X160887554Y-113922439D01*
X160781890Y-114453646D01*
X155185041Y-114453646D01*
X155185162Y-114314833D01*
X155043117Y-113971057D01*
X154780327Y-113707808D01*
X154436799Y-113565162D01*
X154064833Y-113564838D01*
X153721057Y-113706883D01*
X153457808Y-113969673D01*
X153315162Y-114313201D01*
X153314838Y-114685167D01*
X107627000Y-114685167D01*
X107627000Y-113735167D01*
X120914838Y-113735167D01*
X121056883Y-114078943D01*
X121319673Y-114342192D01*
X121663201Y-114484838D01*
X122035167Y-114485162D01*
X122378943Y-114343117D01*
X122642192Y-114080327D01*
X122764753Y-113785167D01*
X125064838Y-113785167D01*
X125206883Y-114128943D01*
X125469673Y-114392192D01*
X125813201Y-114534838D01*
X126185167Y-114535162D01*
X126528943Y-114393117D01*
X126792192Y-114130327D01*
X126934838Y-113786799D01*
X126934926Y-113685167D01*
X129364838Y-113685167D01*
X129506883Y-114028943D01*
X129769673Y-114292192D01*
X130113201Y-114434838D01*
X130485167Y-114435162D01*
X130828943Y-114293117D01*
X131092192Y-114030327D01*
X131234838Y-113686799D01*
X131235162Y-113314833D01*
X131093117Y-112971057D01*
X130830327Y-112707808D01*
X130486799Y-112565162D01*
X130114833Y-112564838D01*
X129771057Y-112706883D01*
X129507808Y-112969673D01*
X129365162Y-113313201D01*
X129364838Y-113685167D01*
X126934926Y-113685167D01*
X126935162Y-113414833D01*
X126793117Y-113071057D01*
X126530327Y-112807808D01*
X126186799Y-112665162D01*
X125814833Y-112664838D01*
X125471057Y-112806883D01*
X125207808Y-113069673D01*
X125065162Y-113413201D01*
X125064838Y-113785167D01*
X122764753Y-113785167D01*
X122784838Y-113736799D01*
X122785162Y-113364833D01*
X122643117Y-113021057D01*
X122380327Y-112757808D01*
X122036799Y-112615162D01*
X121664833Y-112614838D01*
X121321057Y-112756883D01*
X121057808Y-113019673D01*
X120915162Y-113363201D01*
X120914838Y-113735167D01*
X107627000Y-113735167D01*
X107627000Y-112435167D01*
X143064838Y-112435167D01*
X143206883Y-112778943D01*
X143469673Y-113042192D01*
X143813201Y-113184838D01*
X144185167Y-113185162D01*
X144528943Y-113043117D01*
X144792192Y-112780327D01*
X144934838Y-112436799D01*
X144935162Y-112064833D01*
X144793117Y-111721057D01*
X144530327Y-111457808D01*
X144186799Y-111315162D01*
X143814833Y-111314838D01*
X143471057Y-111456883D01*
X143207808Y-111719673D01*
X143065162Y-112063201D01*
X143064838Y-112435167D01*
X107627000Y-112435167D01*
X107627000Y-110185167D01*
X179064838Y-110185167D01*
X179206883Y-110528943D01*
X179469673Y-110792192D01*
X179813201Y-110934838D01*
X180185167Y-110935162D01*
X180528943Y-110793117D01*
X180792192Y-110530327D01*
X180934838Y-110186799D01*
X180934839Y-110185167D01*
X181064838Y-110185167D01*
X181206883Y-110528943D01*
X181469673Y-110792192D01*
X181813201Y-110934838D01*
X182185167Y-110935162D01*
X182528943Y-110793117D01*
X182792192Y-110530327D01*
X182934838Y-110186799D01*
X182934839Y-110185167D01*
X183064838Y-110185167D01*
X183206883Y-110528943D01*
X183469673Y-110792192D01*
X183813201Y-110934838D01*
X184185167Y-110935162D01*
X184528943Y-110793117D01*
X184792192Y-110530327D01*
X184934838Y-110186799D01*
X184935162Y-109814833D01*
X184879516Y-109680159D01*
X187899446Y-109680159D01*
X187985852Y-109936643D01*
X188559336Y-110146458D01*
X189169460Y-110120839D01*
X189614148Y-109936643D01*
X189700554Y-109680159D01*
X188800000Y-108779605D01*
X187899446Y-109680159D01*
X184879516Y-109680159D01*
X184793117Y-109471057D01*
X184530327Y-109207808D01*
X184186799Y-109065162D01*
X183814833Y-109064838D01*
X183471057Y-109206883D01*
X183207808Y-109469673D01*
X183065162Y-109813201D01*
X183064838Y-110185167D01*
X182934839Y-110185167D01*
X182935162Y-109814833D01*
X182793117Y-109471057D01*
X182530327Y-109207808D01*
X182186799Y-109065162D01*
X181814833Y-109064838D01*
X181471057Y-109206883D01*
X181207808Y-109469673D01*
X181065162Y-109813201D01*
X181064838Y-110185167D01*
X180934839Y-110185167D01*
X180935162Y-109814833D01*
X180793117Y-109471057D01*
X180530327Y-109207808D01*
X180186799Y-109065162D01*
X179814833Y-109064838D01*
X179471057Y-109206883D01*
X179207808Y-109469673D01*
X179065162Y-109813201D01*
X179064838Y-110185167D01*
X107627000Y-110185167D01*
X107627000Y-106935167D01*
X133564838Y-106935167D01*
X133706883Y-107278943D01*
X133969673Y-107542192D01*
X134313201Y-107684838D01*
X134685167Y-107685162D01*
X135028943Y-107543117D01*
X135292192Y-107280327D01*
X135434838Y-106936799D01*
X135434839Y-106935167D01*
X144064838Y-106935167D01*
X144206883Y-107278943D01*
X144427709Y-107500155D01*
X144207808Y-107719673D01*
X144065162Y-108063201D01*
X144064838Y-108435167D01*
X144206883Y-108778943D01*
X144469673Y-109042192D01*
X144813201Y-109184838D01*
X145185167Y-109185162D01*
X145528943Y-109043117D01*
X145792192Y-108780327D01*
X145934838Y-108436799D01*
X145934905Y-108359336D01*
X187253542Y-108359336D01*
X187279161Y-108969460D01*
X187463357Y-109414148D01*
X187719841Y-109500554D01*
X188620395Y-108600000D01*
X188979605Y-108600000D01*
X189880159Y-109500554D01*
X190136643Y-109414148D01*
X190346458Y-108840664D01*
X190320839Y-108230540D01*
X190136643Y-107785852D01*
X189880159Y-107699446D01*
X188979605Y-108600000D01*
X188620395Y-108600000D01*
X187719841Y-107699446D01*
X187463357Y-107785852D01*
X187253542Y-108359336D01*
X145934905Y-108359336D01*
X145935162Y-108064833D01*
X145793117Y-107721057D01*
X145592253Y-107519841D01*
X187899446Y-107519841D01*
X188800000Y-108420395D01*
X189700554Y-107519841D01*
X189614148Y-107263357D01*
X189040664Y-107053542D01*
X188430540Y-107079161D01*
X187985852Y-107263357D01*
X187899446Y-107519841D01*
X145592253Y-107519841D01*
X145572291Y-107499845D01*
X145792192Y-107280327D01*
X145934838Y-106936799D01*
X145935162Y-106564833D01*
X145881586Y-106435167D01*
X147814838Y-106435167D01*
X147956883Y-106778943D01*
X148219673Y-107042192D01*
X148563201Y-107184838D01*
X148935167Y-107185162D01*
X149278943Y-107043117D01*
X149542192Y-106780327D01*
X149684838Y-106436799D01*
X149685162Y-106064833D01*
X149543117Y-105721057D01*
X149280327Y-105457808D01*
X148936799Y-105315162D01*
X148564833Y-105314838D01*
X148221057Y-105456883D01*
X147957808Y-105719673D01*
X147815162Y-106063201D01*
X147814838Y-106435167D01*
X145881586Y-106435167D01*
X145793117Y-106221057D01*
X145530327Y-105957808D01*
X145186799Y-105815162D01*
X144814833Y-105814838D01*
X144471057Y-105956883D01*
X144207808Y-106219673D01*
X144065162Y-106563201D01*
X144064838Y-106935167D01*
X135434839Y-106935167D01*
X135435162Y-106564833D01*
X135293117Y-106221057D01*
X135030327Y-105957808D01*
X134686799Y-105815162D01*
X134314833Y-105814838D01*
X133971057Y-105956883D01*
X133707808Y-106219673D01*
X133565162Y-106563201D01*
X133564838Y-106935167D01*
X107627000Y-106935167D01*
X107627000Y-104435167D01*
X137314838Y-104435167D01*
X137456883Y-104778943D01*
X137719673Y-105042192D01*
X138063201Y-105184838D01*
X138435167Y-105185162D01*
X138778943Y-105043117D01*
X139042192Y-104780327D01*
X139184838Y-104436799D01*
X139184839Y-104435167D01*
X140314838Y-104435167D01*
X140456883Y-104778943D01*
X140719673Y-105042192D01*
X141063201Y-105184838D01*
X141435167Y-105185162D01*
X141778943Y-105043117D01*
X142042192Y-104780327D01*
X142184838Y-104436799D01*
X142185162Y-104064833D01*
X142043117Y-103721057D01*
X141780327Y-103457808D01*
X141436799Y-103315162D01*
X141064833Y-103314838D01*
X140721057Y-103456883D01*
X140457808Y-103719673D01*
X140315162Y-104063201D01*
X140314838Y-104435167D01*
X139184839Y-104435167D01*
X139184929Y-104331963D01*
X139278943Y-104293117D01*
X139542192Y-104030327D01*
X139684838Y-103686799D01*
X139685162Y-103314833D01*
X139631586Y-103185167D01*
X148064838Y-103185167D01*
X148206883Y-103528943D01*
X148469673Y-103792192D01*
X148813201Y-103934838D01*
X149185167Y-103935162D01*
X149528943Y-103793117D01*
X149792192Y-103530327D01*
X149934838Y-103186799D01*
X149935162Y-102814833D01*
X149793117Y-102471057D01*
X149600663Y-102278266D01*
X160224581Y-102278266D01*
X160591469Y-103166201D01*
X161270226Y-103846144D01*
X162157519Y-104214580D01*
X163118266Y-104215419D01*
X164006201Y-103848531D01*
X164686144Y-103169774D01*
X165054580Y-102282481D01*
X165054996Y-101804971D01*
X180964821Y-101804971D01*
X181122058Y-102185515D01*
X181412954Y-102476919D01*
X181468205Y-102499861D01*
X181414485Y-102522058D01*
X181123081Y-102812954D01*
X180965180Y-103193223D01*
X180964821Y-103604971D01*
X181122058Y-103985515D01*
X181412954Y-104276919D01*
X181793223Y-104434820D01*
X182204971Y-104435179D01*
X182585515Y-104277942D01*
X182876919Y-103987046D01*
X183034820Y-103606777D01*
X183035179Y-103195029D01*
X182877942Y-102814485D01*
X182587046Y-102523081D01*
X182531795Y-102500139D01*
X182585515Y-102477942D01*
X182876919Y-102187046D01*
X182975950Y-101948550D01*
X187239696Y-101948550D01*
X187507075Y-102595657D01*
X188001739Y-103091185D01*
X188648379Y-103359693D01*
X189348550Y-103360304D01*
X189995657Y-103092925D01*
X190491185Y-102598261D01*
X190759693Y-101951621D01*
X190760304Y-101251450D01*
X190492925Y-100604343D01*
X189998261Y-100108815D01*
X189351621Y-99840307D01*
X188651450Y-99839696D01*
X188004343Y-100107075D01*
X187508815Y-100601739D01*
X187240307Y-101248379D01*
X187239696Y-101948550D01*
X182975950Y-101948550D01*
X183034820Y-101806777D01*
X183035179Y-101395029D01*
X182877942Y-101014485D01*
X182587046Y-100723081D01*
X182206777Y-100565180D01*
X181795029Y-100564821D01*
X181414485Y-100722058D01*
X181123081Y-101012954D01*
X180965180Y-101393223D01*
X180964821Y-101804971D01*
X165054996Y-101804971D01*
X165055419Y-101321734D01*
X164895693Y-100935167D01*
X168064838Y-100935167D01*
X168206883Y-101278943D01*
X168469673Y-101542192D01*
X168813201Y-101684838D01*
X169185167Y-101685162D01*
X169528943Y-101543117D01*
X169792192Y-101280327D01*
X169934838Y-100936799D01*
X169935162Y-100564833D01*
X169793117Y-100221057D01*
X169530327Y-99957808D01*
X169186799Y-99815162D01*
X168814833Y-99814838D01*
X168471057Y-99956883D01*
X168207808Y-100219673D01*
X168065162Y-100563201D01*
X168064838Y-100935167D01*
X164895693Y-100935167D01*
X164688531Y-100433799D01*
X164009774Y-99753856D01*
X163122481Y-99385420D01*
X162161734Y-99384581D01*
X161273799Y-99751469D01*
X160593856Y-100430226D01*
X160225420Y-101317519D01*
X160224581Y-102278266D01*
X149600663Y-102278266D01*
X149530327Y-102207808D01*
X149186799Y-102065162D01*
X148814833Y-102064838D01*
X148471057Y-102206883D01*
X148207808Y-102469673D01*
X148065162Y-102813201D01*
X148064838Y-103185167D01*
X139631586Y-103185167D01*
X139593807Y-103093737D01*
X139813201Y-103184838D01*
X140185167Y-103185162D01*
X140528943Y-103043117D01*
X140792192Y-102780327D01*
X140934838Y-102436799D01*
X140934839Y-102435167D01*
X141564838Y-102435167D01*
X141706883Y-102778943D01*
X141969673Y-103042192D01*
X142313201Y-103184838D01*
X142685167Y-103185162D01*
X143028943Y-103043117D01*
X143292192Y-102780327D01*
X143434838Y-102436799D01*
X143435162Y-102064833D01*
X143293117Y-101721057D01*
X143233559Y-101661395D01*
X143519813Y-101543117D01*
X143783062Y-101280327D01*
X143822576Y-101185167D01*
X151064838Y-101185167D01*
X151206883Y-101528943D01*
X151469673Y-101792192D01*
X151813201Y-101934838D01*
X152185167Y-101935162D01*
X152528943Y-101793117D01*
X152792192Y-101530327D01*
X152934838Y-101186799D01*
X152935162Y-100814833D01*
X152793117Y-100471057D01*
X152530327Y-100207808D01*
X152186799Y-100065162D01*
X151814833Y-100064838D01*
X151471057Y-100206883D01*
X151207808Y-100469673D01*
X151065162Y-100813201D01*
X151064838Y-101185167D01*
X143822576Y-101185167D01*
X143925708Y-100936799D01*
X143926032Y-100564833D01*
X143783987Y-100221057D01*
X143521197Y-99957808D01*
X143177669Y-99815162D01*
X142805703Y-99814838D01*
X142461927Y-99956883D01*
X142198678Y-100219673D01*
X142056032Y-100563201D01*
X142055708Y-100935167D01*
X142197753Y-101278943D01*
X142257311Y-101338605D01*
X141971057Y-101456883D01*
X141707808Y-101719673D01*
X141565162Y-102063201D01*
X141564838Y-102435167D01*
X140934839Y-102435167D01*
X140935162Y-102064833D01*
X140793117Y-101721057D01*
X140530327Y-101457808D01*
X140186799Y-101315162D01*
X139814833Y-101314838D01*
X139471057Y-101456883D01*
X139207808Y-101719673D01*
X139065162Y-102063201D01*
X139064838Y-102435167D01*
X139156193Y-102656263D01*
X138936799Y-102565162D01*
X138564833Y-102564838D01*
X138221057Y-102706883D01*
X137957808Y-102969673D01*
X137815162Y-103313201D01*
X137815071Y-103418037D01*
X137721057Y-103456883D01*
X137457808Y-103719673D01*
X137315162Y-104063201D01*
X137314838Y-104435167D01*
X107627000Y-104435167D01*
X107627000Y-103685167D01*
X122064838Y-103685167D01*
X122206883Y-104028943D01*
X122469673Y-104292192D01*
X122813201Y-104434838D01*
X123185167Y-104435162D01*
X123528943Y-104293117D01*
X123792192Y-104030327D01*
X123934838Y-103686799D01*
X123935162Y-103314833D01*
X123793117Y-102971057D01*
X123530327Y-102707808D01*
X123186799Y-102565162D01*
X122814833Y-102564838D01*
X122471057Y-102706883D01*
X122207808Y-102969673D01*
X122065162Y-103313201D01*
X122064838Y-103685167D01*
X107627000Y-103685167D01*
X107627000Y-99935167D01*
X133564838Y-99935167D01*
X133706883Y-100278943D01*
X133969673Y-100542192D01*
X134313201Y-100684838D01*
X134685167Y-100685162D01*
X135028943Y-100543117D01*
X135292192Y-100280327D01*
X135434838Y-99936799D01*
X135435162Y-99564833D01*
X135293117Y-99221057D01*
X135257290Y-99185167D01*
X143064838Y-99185167D01*
X143206883Y-99528943D01*
X143469673Y-99792192D01*
X143813201Y-99934838D01*
X143814838Y-99934839D01*
X143814838Y-99935167D01*
X143956883Y-100278943D01*
X144219673Y-100542192D01*
X144563201Y-100684838D01*
X144935167Y-100685162D01*
X145278943Y-100543117D01*
X145542192Y-100280327D01*
X145684838Y-99936799D01*
X145685162Y-99564833D01*
X145543117Y-99221057D01*
X145507290Y-99185167D01*
X148064838Y-99185167D01*
X148206883Y-99528943D01*
X148469673Y-99792192D01*
X148813201Y-99934838D01*
X149185167Y-99935162D01*
X149528943Y-99793117D01*
X149792192Y-99530327D01*
X149934838Y-99186799D01*
X149935162Y-98814833D01*
X149793117Y-98471057D01*
X149530327Y-98207808D01*
X149186799Y-98065162D01*
X148814833Y-98064838D01*
X148471057Y-98206883D01*
X148207808Y-98469673D01*
X148065162Y-98813201D01*
X148064838Y-99185167D01*
X145507290Y-99185167D01*
X145280327Y-98957808D01*
X144936799Y-98815162D01*
X144935162Y-98815161D01*
X144935162Y-98814833D01*
X144793117Y-98471057D01*
X144530327Y-98207808D01*
X144186799Y-98065162D01*
X143814833Y-98064838D01*
X143471057Y-98206883D01*
X143207808Y-98469673D01*
X143065162Y-98813201D01*
X143064838Y-99185167D01*
X135257290Y-99185167D01*
X135030327Y-98957808D01*
X134686799Y-98815162D01*
X134314833Y-98814838D01*
X133971057Y-98956883D01*
X133707808Y-99219673D01*
X133565162Y-99563201D01*
X133564838Y-99935167D01*
X107627000Y-99935167D01*
X107627000Y-98685167D01*
X112814838Y-98685167D01*
X112956883Y-99028943D01*
X113219673Y-99292192D01*
X113563201Y-99434838D01*
X113935167Y-99435162D01*
X114278943Y-99293117D01*
X114542192Y-99030327D01*
X114684838Y-98686799D01*
X114685162Y-98314833D01*
X114631586Y-98185167D01*
X118064838Y-98185167D01*
X118206883Y-98528943D01*
X118469673Y-98792192D01*
X118813201Y-98934838D01*
X119185167Y-98935162D01*
X119528943Y-98793117D01*
X119792192Y-98530327D01*
X119934838Y-98186799D01*
X119935057Y-97935167D01*
X150814838Y-97935167D01*
X150956883Y-98278943D01*
X151219673Y-98542192D01*
X151563201Y-98684838D01*
X151935167Y-98685162D01*
X152278943Y-98543117D01*
X152542192Y-98280327D01*
X152581706Y-98185167D01*
X156064838Y-98185167D01*
X156206883Y-98528943D01*
X156469673Y-98792192D01*
X156813201Y-98934838D01*
X157185167Y-98935162D01*
X157528943Y-98793117D01*
X157792192Y-98530327D01*
X157934838Y-98186799D01*
X157935162Y-97814833D01*
X157793117Y-97471057D01*
X157530327Y-97207808D01*
X157186799Y-97065162D01*
X156814833Y-97064838D01*
X156471057Y-97206883D01*
X156207808Y-97469673D01*
X156065162Y-97813201D01*
X156064838Y-98185167D01*
X152581706Y-98185167D01*
X152684838Y-97936799D01*
X152684929Y-97831963D01*
X152778943Y-97793117D01*
X153042192Y-97530327D01*
X153184838Y-97186799D01*
X153185162Y-96814833D01*
X153043117Y-96471057D01*
X152780327Y-96207808D01*
X152436799Y-96065162D01*
X152064833Y-96064838D01*
X151721057Y-96206883D01*
X151457808Y-96469673D01*
X151315162Y-96813201D01*
X151315071Y-96918037D01*
X151221057Y-96956883D01*
X150957808Y-97219673D01*
X150815162Y-97563201D01*
X150814838Y-97935167D01*
X119935057Y-97935167D01*
X119935162Y-97814833D01*
X119793117Y-97471057D01*
X119530327Y-97207808D01*
X119186799Y-97065162D01*
X118814833Y-97064838D01*
X118471057Y-97206883D01*
X118207808Y-97469673D01*
X118065162Y-97813201D01*
X118064838Y-98185167D01*
X114631586Y-98185167D01*
X114543117Y-97971057D01*
X114280327Y-97707808D01*
X113936799Y-97565162D01*
X113564833Y-97564838D01*
X113221057Y-97706883D01*
X112957808Y-97969673D01*
X112815162Y-98313201D01*
X112814838Y-98685167D01*
X107627000Y-98685167D01*
X107627000Y-96935167D01*
X111564838Y-96935167D01*
X111706883Y-97278943D01*
X111969673Y-97542192D01*
X112313201Y-97684838D01*
X112685167Y-97685162D01*
X113028943Y-97543117D01*
X113292192Y-97280327D01*
X113434838Y-96936799D01*
X113435162Y-96564833D01*
X113293117Y-96221057D01*
X113257290Y-96185167D01*
X132064838Y-96185167D01*
X132206883Y-96528943D01*
X132469673Y-96792192D01*
X132813201Y-96934838D01*
X133185167Y-96935162D01*
X133528943Y-96793117D01*
X133792192Y-96530327D01*
X133934838Y-96186799D01*
X133935162Y-95814833D01*
X133856790Y-95625157D01*
X141314838Y-95625157D01*
X141456883Y-95968933D01*
X141487720Y-95999824D01*
X141457808Y-96029683D01*
X141315162Y-96373211D01*
X141314838Y-96745177D01*
X141456883Y-97088953D01*
X141719673Y-97352202D01*
X142063201Y-97494848D01*
X142435167Y-97495172D01*
X142778943Y-97353127D01*
X143042192Y-97090337D01*
X143184838Y-96746809D01*
X143185162Y-96374843D01*
X143043117Y-96031067D01*
X143012280Y-96000176D01*
X143042192Y-95970317D01*
X143184838Y-95626789D01*
X143185162Y-95254823D01*
X143156381Y-95185167D01*
X155064838Y-95185167D01*
X155206883Y-95528943D01*
X155469673Y-95792192D01*
X155813201Y-95934838D01*
X156065056Y-95935057D01*
X156064838Y-96185167D01*
X156206883Y-96528943D01*
X156469673Y-96792192D01*
X156813201Y-96934838D01*
X157185167Y-96935162D01*
X157528943Y-96793117D01*
X157792192Y-96530327D01*
X157934838Y-96186799D01*
X157934839Y-96185167D01*
X162064838Y-96185167D01*
X162206883Y-96528943D01*
X162469673Y-96792192D01*
X162813201Y-96934838D01*
X163185167Y-96935162D01*
X163528943Y-96793117D01*
X163792192Y-96530327D01*
X163934838Y-96186799D01*
X163935162Y-95814833D01*
X163793117Y-95471057D01*
X163626343Y-95303991D01*
X187264735Y-95303991D01*
X187497932Y-95868371D01*
X187929357Y-96300551D01*
X188493330Y-96534733D01*
X189103991Y-96535265D01*
X189668371Y-96302068D01*
X190100551Y-95870643D01*
X190334733Y-95306670D01*
X190335265Y-94696009D01*
X190102068Y-94131629D01*
X189670643Y-93699449D01*
X189106670Y-93465267D01*
X188496009Y-93464735D01*
X187931629Y-93697932D01*
X187499449Y-94129357D01*
X187265267Y-94693330D01*
X187264735Y-95303991D01*
X163626343Y-95303991D01*
X163530327Y-95207808D01*
X163186799Y-95065162D01*
X162814833Y-95064838D01*
X162471057Y-95206883D01*
X162207808Y-95469673D01*
X162065162Y-95813201D01*
X162064838Y-96185167D01*
X157934839Y-96185167D01*
X157935162Y-95814833D01*
X157793117Y-95471057D01*
X157530327Y-95207808D01*
X157186799Y-95065162D01*
X156934944Y-95064943D01*
X156935162Y-94814833D01*
X156793117Y-94471057D01*
X156530327Y-94207808D01*
X156475802Y-94185167D01*
X160064838Y-94185167D01*
X160206883Y-94528943D01*
X160469673Y-94792192D01*
X160813201Y-94934838D01*
X161185167Y-94935162D01*
X161500351Y-94804931D01*
X161813201Y-94934838D01*
X162185167Y-94935162D01*
X162528943Y-94793117D01*
X162792192Y-94530327D01*
X162934838Y-94186799D01*
X162935162Y-93814833D01*
X162793117Y-93471057D01*
X162530327Y-93207808D01*
X162186799Y-93065162D01*
X161814833Y-93064838D01*
X161499649Y-93195069D01*
X161186799Y-93065162D01*
X160814833Y-93064838D01*
X160471057Y-93206883D01*
X160207808Y-93469673D01*
X160065162Y-93813201D01*
X160064838Y-94185167D01*
X156475802Y-94185167D01*
X156186799Y-94065162D01*
X155814833Y-94064838D01*
X155471057Y-94206883D01*
X155207808Y-94469673D01*
X155065162Y-94813201D01*
X155064838Y-95185167D01*
X143156381Y-95185167D01*
X143043117Y-94911047D01*
X142780327Y-94647798D01*
X142436799Y-94505152D01*
X142064833Y-94504828D01*
X141721057Y-94646873D01*
X141457808Y-94909663D01*
X141315162Y-95253191D01*
X141314838Y-95625157D01*
X133856790Y-95625157D01*
X133793117Y-95471057D01*
X133530327Y-95207808D01*
X133186799Y-95065162D01*
X132814833Y-95064838D01*
X132471057Y-95206883D01*
X132207808Y-95469673D01*
X132065162Y-95813201D01*
X132064838Y-96185167D01*
X113257290Y-96185167D01*
X113030327Y-95957808D01*
X112686799Y-95815162D01*
X112314833Y-95814838D01*
X111971057Y-95956883D01*
X111707808Y-96219673D01*
X111565162Y-96563201D01*
X111564838Y-96935167D01*
X107627000Y-96935167D01*
X107627000Y-94185167D01*
X115314838Y-94185167D01*
X115456883Y-94528943D01*
X115719673Y-94792192D01*
X116063201Y-94934838D01*
X116435167Y-94935162D01*
X116778943Y-94793117D01*
X117042192Y-94530327D01*
X117184838Y-94186799D01*
X117185057Y-93935167D01*
X148564838Y-93935167D01*
X148706883Y-94278943D01*
X148969673Y-94542192D01*
X149313201Y-94684838D01*
X149685167Y-94685162D01*
X150028943Y-94543117D01*
X150137081Y-94435167D01*
X153064838Y-94435167D01*
X153206883Y-94778943D01*
X153469673Y-95042192D01*
X153813201Y-95184838D01*
X154185167Y-95185162D01*
X154528943Y-95043117D01*
X154792192Y-94780327D01*
X154934838Y-94436799D01*
X154935162Y-94064833D01*
X154793117Y-93721057D01*
X154530327Y-93457808D01*
X154186799Y-93315162D01*
X153814833Y-93314838D01*
X153471057Y-93456883D01*
X153207808Y-93719673D01*
X153065162Y-94063201D01*
X153064838Y-94435167D01*
X150137081Y-94435167D01*
X150292192Y-94280327D01*
X150434838Y-93936799D01*
X150435162Y-93564833D01*
X150293117Y-93221057D01*
X150030327Y-92957808D01*
X149686799Y-92815162D01*
X149314833Y-92814838D01*
X148971057Y-92956883D01*
X148707808Y-93219673D01*
X148565162Y-93563201D01*
X148564838Y-93935167D01*
X117185057Y-93935167D01*
X117185162Y-93814833D01*
X117043117Y-93471057D01*
X116780327Y-93207808D01*
X116725802Y-93185167D01*
X146564838Y-93185167D01*
X146706883Y-93528943D01*
X146969673Y-93792192D01*
X147313201Y-93934838D01*
X147685167Y-93935162D01*
X148028943Y-93793117D01*
X148292192Y-93530327D01*
X148434838Y-93186799D01*
X148435162Y-92814833D01*
X148293117Y-92471057D01*
X148030327Y-92207808D01*
X147975802Y-92185167D01*
X165814838Y-92185167D01*
X165956883Y-92528943D01*
X166219673Y-92792192D01*
X166563201Y-92934838D01*
X166935167Y-92935162D01*
X167278943Y-92793117D01*
X167542192Y-92530327D01*
X167684838Y-92186799D01*
X167685162Y-91814833D01*
X167543117Y-91471057D01*
X167280327Y-91207808D01*
X166936799Y-91065162D01*
X166564833Y-91064838D01*
X166221057Y-91206883D01*
X165957808Y-91469673D01*
X165815162Y-91813201D01*
X165814838Y-92185167D01*
X147975802Y-92185167D01*
X147686799Y-92065162D01*
X147314833Y-92064838D01*
X146971057Y-92206883D01*
X146707808Y-92469673D01*
X146565162Y-92813201D01*
X146564838Y-93185167D01*
X116725802Y-93185167D01*
X116436799Y-93065162D01*
X116064833Y-93064838D01*
X115721057Y-93206883D01*
X115457808Y-93469673D01*
X115315162Y-93813201D01*
X115314838Y-94185167D01*
X107627000Y-94185167D01*
X107627000Y-87054971D01*
X140214821Y-87054971D01*
X140372058Y-87435515D01*
X140662954Y-87726919D01*
X140718205Y-87749861D01*
X140664485Y-87772058D01*
X140373081Y-88062954D01*
X140215180Y-88443223D01*
X140214821Y-88854971D01*
X140372058Y-89235515D01*
X140662954Y-89526919D01*
X141043223Y-89684820D01*
X141454971Y-89685179D01*
X141835515Y-89527942D01*
X142126919Y-89237046D01*
X142284820Y-88856777D01*
X142285179Y-88445029D01*
X142127942Y-88064485D01*
X141837046Y-87773081D01*
X141781795Y-87750139D01*
X141835515Y-87727942D01*
X142126919Y-87437046D01*
X142284820Y-87056777D01*
X142285179Y-86645029D01*
X142127942Y-86264485D01*
X142048763Y-86185167D01*
X160064838Y-86185167D01*
X160206883Y-86528943D01*
X160469673Y-86792192D01*
X160813201Y-86934838D01*
X161185167Y-86935162D01*
X161528943Y-86793117D01*
X161607323Y-86714873D01*
X163104812Y-86714873D01*
X163269646Y-87113800D01*
X163574595Y-87419282D01*
X163973233Y-87584811D01*
X164404873Y-87585188D01*
X164803800Y-87420354D01*
X164824769Y-87399421D01*
X164844595Y-87419282D01*
X165243233Y-87584811D01*
X165674873Y-87585188D01*
X166073800Y-87420354D01*
X166094769Y-87399421D01*
X166114595Y-87419282D01*
X166513233Y-87584811D01*
X166944873Y-87585188D01*
X167343800Y-87420354D01*
X167364769Y-87399421D01*
X167384595Y-87419282D01*
X167783233Y-87584811D01*
X168214873Y-87585188D01*
X168613800Y-87420354D01*
X168706740Y-87327576D01*
X168726803Y-87463712D01*
X169136948Y-87598226D01*
X169567349Y-87565546D01*
X169813197Y-87463712D01*
X169833232Y-87327760D01*
X169924595Y-87419282D01*
X170323233Y-87584811D01*
X170754873Y-87585188D01*
X171153800Y-87420354D01*
X171459282Y-87115405D01*
X171526450Y-86953646D01*
X174821890Y-86953646D01*
X174821890Y-88546354D01*
X174927554Y-89077561D01*
X175228458Y-89527896D01*
X175678793Y-89828800D01*
X176210000Y-89934464D01*
X176741207Y-89828800D01*
X177191542Y-89527896D01*
X177480000Y-89096188D01*
X177768458Y-89527896D01*
X178218793Y-89828800D01*
X178750000Y-89934464D01*
X179281207Y-89828800D01*
X179731542Y-89527896D01*
X180032446Y-89077561D01*
X180033016Y-89074694D01*
X180056154Y-89152919D01*
X180398260Y-89575724D01*
X180876125Y-89835427D01*
X180948326Y-89849783D01*
X181163000Y-89727162D01*
X181163000Y-87877000D01*
X181417000Y-87877000D01*
X181417000Y-89727162D01*
X181631674Y-89849783D01*
X181703875Y-89835427D01*
X182181740Y-89575724D01*
X182523846Y-89152919D01*
X182678110Y-88631380D01*
X182678110Y-87948550D01*
X187239696Y-87948550D01*
X187507075Y-88595657D01*
X188001739Y-89091185D01*
X188648379Y-89359693D01*
X189348550Y-89360304D01*
X189995657Y-89092925D01*
X190491185Y-88598261D01*
X190759693Y-87951621D01*
X190760304Y-87251450D01*
X190492925Y-86604343D01*
X189998261Y-86108815D01*
X189351621Y-85840307D01*
X188651450Y-85839696D01*
X188004343Y-86107075D01*
X187508815Y-86601739D01*
X187240307Y-87248379D01*
X187239696Y-87948550D01*
X182678110Y-87948550D01*
X182678110Y-87877000D01*
X181417000Y-87877000D01*
X181163000Y-87877000D01*
X181143000Y-87877000D01*
X181143000Y-87623000D01*
X181163000Y-87623000D01*
X181163000Y-85772838D01*
X181417000Y-85772838D01*
X181417000Y-87623000D01*
X182678110Y-87623000D01*
X182678110Y-86868620D01*
X182523846Y-86347081D01*
X182181740Y-85924276D01*
X181703875Y-85664573D01*
X181631674Y-85650217D01*
X181417000Y-85772838D01*
X181163000Y-85772838D01*
X180948326Y-85650217D01*
X180876125Y-85664573D01*
X180398260Y-85924276D01*
X180056154Y-86347081D01*
X180033016Y-86425306D01*
X180032446Y-86422439D01*
X179731542Y-85972104D01*
X179281207Y-85671200D01*
X178750000Y-85565536D01*
X178218793Y-85671200D01*
X177768458Y-85972104D01*
X177480000Y-86403812D01*
X177191542Y-85972104D01*
X176741207Y-85671200D01*
X176210000Y-85565536D01*
X175678793Y-85671200D01*
X175228458Y-85972104D01*
X174927554Y-86422439D01*
X174821890Y-86953646D01*
X171526450Y-86953646D01*
X171624811Y-86716767D01*
X171625188Y-86285127D01*
X171460354Y-85886200D01*
X171155405Y-85580718D01*
X170756767Y-85415189D01*
X170325127Y-85414812D01*
X169926200Y-85579646D01*
X169833260Y-85672424D01*
X169813197Y-85536288D01*
X169403052Y-85401774D01*
X168972651Y-85434454D01*
X168726803Y-85536288D01*
X168706768Y-85672240D01*
X168615405Y-85580718D01*
X168216767Y-85415189D01*
X167785127Y-85414812D01*
X167386200Y-85579646D01*
X167365231Y-85600579D01*
X167345405Y-85580718D01*
X166946767Y-85415189D01*
X166515127Y-85414812D01*
X166116200Y-85579646D01*
X166095231Y-85600579D01*
X166075405Y-85580718D01*
X165676767Y-85415189D01*
X165245127Y-85414812D01*
X164846200Y-85579646D01*
X164825231Y-85600579D01*
X164805405Y-85580718D01*
X164406767Y-85415189D01*
X163975127Y-85414812D01*
X163576200Y-85579646D01*
X163270718Y-85884595D01*
X163105189Y-86283233D01*
X163104812Y-86714873D01*
X161607323Y-86714873D01*
X161792192Y-86530327D01*
X161934838Y-86186799D01*
X161935162Y-85814833D01*
X161793117Y-85471057D01*
X161530327Y-85207808D01*
X161186799Y-85065162D01*
X160814833Y-85064838D01*
X160471057Y-85206883D01*
X160207808Y-85469673D01*
X160065162Y-85813201D01*
X160064838Y-86185167D01*
X142048763Y-86185167D01*
X141837046Y-85973081D01*
X141456777Y-85815180D01*
X141045029Y-85814821D01*
X140664485Y-85972058D01*
X140373081Y-86262954D01*
X140215180Y-86643223D01*
X140214821Y-87054971D01*
X107627000Y-87054971D01*
X107627000Y-84710000D01*
X144967498Y-84710000D01*
X144957808Y-84719673D01*
X144957808Y-84719673D01*
G37*
X144957808Y-84719673D02*
X144815162Y-85063201D01*
X144814838Y-85435167D01*
X144956883Y-85778943D01*
X145219673Y-86042192D01*
X145563201Y-86184838D01*
X145935167Y-86185162D01*
X146278943Y-86043117D01*
X146542192Y-85780327D01*
X146684838Y-85436799D01*
X146685162Y-85064833D01*
X146543117Y-84721057D01*
X146532079Y-84710000D01*
X191790000Y-84710000D01*
X191790000Y-118290000D01*
X107627000Y-118290000D01*
X107627000Y-114685167D01*
X153314838Y-114685167D01*
X153456883Y-115028943D01*
X153719673Y-115292192D01*
X154063201Y-115434838D01*
X154435167Y-115435162D01*
X154778943Y-115293117D01*
X155042192Y-115030327D01*
X155184838Y-114686799D01*
X155185041Y-114453646D01*
X160781890Y-114453646D01*
X160781890Y-116046354D01*
X160887554Y-116577561D01*
X161188458Y-117027896D01*
X161638793Y-117328800D01*
X162170000Y-117434464D01*
X162701207Y-117328800D01*
X163151542Y-117027896D01*
X163440000Y-116596188D01*
X163728458Y-117027896D01*
X164178793Y-117328800D01*
X164710000Y-117434464D01*
X165241207Y-117328800D01*
X165691542Y-117027896D01*
X165992446Y-116577561D01*
X165993016Y-116574694D01*
X166016154Y-116652919D01*
X166358260Y-117075724D01*
X166836125Y-117335427D01*
X166908326Y-117349783D01*
X167123000Y-117227162D01*
X167123000Y-115377000D01*
X167377000Y-115377000D01*
X167377000Y-117227162D01*
X167591674Y-117349783D01*
X167663875Y-117335427D01*
X168141740Y-117075724D01*
X168483846Y-116652919D01*
X168638110Y-116131380D01*
X168638110Y-115948550D01*
X187239696Y-115948550D01*
X187507075Y-116595657D01*
X188001739Y-117091185D01*
X188648379Y-117359693D01*
X189348550Y-117360304D01*
X189995657Y-117092925D01*
X190491185Y-116598261D01*
X190759693Y-115951621D01*
X190760304Y-115251450D01*
X190492925Y-114604343D01*
X189998261Y-114108815D01*
X189351621Y-113840307D01*
X188651450Y-113839696D01*
X188004343Y-114107075D01*
X187508815Y-114601739D01*
X187240307Y-115248379D01*
X187239696Y-115948550D01*
X168638110Y-115948550D01*
X168638110Y-115377000D01*
X167377000Y-115377000D01*
X167123000Y-115377000D01*
X167103000Y-115377000D01*
X167103000Y-115185167D01*
X170064838Y-115185167D01*
X170206883Y-115528943D01*
X170469673Y-115792192D01*
X170813201Y-115934838D01*
X171185167Y-115935162D01*
X171528943Y-115793117D01*
X171792192Y-115530327D01*
X171934838Y-115186799D01*
X171935162Y-114814833D01*
X171881586Y-114685167D01*
X174064838Y-114685167D01*
X174206883Y-115028943D01*
X174469673Y-115292192D01*
X174813201Y-115434838D01*
X175185167Y-115435162D01*
X175528943Y-115293117D01*
X175792192Y-115030327D01*
X175934838Y-114686799D01*
X175935162Y-114314833D01*
X175793117Y-113971057D01*
X175530327Y-113707808D01*
X175186799Y-113565162D01*
X174814833Y-113564838D01*
X174471057Y-113706883D01*
X174207808Y-113969673D01*
X174065162Y-114313201D01*
X174064838Y-114685167D01*
X171881586Y-114685167D01*
X171793117Y-114471057D01*
X171530327Y-114207808D01*
X171186799Y-114065162D01*
X170814833Y-114064838D01*
X170471057Y-114206883D01*
X170207808Y-114469673D01*
X170065162Y-114813201D01*
X170064838Y-115185167D01*
X167103000Y-115185167D01*
X167103000Y-115123000D01*
X167123000Y-115123000D01*
X167123000Y-113272838D01*
X167377000Y-113272838D01*
X167377000Y-115123000D01*
X168638110Y-115123000D01*
X168638110Y-114368620D01*
X168483846Y-113847081D01*
X168141740Y-113424276D01*
X167663875Y-113164573D01*
X167591674Y-113150217D01*
X167377000Y-113272838D01*
X167123000Y-113272838D01*
X166908326Y-113150217D01*
X166836125Y-113164573D01*
X166358260Y-113424276D01*
X166016154Y-113847081D01*
X165993016Y-113925306D01*
X165992446Y-113922439D01*
X165691542Y-113472104D01*
X165241207Y-113171200D01*
X164710000Y-113065536D01*
X164178793Y-113171200D01*
X163728458Y-113472104D01*
X163440000Y-113903812D01*
X163151542Y-113472104D01*
X162701207Y-113171200D01*
X162170000Y-113065536D01*
X161638793Y-113171200D01*
X161188458Y-113472104D01*
X160887554Y-113922439D01*
X160781890Y-114453646D01*
X155185041Y-114453646D01*
X155185162Y-114314833D01*
X155043117Y-113971057D01*
X154780327Y-113707808D01*
X154436799Y-113565162D01*
X154064833Y-113564838D01*
X153721057Y-113706883D01*
X153457808Y-113969673D01*
X153315162Y-114313201D01*
X153314838Y-114685167D01*
X107627000Y-114685167D01*
X107627000Y-113735167D01*
X120914838Y-113735167D01*
X121056883Y-114078943D01*
X121319673Y-114342192D01*
X121663201Y-114484838D01*
X122035167Y-114485162D01*
X122378943Y-114343117D01*
X122642192Y-114080327D01*
X122764753Y-113785167D01*
X125064838Y-113785167D01*
X125206883Y-114128943D01*
X125469673Y-114392192D01*
X125813201Y-114534838D01*
X126185167Y-114535162D01*
X126528943Y-114393117D01*
X126792192Y-114130327D01*
X126934838Y-113786799D01*
X126934926Y-113685167D01*
X129364838Y-113685167D01*
X129506883Y-114028943D01*
X129769673Y-114292192D01*
X130113201Y-114434838D01*
X130485167Y-114435162D01*
X130828943Y-114293117D01*
X131092192Y-114030327D01*
X131234838Y-113686799D01*
X131235162Y-113314833D01*
X131093117Y-112971057D01*
X130830327Y-112707808D01*
X130486799Y-112565162D01*
X130114833Y-112564838D01*
X129771057Y-112706883D01*
X129507808Y-112969673D01*
X129365162Y-113313201D01*
X129364838Y-113685167D01*
X126934926Y-113685167D01*
X126935162Y-113414833D01*
X126793117Y-113071057D01*
X126530327Y-112807808D01*
X126186799Y-112665162D01*
X125814833Y-112664838D01*
X125471057Y-112806883D01*
X125207808Y-113069673D01*
X125065162Y-113413201D01*
X125064838Y-113785167D01*
X122764753Y-113785167D01*
X122784838Y-113736799D01*
X122785162Y-113364833D01*
X122643117Y-113021057D01*
X122380327Y-112757808D01*
X122036799Y-112615162D01*
X121664833Y-112614838D01*
X121321057Y-112756883D01*
X121057808Y-113019673D01*
X120915162Y-113363201D01*
X120914838Y-113735167D01*
X107627000Y-113735167D01*
X107627000Y-112435167D01*
X143064838Y-112435167D01*
X143206883Y-112778943D01*
X143469673Y-113042192D01*
X143813201Y-113184838D01*
X144185167Y-113185162D01*
X144528943Y-113043117D01*
X144792192Y-112780327D01*
X144934838Y-112436799D01*
X144935162Y-112064833D01*
X144793117Y-111721057D01*
X144530327Y-111457808D01*
X144186799Y-111315162D01*
X143814833Y-111314838D01*
X143471057Y-111456883D01*
X143207808Y-111719673D01*
X143065162Y-112063201D01*
X143064838Y-112435167D01*
X107627000Y-112435167D01*
X107627000Y-110185167D01*
X179064838Y-110185167D01*
X179206883Y-110528943D01*
X179469673Y-110792192D01*
X179813201Y-110934838D01*
X180185167Y-110935162D01*
X180528943Y-110793117D01*
X180792192Y-110530327D01*
X180934838Y-110186799D01*
X180934839Y-110185167D01*
X181064838Y-110185167D01*
X181206883Y-110528943D01*
X181469673Y-110792192D01*
X181813201Y-110934838D01*
X182185167Y-110935162D01*
X182528943Y-110793117D01*
X182792192Y-110530327D01*
X182934838Y-110186799D01*
X182934839Y-110185167D01*
X183064838Y-110185167D01*
X183206883Y-110528943D01*
X183469673Y-110792192D01*
X183813201Y-110934838D01*
X184185167Y-110935162D01*
X184528943Y-110793117D01*
X184792192Y-110530327D01*
X184934838Y-110186799D01*
X184935162Y-109814833D01*
X184879516Y-109680159D01*
X187899446Y-109680159D01*
X187985852Y-109936643D01*
X188559336Y-110146458D01*
X189169460Y-110120839D01*
X189614148Y-109936643D01*
X189700554Y-109680159D01*
X188800000Y-108779605D01*
X187899446Y-109680159D01*
X184879516Y-109680159D01*
X184793117Y-109471057D01*
X184530327Y-109207808D01*
X184186799Y-109065162D01*
X183814833Y-109064838D01*
X183471057Y-109206883D01*
X183207808Y-109469673D01*
X183065162Y-109813201D01*
X183064838Y-110185167D01*
X182934839Y-110185167D01*
X182935162Y-109814833D01*
X182793117Y-109471057D01*
X182530327Y-109207808D01*
X182186799Y-109065162D01*
X181814833Y-109064838D01*
X181471057Y-109206883D01*
X181207808Y-109469673D01*
X181065162Y-109813201D01*
X181064838Y-110185167D01*
X180934839Y-110185167D01*
X180935162Y-109814833D01*
X180793117Y-109471057D01*
X180530327Y-109207808D01*
X180186799Y-109065162D01*
X179814833Y-109064838D01*
X179471057Y-109206883D01*
X179207808Y-109469673D01*
X179065162Y-109813201D01*
X179064838Y-110185167D01*
X107627000Y-110185167D01*
X107627000Y-106935167D01*
X133564838Y-106935167D01*
X133706883Y-107278943D01*
X133969673Y-107542192D01*
X134313201Y-107684838D01*
X134685167Y-107685162D01*
X135028943Y-107543117D01*
X135292192Y-107280327D01*
X135434838Y-106936799D01*
X135434839Y-106935167D01*
X144064838Y-106935167D01*
X144206883Y-107278943D01*
X144427709Y-107500155D01*
X144207808Y-107719673D01*
X144065162Y-108063201D01*
X144064838Y-108435167D01*
X144206883Y-108778943D01*
X144469673Y-109042192D01*
X144813201Y-109184838D01*
X145185167Y-109185162D01*
X145528943Y-109043117D01*
X145792192Y-108780327D01*
X145934838Y-108436799D01*
X145934905Y-108359336D01*
X187253542Y-108359336D01*
X187279161Y-108969460D01*
X187463357Y-109414148D01*
X187719841Y-109500554D01*
X188620395Y-108600000D01*
X188979605Y-108600000D01*
X189880159Y-109500554D01*
X190136643Y-109414148D01*
X190346458Y-108840664D01*
X190320839Y-108230540D01*
X190136643Y-107785852D01*
X189880159Y-107699446D01*
X188979605Y-108600000D01*
X188620395Y-108600000D01*
X187719841Y-107699446D01*
X187463357Y-107785852D01*
X187253542Y-108359336D01*
X145934905Y-108359336D01*
X145935162Y-108064833D01*
X145793117Y-107721057D01*
X145592253Y-107519841D01*
X187899446Y-107519841D01*
X188800000Y-108420395D01*
X189700554Y-107519841D01*
X189614148Y-107263357D01*
X189040664Y-107053542D01*
X188430540Y-107079161D01*
X187985852Y-107263357D01*
X187899446Y-107519841D01*
X145592253Y-107519841D01*
X145572291Y-107499845D01*
X145792192Y-107280327D01*
X145934838Y-106936799D01*
X145935162Y-106564833D01*
X145881586Y-106435167D01*
X147814838Y-106435167D01*
X147956883Y-106778943D01*
X148219673Y-107042192D01*
X148563201Y-107184838D01*
X148935167Y-107185162D01*
X149278943Y-107043117D01*
X149542192Y-106780327D01*
X149684838Y-106436799D01*
X149685162Y-106064833D01*
X149543117Y-105721057D01*
X149280327Y-105457808D01*
X148936799Y-105315162D01*
X148564833Y-105314838D01*
X148221057Y-105456883D01*
X147957808Y-105719673D01*
X147815162Y-106063201D01*
X147814838Y-106435167D01*
X145881586Y-106435167D01*
X145793117Y-106221057D01*
X145530327Y-105957808D01*
X145186799Y-105815162D01*
X144814833Y-105814838D01*
X144471057Y-105956883D01*
X144207808Y-106219673D01*
X144065162Y-106563201D01*
X144064838Y-106935167D01*
X135434839Y-106935167D01*
X135435162Y-106564833D01*
X135293117Y-106221057D01*
X135030327Y-105957808D01*
X134686799Y-105815162D01*
X134314833Y-105814838D01*
X133971057Y-105956883D01*
X133707808Y-106219673D01*
X133565162Y-106563201D01*
X133564838Y-106935167D01*
X107627000Y-106935167D01*
X107627000Y-104435167D01*
X137314838Y-104435167D01*
X137456883Y-104778943D01*
X137719673Y-105042192D01*
X138063201Y-105184838D01*
X138435167Y-105185162D01*
X138778943Y-105043117D01*
X139042192Y-104780327D01*
X139184838Y-104436799D01*
X139184839Y-104435167D01*
X140314838Y-104435167D01*
X140456883Y-104778943D01*
X140719673Y-105042192D01*
X141063201Y-105184838D01*
X141435167Y-105185162D01*
X141778943Y-105043117D01*
X142042192Y-104780327D01*
X142184838Y-104436799D01*
X142185162Y-104064833D01*
X142043117Y-103721057D01*
X141780327Y-103457808D01*
X141436799Y-103315162D01*
X141064833Y-103314838D01*
X140721057Y-103456883D01*
X140457808Y-103719673D01*
X140315162Y-104063201D01*
X140314838Y-104435167D01*
X139184839Y-104435167D01*
X139184929Y-104331963D01*
X139278943Y-104293117D01*
X139542192Y-104030327D01*
X139684838Y-103686799D01*
X139685162Y-103314833D01*
X139631586Y-103185167D01*
X148064838Y-103185167D01*
X148206883Y-103528943D01*
X148469673Y-103792192D01*
X148813201Y-103934838D01*
X149185167Y-103935162D01*
X149528943Y-103793117D01*
X149792192Y-103530327D01*
X149934838Y-103186799D01*
X149935162Y-102814833D01*
X149793117Y-102471057D01*
X149600663Y-102278266D01*
X160224581Y-102278266D01*
X160591469Y-103166201D01*
X161270226Y-103846144D01*
X162157519Y-104214580D01*
X163118266Y-104215419D01*
X164006201Y-103848531D01*
X164686144Y-103169774D01*
X165054580Y-102282481D01*
X165054996Y-101804971D01*
X180964821Y-101804971D01*
X181122058Y-102185515D01*
X181412954Y-102476919D01*
X181468205Y-102499861D01*
X181414485Y-102522058D01*
X181123081Y-102812954D01*
X180965180Y-103193223D01*
X180964821Y-103604971D01*
X181122058Y-103985515D01*
X181412954Y-104276919D01*
X181793223Y-104434820D01*
X182204971Y-104435179D01*
X182585515Y-104277942D01*
X182876919Y-103987046D01*
X183034820Y-103606777D01*
X183035179Y-103195029D01*
X182877942Y-102814485D01*
X182587046Y-102523081D01*
X182531795Y-102500139D01*
X182585515Y-102477942D01*
X182876919Y-102187046D01*
X182975950Y-101948550D01*
X187239696Y-101948550D01*
X187507075Y-102595657D01*
X188001739Y-103091185D01*
X188648379Y-103359693D01*
X189348550Y-103360304D01*
X189995657Y-103092925D01*
X190491185Y-102598261D01*
X190759693Y-101951621D01*
X190760304Y-101251450D01*
X190492925Y-100604343D01*
X189998261Y-100108815D01*
X189351621Y-99840307D01*
X188651450Y-99839696D01*
X188004343Y-100107075D01*
X187508815Y-100601739D01*
X187240307Y-101248379D01*
X187239696Y-101948550D01*
X182975950Y-101948550D01*
X183034820Y-101806777D01*
X183035179Y-101395029D01*
X182877942Y-101014485D01*
X182587046Y-100723081D01*
X182206777Y-100565180D01*
X181795029Y-100564821D01*
X181414485Y-100722058D01*
X181123081Y-101012954D01*
X180965180Y-101393223D01*
X180964821Y-101804971D01*
X165054996Y-101804971D01*
X165055419Y-101321734D01*
X164895693Y-100935167D01*
X168064838Y-100935167D01*
X168206883Y-101278943D01*
X168469673Y-101542192D01*
X168813201Y-101684838D01*
X169185167Y-101685162D01*
X169528943Y-101543117D01*
X169792192Y-101280327D01*
X169934838Y-100936799D01*
X169935162Y-100564833D01*
X169793117Y-100221057D01*
X169530327Y-99957808D01*
X169186799Y-99815162D01*
X168814833Y-99814838D01*
X168471057Y-99956883D01*
X168207808Y-100219673D01*
X168065162Y-100563201D01*
X168064838Y-100935167D01*
X164895693Y-100935167D01*
X164688531Y-100433799D01*
X164009774Y-99753856D01*
X163122481Y-99385420D01*
X162161734Y-99384581D01*
X161273799Y-99751469D01*
X160593856Y-100430226D01*
X160225420Y-101317519D01*
X160224581Y-102278266D01*
X149600663Y-102278266D01*
X149530327Y-102207808D01*
X149186799Y-102065162D01*
X148814833Y-102064838D01*
X148471057Y-102206883D01*
X148207808Y-102469673D01*
X148065162Y-102813201D01*
X148064838Y-103185167D01*
X139631586Y-103185167D01*
X139593807Y-103093737D01*
X139813201Y-103184838D01*
X140185167Y-103185162D01*
X140528943Y-103043117D01*
X140792192Y-102780327D01*
X140934838Y-102436799D01*
X140934839Y-102435167D01*
X141564838Y-102435167D01*
X141706883Y-102778943D01*
X141969673Y-103042192D01*
X142313201Y-103184838D01*
X142685167Y-103185162D01*
X143028943Y-103043117D01*
X143292192Y-102780327D01*
X143434838Y-102436799D01*
X143435162Y-102064833D01*
X143293117Y-101721057D01*
X143233559Y-101661395D01*
X143519813Y-101543117D01*
X143783062Y-101280327D01*
X143822576Y-101185167D01*
X151064838Y-101185167D01*
X151206883Y-101528943D01*
X151469673Y-101792192D01*
X151813201Y-101934838D01*
X152185167Y-101935162D01*
X152528943Y-101793117D01*
X152792192Y-101530327D01*
X152934838Y-101186799D01*
X152935162Y-100814833D01*
X152793117Y-100471057D01*
X152530327Y-100207808D01*
X152186799Y-100065162D01*
X151814833Y-100064838D01*
X151471057Y-100206883D01*
X151207808Y-100469673D01*
X151065162Y-100813201D01*
X151064838Y-101185167D01*
X143822576Y-101185167D01*
X143925708Y-100936799D01*
X143926032Y-100564833D01*
X143783987Y-100221057D01*
X143521197Y-99957808D01*
X143177669Y-99815162D01*
X142805703Y-99814838D01*
X142461927Y-99956883D01*
X142198678Y-100219673D01*
X142056032Y-100563201D01*
X142055708Y-100935167D01*
X142197753Y-101278943D01*
X142257311Y-101338605D01*
X141971057Y-101456883D01*
X141707808Y-101719673D01*
X141565162Y-102063201D01*
X141564838Y-102435167D01*
X140934839Y-102435167D01*
X140935162Y-102064833D01*
X140793117Y-101721057D01*
X140530327Y-101457808D01*
X140186799Y-101315162D01*
X139814833Y-101314838D01*
X139471057Y-101456883D01*
X139207808Y-101719673D01*
X139065162Y-102063201D01*
X139064838Y-102435167D01*
X139156193Y-102656263D01*
X138936799Y-102565162D01*
X138564833Y-102564838D01*
X138221057Y-102706883D01*
X137957808Y-102969673D01*
X137815162Y-103313201D01*
X137815071Y-103418037D01*
X137721057Y-103456883D01*
X137457808Y-103719673D01*
X137315162Y-104063201D01*
X137314838Y-104435167D01*
X107627000Y-104435167D01*
X107627000Y-103685167D01*
X122064838Y-103685167D01*
X122206883Y-104028943D01*
X122469673Y-104292192D01*
X122813201Y-104434838D01*
X123185167Y-104435162D01*
X123528943Y-104293117D01*
X123792192Y-104030327D01*
X123934838Y-103686799D01*
X123935162Y-103314833D01*
X123793117Y-102971057D01*
X123530327Y-102707808D01*
X123186799Y-102565162D01*
X122814833Y-102564838D01*
X122471057Y-102706883D01*
X122207808Y-102969673D01*
X122065162Y-103313201D01*
X122064838Y-103685167D01*
X107627000Y-103685167D01*
X107627000Y-99935167D01*
X133564838Y-99935167D01*
X133706883Y-100278943D01*
X133969673Y-100542192D01*
X134313201Y-100684838D01*
X134685167Y-100685162D01*
X135028943Y-100543117D01*
X135292192Y-100280327D01*
X135434838Y-99936799D01*
X135435162Y-99564833D01*
X135293117Y-99221057D01*
X135257290Y-99185167D01*
X143064838Y-99185167D01*
X143206883Y-99528943D01*
X143469673Y-99792192D01*
X143813201Y-99934838D01*
X143814838Y-99934839D01*
X143814838Y-99935167D01*
X143956883Y-100278943D01*
X144219673Y-100542192D01*
X144563201Y-100684838D01*
X144935167Y-100685162D01*
X145278943Y-100543117D01*
X145542192Y-100280327D01*
X145684838Y-99936799D01*
X145685162Y-99564833D01*
X145543117Y-99221057D01*
X145507290Y-99185167D01*
X148064838Y-99185167D01*
X148206883Y-99528943D01*
X148469673Y-99792192D01*
X148813201Y-99934838D01*
X149185167Y-99935162D01*
X149528943Y-99793117D01*
X149792192Y-99530327D01*
X149934838Y-99186799D01*
X149935162Y-98814833D01*
X149793117Y-98471057D01*
X149530327Y-98207808D01*
X149186799Y-98065162D01*
X148814833Y-98064838D01*
X148471057Y-98206883D01*
X148207808Y-98469673D01*
X148065162Y-98813201D01*
X148064838Y-99185167D01*
X145507290Y-99185167D01*
X145280327Y-98957808D01*
X144936799Y-98815162D01*
X144935162Y-98815161D01*
X144935162Y-98814833D01*
X144793117Y-98471057D01*
X144530327Y-98207808D01*
X144186799Y-98065162D01*
X143814833Y-98064838D01*
X143471057Y-98206883D01*
X143207808Y-98469673D01*
X143065162Y-98813201D01*
X143064838Y-99185167D01*
X135257290Y-99185167D01*
X135030327Y-98957808D01*
X134686799Y-98815162D01*
X134314833Y-98814838D01*
X133971057Y-98956883D01*
X133707808Y-99219673D01*
X133565162Y-99563201D01*
X133564838Y-99935167D01*
X107627000Y-99935167D01*
X107627000Y-98685167D01*
X112814838Y-98685167D01*
X112956883Y-99028943D01*
X113219673Y-99292192D01*
X113563201Y-99434838D01*
X113935167Y-99435162D01*
X114278943Y-99293117D01*
X114542192Y-99030327D01*
X114684838Y-98686799D01*
X114685162Y-98314833D01*
X114631586Y-98185167D01*
X118064838Y-98185167D01*
X118206883Y-98528943D01*
X118469673Y-98792192D01*
X118813201Y-98934838D01*
X119185167Y-98935162D01*
X119528943Y-98793117D01*
X119792192Y-98530327D01*
X119934838Y-98186799D01*
X119935057Y-97935167D01*
X150814838Y-97935167D01*
X150956883Y-98278943D01*
X151219673Y-98542192D01*
X151563201Y-98684838D01*
X151935167Y-98685162D01*
X152278943Y-98543117D01*
X152542192Y-98280327D01*
X152581706Y-98185167D01*
X156064838Y-98185167D01*
X156206883Y-98528943D01*
X156469673Y-98792192D01*
X156813201Y-98934838D01*
X157185167Y-98935162D01*
X157528943Y-98793117D01*
X157792192Y-98530327D01*
X157934838Y-98186799D01*
X157935162Y-97814833D01*
X157793117Y-97471057D01*
X157530327Y-97207808D01*
X157186799Y-97065162D01*
X156814833Y-97064838D01*
X156471057Y-97206883D01*
X156207808Y-97469673D01*
X156065162Y-97813201D01*
X156064838Y-98185167D01*
X152581706Y-98185167D01*
X152684838Y-97936799D01*
X152684929Y-97831963D01*
X152778943Y-97793117D01*
X153042192Y-97530327D01*
X153184838Y-97186799D01*
X153185162Y-96814833D01*
X153043117Y-96471057D01*
X152780327Y-96207808D01*
X152436799Y-96065162D01*
X152064833Y-96064838D01*
X151721057Y-96206883D01*
X151457808Y-96469673D01*
X151315162Y-96813201D01*
X151315071Y-96918037D01*
X151221057Y-96956883D01*
X150957808Y-97219673D01*
X150815162Y-97563201D01*
X150814838Y-97935167D01*
X119935057Y-97935167D01*
X119935162Y-97814833D01*
X119793117Y-97471057D01*
X119530327Y-97207808D01*
X119186799Y-97065162D01*
X118814833Y-97064838D01*
X118471057Y-97206883D01*
X118207808Y-97469673D01*
X118065162Y-97813201D01*
X118064838Y-98185167D01*
X114631586Y-98185167D01*
X114543117Y-97971057D01*
X114280327Y-97707808D01*
X113936799Y-97565162D01*
X113564833Y-97564838D01*
X113221057Y-97706883D01*
X112957808Y-97969673D01*
X112815162Y-98313201D01*
X112814838Y-98685167D01*
X107627000Y-98685167D01*
X107627000Y-96935167D01*
X111564838Y-96935167D01*
X111706883Y-97278943D01*
X111969673Y-97542192D01*
X112313201Y-97684838D01*
X112685167Y-97685162D01*
X113028943Y-97543117D01*
X113292192Y-97280327D01*
X113434838Y-96936799D01*
X113435162Y-96564833D01*
X113293117Y-96221057D01*
X113257290Y-96185167D01*
X132064838Y-96185167D01*
X132206883Y-96528943D01*
X132469673Y-96792192D01*
X132813201Y-96934838D01*
X133185167Y-96935162D01*
X133528943Y-96793117D01*
X133792192Y-96530327D01*
X133934838Y-96186799D01*
X133935162Y-95814833D01*
X133856790Y-95625157D01*
X141314838Y-95625157D01*
X141456883Y-95968933D01*
X141487720Y-95999824D01*
X141457808Y-96029683D01*
X141315162Y-96373211D01*
X141314838Y-96745177D01*
X141456883Y-97088953D01*
X141719673Y-97352202D01*
X142063201Y-97494848D01*
X142435167Y-97495172D01*
X142778943Y-97353127D01*
X143042192Y-97090337D01*
X143184838Y-96746809D01*
X143185162Y-96374843D01*
X143043117Y-96031067D01*
X143012280Y-96000176D01*
X143042192Y-95970317D01*
X143184838Y-95626789D01*
X143185162Y-95254823D01*
X143156381Y-95185167D01*
X155064838Y-95185167D01*
X155206883Y-95528943D01*
X155469673Y-95792192D01*
X155813201Y-95934838D01*
X156065056Y-95935057D01*
X156064838Y-96185167D01*
X156206883Y-96528943D01*
X156469673Y-96792192D01*
X156813201Y-96934838D01*
X157185167Y-96935162D01*
X157528943Y-96793117D01*
X157792192Y-96530327D01*
X157934838Y-96186799D01*
X157934839Y-96185167D01*
X162064838Y-96185167D01*
X162206883Y-96528943D01*
X162469673Y-96792192D01*
X162813201Y-96934838D01*
X163185167Y-96935162D01*
X163528943Y-96793117D01*
X163792192Y-96530327D01*
X163934838Y-96186799D01*
X163935162Y-95814833D01*
X163793117Y-95471057D01*
X163626343Y-95303991D01*
X187264735Y-95303991D01*
X187497932Y-95868371D01*
X187929357Y-96300551D01*
X188493330Y-96534733D01*
X189103991Y-96535265D01*
X189668371Y-96302068D01*
X190100551Y-95870643D01*
X190334733Y-95306670D01*
X190335265Y-94696009D01*
X190102068Y-94131629D01*
X189670643Y-93699449D01*
X189106670Y-93465267D01*
X188496009Y-93464735D01*
X187931629Y-93697932D01*
X187499449Y-94129357D01*
X187265267Y-94693330D01*
X187264735Y-95303991D01*
X163626343Y-95303991D01*
X163530327Y-95207808D01*
X163186799Y-95065162D01*
X162814833Y-95064838D01*
X162471057Y-95206883D01*
X162207808Y-95469673D01*
X162065162Y-95813201D01*
X162064838Y-96185167D01*
X157934839Y-96185167D01*
X157935162Y-95814833D01*
X157793117Y-95471057D01*
X157530327Y-95207808D01*
X157186799Y-95065162D01*
X156934944Y-95064943D01*
X156935162Y-94814833D01*
X156793117Y-94471057D01*
X156530327Y-94207808D01*
X156475802Y-94185167D01*
X160064838Y-94185167D01*
X160206883Y-94528943D01*
X160469673Y-94792192D01*
X160813201Y-94934838D01*
X161185167Y-94935162D01*
X161500351Y-94804931D01*
X161813201Y-94934838D01*
X162185167Y-94935162D01*
X162528943Y-94793117D01*
X162792192Y-94530327D01*
X162934838Y-94186799D01*
X162935162Y-93814833D01*
X162793117Y-93471057D01*
X162530327Y-93207808D01*
X162186799Y-93065162D01*
X161814833Y-93064838D01*
X161499649Y-93195069D01*
X161186799Y-93065162D01*
X160814833Y-93064838D01*
X160471057Y-93206883D01*
X160207808Y-93469673D01*
X160065162Y-93813201D01*
X160064838Y-94185167D01*
X156475802Y-94185167D01*
X156186799Y-94065162D01*
X155814833Y-94064838D01*
X155471057Y-94206883D01*
X155207808Y-94469673D01*
X155065162Y-94813201D01*
X155064838Y-95185167D01*
X143156381Y-95185167D01*
X143043117Y-94911047D01*
X142780327Y-94647798D01*
X142436799Y-94505152D01*
X142064833Y-94504828D01*
X141721057Y-94646873D01*
X141457808Y-94909663D01*
X141315162Y-95253191D01*
X141314838Y-95625157D01*
X133856790Y-95625157D01*
X133793117Y-95471057D01*
X133530327Y-95207808D01*
X133186799Y-95065162D01*
X132814833Y-95064838D01*
X132471057Y-95206883D01*
X132207808Y-95469673D01*
X132065162Y-95813201D01*
X132064838Y-96185167D01*
X113257290Y-96185167D01*
X113030327Y-95957808D01*
X112686799Y-95815162D01*
X112314833Y-95814838D01*
X111971057Y-95956883D01*
X111707808Y-96219673D01*
X111565162Y-96563201D01*
X111564838Y-96935167D01*
X107627000Y-96935167D01*
X107627000Y-94185167D01*
X115314838Y-94185167D01*
X115456883Y-94528943D01*
X115719673Y-94792192D01*
X116063201Y-94934838D01*
X116435167Y-94935162D01*
X116778943Y-94793117D01*
X117042192Y-94530327D01*
X117184838Y-94186799D01*
X117185057Y-93935167D01*
X148564838Y-93935167D01*
X148706883Y-94278943D01*
X148969673Y-94542192D01*
X149313201Y-94684838D01*
X149685167Y-94685162D01*
X150028943Y-94543117D01*
X150137081Y-94435167D01*
X153064838Y-94435167D01*
X153206883Y-94778943D01*
X153469673Y-95042192D01*
X153813201Y-95184838D01*
X154185167Y-95185162D01*
X154528943Y-95043117D01*
X154792192Y-94780327D01*
X154934838Y-94436799D01*
X154935162Y-94064833D01*
X154793117Y-93721057D01*
X154530327Y-93457808D01*
X154186799Y-93315162D01*
X153814833Y-93314838D01*
X153471057Y-93456883D01*
X153207808Y-93719673D01*
X153065162Y-94063201D01*
X153064838Y-94435167D01*
X150137081Y-94435167D01*
X150292192Y-94280327D01*
X150434838Y-93936799D01*
X150435162Y-93564833D01*
X150293117Y-93221057D01*
X150030327Y-92957808D01*
X149686799Y-92815162D01*
X149314833Y-92814838D01*
X148971057Y-92956883D01*
X148707808Y-93219673D01*
X148565162Y-93563201D01*
X148564838Y-93935167D01*
X117185057Y-93935167D01*
X117185162Y-93814833D01*
X117043117Y-93471057D01*
X116780327Y-93207808D01*
X116725802Y-93185167D01*
X146564838Y-93185167D01*
X146706883Y-93528943D01*
X146969673Y-93792192D01*
X147313201Y-93934838D01*
X147685167Y-93935162D01*
X148028943Y-93793117D01*
X148292192Y-93530327D01*
X148434838Y-93186799D01*
X148435162Y-92814833D01*
X148293117Y-92471057D01*
X148030327Y-92207808D01*
X147975802Y-92185167D01*
X165814838Y-92185167D01*
X165956883Y-92528943D01*
X166219673Y-92792192D01*
X166563201Y-92934838D01*
X166935167Y-92935162D01*
X167278943Y-92793117D01*
X167542192Y-92530327D01*
X167684838Y-92186799D01*
X167685162Y-91814833D01*
X167543117Y-91471057D01*
X167280327Y-91207808D01*
X166936799Y-91065162D01*
X166564833Y-91064838D01*
X166221057Y-91206883D01*
X165957808Y-91469673D01*
X165815162Y-91813201D01*
X165814838Y-92185167D01*
X147975802Y-92185167D01*
X147686799Y-92065162D01*
X147314833Y-92064838D01*
X146971057Y-92206883D01*
X146707808Y-92469673D01*
X146565162Y-92813201D01*
X146564838Y-93185167D01*
X116725802Y-93185167D01*
X116436799Y-93065162D01*
X116064833Y-93064838D01*
X115721057Y-93206883D01*
X115457808Y-93469673D01*
X115315162Y-93813201D01*
X115314838Y-94185167D01*
X107627000Y-94185167D01*
X107627000Y-87054971D01*
X140214821Y-87054971D01*
X140372058Y-87435515D01*
X140662954Y-87726919D01*
X140718205Y-87749861D01*
X140664485Y-87772058D01*
X140373081Y-88062954D01*
X140215180Y-88443223D01*
X140214821Y-88854971D01*
X140372058Y-89235515D01*
X140662954Y-89526919D01*
X141043223Y-89684820D01*
X141454971Y-89685179D01*
X141835515Y-89527942D01*
X142126919Y-89237046D01*
X142284820Y-88856777D01*
X142285179Y-88445029D01*
X142127942Y-88064485D01*
X141837046Y-87773081D01*
X141781795Y-87750139D01*
X141835515Y-87727942D01*
X142126919Y-87437046D01*
X142284820Y-87056777D01*
X142285179Y-86645029D01*
X142127942Y-86264485D01*
X142048763Y-86185167D01*
X160064838Y-86185167D01*
X160206883Y-86528943D01*
X160469673Y-86792192D01*
X160813201Y-86934838D01*
X161185167Y-86935162D01*
X161528943Y-86793117D01*
X161607323Y-86714873D01*
X163104812Y-86714873D01*
X163269646Y-87113800D01*
X163574595Y-87419282D01*
X163973233Y-87584811D01*
X164404873Y-87585188D01*
X164803800Y-87420354D01*
X164824769Y-87399421D01*
X164844595Y-87419282D01*
X165243233Y-87584811D01*
X165674873Y-87585188D01*
X166073800Y-87420354D01*
X166094769Y-87399421D01*
X166114595Y-87419282D01*
X166513233Y-87584811D01*
X166944873Y-87585188D01*
X167343800Y-87420354D01*
X167364769Y-87399421D01*
X167384595Y-87419282D01*
X167783233Y-87584811D01*
X168214873Y-87585188D01*
X168613800Y-87420354D01*
X168706740Y-87327576D01*
X168726803Y-87463712D01*
X169136948Y-87598226D01*
X169567349Y-87565546D01*
X169813197Y-87463712D01*
X169833232Y-87327760D01*
X169924595Y-87419282D01*
X170323233Y-87584811D01*
X170754873Y-87585188D01*
X171153800Y-87420354D01*
X171459282Y-87115405D01*
X171526450Y-86953646D01*
X174821890Y-86953646D01*
X174821890Y-88546354D01*
X174927554Y-89077561D01*
X175228458Y-89527896D01*
X175678793Y-89828800D01*
X176210000Y-89934464D01*
X176741207Y-89828800D01*
X177191542Y-89527896D01*
X177480000Y-89096188D01*
X177768458Y-89527896D01*
X178218793Y-89828800D01*
X178750000Y-89934464D01*
X179281207Y-89828800D01*
X179731542Y-89527896D01*
X180032446Y-89077561D01*
X180033016Y-89074694D01*
X180056154Y-89152919D01*
X180398260Y-89575724D01*
X180876125Y-89835427D01*
X180948326Y-89849783D01*
X181163000Y-89727162D01*
X181163000Y-87877000D01*
X181417000Y-87877000D01*
X181417000Y-89727162D01*
X181631674Y-89849783D01*
X181703875Y-89835427D01*
X182181740Y-89575724D01*
X182523846Y-89152919D01*
X182678110Y-88631380D01*
X182678110Y-87948550D01*
X187239696Y-87948550D01*
X187507075Y-88595657D01*
X188001739Y-89091185D01*
X188648379Y-89359693D01*
X189348550Y-89360304D01*
X189995657Y-89092925D01*
X190491185Y-88598261D01*
X190759693Y-87951621D01*
X190760304Y-87251450D01*
X190492925Y-86604343D01*
X189998261Y-86108815D01*
X189351621Y-85840307D01*
X188651450Y-85839696D01*
X188004343Y-86107075D01*
X187508815Y-86601739D01*
X187240307Y-87248379D01*
X187239696Y-87948550D01*
X182678110Y-87948550D01*
X182678110Y-87877000D01*
X181417000Y-87877000D01*
X181163000Y-87877000D01*
X181143000Y-87877000D01*
X181143000Y-87623000D01*
X181163000Y-87623000D01*
X181163000Y-85772838D01*
X181417000Y-85772838D01*
X181417000Y-87623000D01*
X182678110Y-87623000D01*
X182678110Y-86868620D01*
X182523846Y-86347081D01*
X182181740Y-85924276D01*
X181703875Y-85664573D01*
X181631674Y-85650217D01*
X181417000Y-85772838D01*
X181163000Y-85772838D01*
X180948326Y-85650217D01*
X180876125Y-85664573D01*
X180398260Y-85924276D01*
X180056154Y-86347081D01*
X180033016Y-86425306D01*
X180032446Y-86422439D01*
X179731542Y-85972104D01*
X179281207Y-85671200D01*
X178750000Y-85565536D01*
X178218793Y-85671200D01*
X177768458Y-85972104D01*
X177480000Y-86403812D01*
X177191542Y-85972104D01*
X176741207Y-85671200D01*
X176210000Y-85565536D01*
X175678793Y-85671200D01*
X175228458Y-85972104D01*
X174927554Y-86422439D01*
X174821890Y-86953646D01*
X171526450Y-86953646D01*
X171624811Y-86716767D01*
X171625188Y-86285127D01*
X171460354Y-85886200D01*
X171155405Y-85580718D01*
X170756767Y-85415189D01*
X170325127Y-85414812D01*
X169926200Y-85579646D01*
X169833260Y-85672424D01*
X169813197Y-85536288D01*
X169403052Y-85401774D01*
X168972651Y-85434454D01*
X168726803Y-85536288D01*
X168706768Y-85672240D01*
X168615405Y-85580718D01*
X168216767Y-85415189D01*
X167785127Y-85414812D01*
X167386200Y-85579646D01*
X167365231Y-85600579D01*
X167345405Y-85580718D01*
X166946767Y-85415189D01*
X166515127Y-85414812D01*
X166116200Y-85579646D01*
X166095231Y-85600579D01*
X166075405Y-85580718D01*
X165676767Y-85415189D01*
X165245127Y-85414812D01*
X164846200Y-85579646D01*
X164825231Y-85600579D01*
X164805405Y-85580718D01*
X164406767Y-85415189D01*
X163975127Y-85414812D01*
X163576200Y-85579646D01*
X163270718Y-85884595D01*
X163105189Y-86283233D01*
X163104812Y-86714873D01*
X161607323Y-86714873D01*
X161792192Y-86530327D01*
X161934838Y-86186799D01*
X161935162Y-85814833D01*
X161793117Y-85471057D01*
X161530327Y-85207808D01*
X161186799Y-85065162D01*
X160814833Y-85064838D01*
X160471057Y-85206883D01*
X160207808Y-85469673D01*
X160065162Y-85813201D01*
X160064838Y-86185167D01*
X142048763Y-86185167D01*
X141837046Y-85973081D01*
X141456777Y-85815180D01*
X141045029Y-85814821D01*
X140664485Y-85972058D01*
X140373081Y-86262954D01*
X140215180Y-86643223D01*
X140214821Y-87054971D01*
X107627000Y-87054971D01*
X107627000Y-84710000D01*
X144967498Y-84710000D01*
X144957808Y-84719673D01*
G36*
X169455019Y-86477129D02*
X169455004Y-86494601D01*
X169449605Y-86500000D01*
X169454995Y-86505390D01*
X169454980Y-86522910D01*
X169284143Y-86693748D01*
X169270000Y-86679605D01*
X169255858Y-86693748D01*
X169084981Y-86522871D01*
X169084996Y-86505399D01*
X169090395Y-86500000D01*
X169085005Y-86494610D01*
X169085020Y-86477090D01*
X169255858Y-86306253D01*
X169270000Y-86320395D01*
X169284143Y-86306253D01*
X169455019Y-86477129D01*
X169455019Y-86477129D01*
G37*
X169455019Y-86477129D02*
X169455004Y-86494601D01*
X169449605Y-86500000D01*
X169454995Y-86505390D01*
X169454980Y-86522910D01*
X169284143Y-86693748D01*
X169270000Y-86679605D01*
X169255858Y-86693748D01*
X169084981Y-86522871D01*
X169084996Y-86505399D01*
X169090395Y-86500000D01*
X169085005Y-86494610D01*
X169085020Y-86477090D01*
X169255858Y-86306253D01*
X169270000Y-86320395D01*
X169284143Y-86306253D01*
X169455019Y-86477129D01*
M02*
