G04 #@! TF.FileFunction,Soldermask,Top*
%FSLAX46Y46*%
G04 Gerber Fmt 4.6, Leading zero omitted, Abs format (unit mm)*
G04 Created by KiCad (PCBNEW (2015-09-03 BZR 6154, Git 4636d8d)-product) date Tue Sep 15 00:06:25 2015*
%MOMM*%
G01*
G04 APERTURE LIST*
%ADD10C,0.100000*%
%ADD11R,1.150000X1.200000*%
%ADD12R,2.200000X0.700000*%
%ADD13R,2.200000X4.650000*%
%ADD14R,1.200000X1.150000*%
%ADD15R,3.900000X2.000000*%
%ADD16R,1.197560X1.197560*%
%ADD17R,0.900000X1.300000*%
%ADD18R,1.300000X0.900000*%
%ADD19O,1.906220X3.414980*%
%ADD20C,2.200000*%
%ADD21C,3.960000*%
%ADD22R,2.000000X1.160000*%
%ADD23C,1.300000*%
%ADD24R,1.400000X1.400000*%
%ADD25R,1.400000X2.600000*%
%ADD26C,1.200000*%
%ADD27R,1.350000X1.800000*%
%ADD28R,1.550000X1.150000*%
%ADD29R,0.750000X1.400000*%
%ADD30R,1.460000X1.050000*%
%ADD31R,1.300000X1.100000*%
%ADD32R,1.130000X0.700000*%
%ADD33R,0.700000X1.130000*%
%ADD34R,1.650000X1.650000*%
%ADD35R,1.200100X1.200100*%
%ADD36R,0.650000X1.100000*%
%ADD37R,1.100000X0.650000*%
%ADD38R,2.400000X2.900000*%
%ADD39C,2.650000*%
%ADD40R,1.800000X1.600000*%
%ADD41R,2.400000X1.600000*%
%ADD42R,2.500000X2.500000*%
%ADD43R,2.400000X1.400000*%
%ADD44R,1.400000X2.400000*%
%ADD45R,2.200860X1.200100*%
G04 APERTURE END LIST*
D10*
D11*
X122900000Y-113550000D03*
X122900000Y-115050000D03*
D12*
X154400000Y-108200000D03*
X154400000Y-107550000D03*
X154400000Y-106900000D03*
X154400000Y-106250000D03*
X154400000Y-105600000D03*
X154400000Y-104950000D03*
X154400000Y-104300000D03*
X154400000Y-103650000D03*
X154400000Y-103000000D03*
X154400000Y-102350000D03*
X154400000Y-101700000D03*
X154400000Y-101050000D03*
X154400000Y-100400000D03*
X154400000Y-99750000D03*
X154400000Y-99100000D03*
X154400000Y-98450000D03*
X154400000Y-97800000D03*
X154400000Y-97150000D03*
X154400000Y-96500000D03*
X147000000Y-96500000D03*
X147000000Y-97150000D03*
X147000000Y-97800000D03*
X147000000Y-98450000D03*
X147000000Y-99100000D03*
X147000000Y-99750000D03*
X147000000Y-100400000D03*
X147000000Y-102350000D03*
X147000000Y-103000000D03*
X147000000Y-103650000D03*
X147000000Y-104300000D03*
X147000000Y-104950000D03*
X147000000Y-105600000D03*
X147000000Y-106250000D03*
X147000000Y-107550000D03*
X147000000Y-106900000D03*
X147000000Y-108200000D03*
X147000000Y-101700000D03*
X147000000Y-101050000D03*
D13*
X104500000Y-108500000D03*
X92500000Y-108500000D03*
D11*
X117000000Y-109750000D03*
X117000000Y-108250000D03*
X117000000Y-111500000D03*
X117000000Y-113000000D03*
X129300000Y-113500000D03*
X129300000Y-115000000D03*
D14*
X127000000Y-105000000D03*
X125500000Y-105000000D03*
X123000000Y-105000000D03*
X121500000Y-105000000D03*
X117500000Y-94000000D03*
X119000000Y-94000000D03*
D11*
X128000000Y-103000000D03*
X128000000Y-101500000D03*
D14*
X124000000Y-94500000D03*
X122500000Y-94500000D03*
X124000000Y-96500000D03*
X122500000Y-96500000D03*
D11*
X131750000Y-106750000D03*
X131750000Y-105250000D03*
X134500000Y-96000000D03*
X134500000Y-97500000D03*
X133500000Y-106750000D03*
X133500000Y-105250000D03*
X130250000Y-97000000D03*
X130250000Y-98500000D03*
D14*
X137000000Y-101500000D03*
X135500000Y-101500000D03*
D11*
X156000000Y-111750000D03*
X156000000Y-113250000D03*
D14*
X181250000Y-99000000D03*
X182750000Y-99000000D03*
D11*
X182000000Y-109000000D03*
X182000000Y-107500000D03*
D15*
X177250000Y-114500000D03*
X183250000Y-114500000D03*
D11*
X180000000Y-109000000D03*
X180000000Y-107500000D03*
X141500000Y-109750000D03*
X141500000Y-111250000D03*
X184000000Y-109000000D03*
X184000000Y-107500000D03*
X139250000Y-109750000D03*
X139250000Y-111250000D03*
X148500000Y-87750000D03*
X148500000Y-86250000D03*
D14*
X140750000Y-107750000D03*
X139250000Y-107750000D03*
D11*
X151750000Y-115000000D03*
X151750000Y-113500000D03*
X147750000Y-115000000D03*
X147750000Y-113500000D03*
D16*
X169498600Y-97500000D03*
X168000000Y-97500000D03*
D17*
X119000000Y-109500000D03*
X120500000Y-109500000D03*
X137000000Y-99750000D03*
X135500000Y-99750000D03*
D18*
X154250000Y-111750000D03*
X154250000Y-113250000D03*
X171000000Y-112250000D03*
X171000000Y-113750000D03*
X144000000Y-109750000D03*
X144000000Y-111250000D03*
D19*
X181290000Y-87750000D03*
X178750000Y-87750000D03*
X176210000Y-87750000D03*
X167250000Y-115250000D03*
X164710000Y-115250000D03*
X162170000Y-115250000D03*
D20*
X188800000Y-95000000D03*
X188800000Y-108600000D03*
D21*
X162640000Y-101800000D03*
D22*
X170960000Y-100805000D03*
X170960000Y-102075000D03*
X170960000Y-103345000D03*
X170960000Y-104615000D03*
X170960000Y-105885000D03*
X170960000Y-107155000D03*
X170960000Y-108425000D03*
X176040000Y-108425000D03*
X176040000Y-107155000D03*
X176040000Y-105885000D03*
X176040000Y-104615000D03*
X176040000Y-103345000D03*
X176040000Y-102075000D03*
X176040000Y-109695000D03*
X170960000Y-109695000D03*
X176040000Y-100805000D03*
D23*
X164190000Y-86500000D03*
X165460000Y-86500000D03*
X166730000Y-86500000D03*
X168000000Y-86500000D03*
X169270000Y-86500000D03*
X170540000Y-86500000D03*
D24*
X117000000Y-103500000D03*
D25*
X115500000Y-102000000D03*
X118500000Y-102000000D03*
D18*
X127500000Y-115000000D03*
X127500000Y-113500000D03*
X178000000Y-94950000D03*
X178000000Y-93450000D03*
D17*
X171500000Y-97500000D03*
X173000000Y-97500000D03*
D18*
X163000000Y-90500000D03*
X163000000Y-92000000D03*
X160750000Y-90500000D03*
X160750000Y-92000000D03*
X170500000Y-90500000D03*
X170500000Y-92000000D03*
X172500000Y-90500000D03*
X172500000Y-92000000D03*
X165500000Y-90500000D03*
X165500000Y-92000000D03*
X145750000Y-86250000D03*
X145750000Y-87750000D03*
D17*
X111750000Y-108500000D03*
X110250000Y-108500000D03*
D18*
X117000000Y-106750000D03*
X117000000Y-105250000D03*
X113500000Y-105250000D03*
X113500000Y-106750000D03*
D17*
X115000000Y-108500000D03*
X113500000Y-108500000D03*
D26*
X182000000Y-101600000D03*
X182000000Y-103400000D03*
D27*
X179900000Y-102500000D03*
X184100000Y-102500000D03*
D28*
X180400000Y-100900000D03*
X183600000Y-104100000D03*
X183600000Y-100900000D03*
X180400000Y-104100000D03*
D26*
X141250000Y-88650000D03*
X141250000Y-86850000D03*
D27*
X143350000Y-87750000D03*
X139150000Y-87750000D03*
D28*
X142850000Y-89350000D03*
X139650000Y-86150000D03*
X139650000Y-89350000D03*
X142850000Y-86150000D03*
D29*
X122000000Y-109500000D03*
X122650000Y-109500000D03*
X123300000Y-109500000D03*
X123300000Y-107700000D03*
X122650000Y-107700000D03*
X122000000Y-107700000D03*
D30*
X115400000Y-96050000D03*
X115400000Y-97000000D03*
X115400000Y-97950000D03*
X117600000Y-97950000D03*
X117600000Y-96050000D03*
D31*
X124500000Y-99500000D03*
X124500000Y-101500000D03*
X125900000Y-101500000D03*
X125900000Y-99500000D03*
D32*
X129715000Y-109750000D03*
X129715000Y-109250000D03*
X129715000Y-108750000D03*
X129715000Y-108250000D03*
X129715000Y-107750000D03*
D33*
X128750000Y-106785000D03*
X128250000Y-106785000D03*
X127750000Y-106785000D03*
X127250000Y-106785000D03*
X126750000Y-106785000D03*
D32*
X125785000Y-107750000D03*
X125785000Y-108250000D03*
X125785000Y-108750000D03*
X125785000Y-109250000D03*
X125785000Y-109750000D03*
D33*
X126750000Y-110715000D03*
X127250000Y-110715000D03*
X127750000Y-110715000D03*
X128250000Y-110715000D03*
X128750000Y-110715000D03*
D34*
X127125000Y-108125000D03*
X127125000Y-109375000D03*
X128375000Y-108125000D03*
X128375000Y-109375000D03*
D35*
X125949240Y-96050000D03*
X125949240Y-97950000D03*
X127948220Y-97000000D03*
D36*
X138500000Y-95250000D03*
X138000000Y-95250000D03*
X137500000Y-95250000D03*
X137000000Y-95250000D03*
D37*
X136750000Y-96000000D03*
X136750000Y-96500000D03*
X136750000Y-97000000D03*
X138750000Y-96000000D03*
X138750000Y-96500000D03*
X138750000Y-97000000D03*
D36*
X137000000Y-97750000D03*
X137500000Y-97750000D03*
X138000000Y-97750000D03*
X138500000Y-97750000D03*
D38*
X151750000Y-111000000D03*
X147750000Y-111000000D03*
D11*
X124900000Y-113600000D03*
X124900000Y-115100000D03*
D39*
X94000000Y-101600000D03*
X189000000Y-101600000D03*
X94000000Y-87600000D03*
X94000000Y-115600000D03*
X189000000Y-115600000D03*
X189000000Y-87600000D03*
D40*
X134000000Y-92000000D03*
D41*
X136000000Y-92000000D03*
X132000000Y-92000000D03*
X136000000Y-117000000D03*
D40*
X134000000Y-117000000D03*
D41*
X132000000Y-117000000D03*
D42*
X109500000Y-92500000D03*
X109500000Y-116500000D03*
X158500000Y-116500000D03*
X158500000Y-92500000D03*
D43*
X113500000Y-92000000D03*
X113500000Y-117000000D03*
X154500000Y-117000000D03*
X154500000Y-92000000D03*
D44*
X109000000Y-96500000D03*
X109000000Y-112500000D03*
X159000000Y-112500000D03*
X159000000Y-96500000D03*
D45*
X181200000Y-94600000D03*
X181200000Y-96500000D03*
X184202280Y-95550000D03*
M02*
