M48
;DRILL file {KiCad (2015-09-03 BZR 6154, Git 4636d8d)-product} date Tue Sep  8 23:53:00 2015
;FORMAT={3:3/ absolute / metric / keep zeros}
FMAT,2
METRIC,TZ
T1C0.400
T2C0.600
T3C0.800
T4C0.998
T5C1.170
T6C2.250
T7C3.560
%
G90
G05
M71
T1
X107900Y-092500
X109000Y-098300
X109000Y-110800
X109500Y-114650
X111800Y-117000
X112500Y-096750
X113500Y-104500
X113750Y-098500
X114250Y-097000
X115400Y-092000
X115500Y-100000
X115630Y-113000
X116250Y-094000
X118500Y-100000
X119000Y-098000
X120000Y-094000
X120500Y-105000
X121250Y-094500
X121250Y-096500
X121850Y-113550
X122000Y-106500
X122650Y-110850
X122900Y-116100
X123000Y-103500
X123000Y-106500
X123250Y-099500
X123250Y-101500
X124900Y-116100
X125500Y-104000
X126000Y-095000
X126000Y-113600
X127125Y-108125
X127125Y-109375
X127500Y-115750
X128375Y-108125
X128375Y-109375
X129300Y-115900
X130200Y-092000
X130300Y-113500
X130593Y-105250
X131750Y-098500
X132000Y-115800
X133000Y-096000
X133500Y-104250
X134000Y-090800
X134000Y-115800
X134500Y-099750
X134500Y-101500
X134500Y-106750
X135750Y-096750
X135750Y-097500
X136000Y-115800
X137600Y-092000
X137750Y-094500
X138000Y-088000
X138000Y-107750
X138250Y-104250
X138750Y-103500
X139250Y-112250
X140000Y-102250
X141250Y-104250
X141500Y-112250
X142250Y-095440
X142250Y-096560
X142500Y-102250
X142991Y-100750
X144000Y-099000
X144000Y-112250
X144750Y-099750
X145000Y-106750
X145000Y-108250
X145750Y-085250
X147500Y-093000
X148450Y-104950
X148500Y-108000
X148750Y-106250
X149000Y-099000
X149000Y-103000
X149250Y-115000
X149500Y-093750
X149750Y-086250
X150250Y-115000
X151750Y-097750
X152000Y-101000
X152250Y-097000
X152600Y-106900
X152700Y-092000
X152700Y-117000
X154000Y-094250
X154250Y-114500
X156000Y-095000
X156000Y-114500
X157000Y-096000
X157000Y-098000
X158500Y-091100
X158500Y-114900
X159000Y-095000
X159000Y-110800
X161000Y-086000
X161000Y-094000
X162000Y-094000
X163000Y-096000
X166750Y-092000
X169000Y-100750
X171000Y-115000
X174500Y-097500
X174500Y-101000
X174575Y-102075
X174575Y-108425
X174615Y-104615
X174615Y-105885
X174655Y-103345
X174655Y-107155
X175000Y-114500
X179800Y-094600
X180000Y-106500
X180000Y-110000
X182000Y-106500
X182000Y-110000
X184000Y-099000
X184000Y-106500
X184000Y-110000
X185371Y-102500
X185500Y-114500
T2
X164190Y-086500
X165460Y-086500
X166730Y-086500
X168000Y-086500
X169270Y-086500
X170540Y-086500
T3
X141250Y-086850
X141250Y-088650
X182000Y-101600
X182000Y-103400
T4
X162170Y-115250
X164710Y-115250
X167250Y-115250
X176210Y-087750
X178750Y-087750
X181290Y-087750
T5
X188800Y-095000
X188800Y-108600
T6
X094000Y-087600
X094000Y-101600
X094000Y-115600
X189000Y-087600
X189000Y-101600
X189000Y-115600
T7
X162640Y-101800
T0
M30
