G04 #@! TF.FileFunction,Copper,L2,Inr,Signal*
%FSLAX46Y46*%
G04 Gerber Fmt 4.6, Leading zero omitted, Abs format (unit mm)*
G04 Created by KiCad (PCBNEW (2015-09-03 BZR 6154, Git 4636d8d)-product) date Tue Sep  8 23:52:58 2015*
%MOMM*%
G01*
G04 APERTURE LIST*
%ADD10C,0.100000*%
%ADD11O,1.506220X3.014980*%
%ADD12C,1.800000*%
%ADD13C,0.900000*%
%ADD14C,0.600000*%
%ADD15C,0.800000*%
%ADD16C,0.360000*%
%ADD17C,0.254000*%
G04 APERTURE END LIST*
D10*
D11*
X181290000Y-87750000D03*
X178750000Y-87750000D03*
X176210000Y-87750000D03*
X167250000Y-115250000D03*
X164710000Y-115250000D03*
X162170000Y-115250000D03*
D12*
X188800000Y-95000000D03*
X188800000Y-108600000D03*
D13*
X164190000Y-86500000D03*
X165460000Y-86500000D03*
X166730000Y-86500000D03*
X168000000Y-86500000D03*
X169270000Y-86500000D03*
X170540000Y-86500000D03*
D14*
X185500000Y-114500000D03*
X179800000Y-94600000D03*
X159000000Y-95000000D03*
X107900000Y-92500000D03*
X130200000Y-92000000D03*
X134000000Y-90800000D03*
X137600000Y-92000000D03*
X158500000Y-91100000D03*
X152700000Y-92000000D03*
X159000000Y-110800000D03*
X158500000Y-114900000D03*
X152700000Y-117000000D03*
X136000000Y-115800000D03*
X134000000Y-115800000D03*
X132000000Y-115800000D03*
X109500000Y-114650000D03*
X111800000Y-117000000D03*
X109000000Y-110800000D03*
X115400000Y-92000000D03*
X109000000Y-98300000D03*
X149750000Y-86250000D03*
X138000000Y-88000000D03*
X138000000Y-107750000D03*
X134500000Y-101500000D03*
X135750000Y-97500000D03*
X137750000Y-94500000D03*
X135750000Y-96750000D03*
X156000000Y-114500000D03*
X128375000Y-108125000D03*
X127125000Y-109375000D03*
X127125000Y-108125000D03*
X128375000Y-109375000D03*
X126000000Y-95000000D03*
X121250000Y-94500000D03*
X121250000Y-96500000D03*
X131750000Y-98500000D03*
X123250000Y-99500000D03*
X123250000Y-101500000D03*
X120000000Y-94000000D03*
X114250000Y-97000000D03*
X139250000Y-112250000D03*
X141500000Y-112250000D03*
X148450000Y-104950000D03*
X148500000Y-108000000D03*
X184000000Y-106500000D03*
X182000000Y-106500000D03*
X180000000Y-106500000D03*
X174500000Y-97500000D03*
X185371311Y-102500000D03*
X184000000Y-99000000D03*
X174500000Y-101000000D03*
X174575000Y-102075000D03*
X174655000Y-103345000D03*
X174615000Y-104615000D03*
X174615000Y-105885000D03*
X174655000Y-107155000D03*
X174575000Y-108425000D03*
X152600000Y-106900000D03*
X150250000Y-115000000D03*
X149250000Y-115000000D03*
X113500000Y-104500000D03*
X115630029Y-113000000D03*
X118500000Y-100000000D03*
X115500000Y-100000000D03*
X124900000Y-116100000D03*
X122900000Y-116100000D03*
X129300000Y-115900000D03*
X133500000Y-104250000D03*
X130592511Y-105250000D03*
X125500000Y-104000000D03*
X127500000Y-115750000D03*
X120500000Y-105000000D03*
X122650000Y-110850000D03*
X122000000Y-106500000D03*
X123000000Y-106500000D03*
X175000000Y-114500000D03*
X123000000Y-103500000D03*
X121850000Y-113550000D03*
X126000000Y-113600000D03*
X130300000Y-113500000D03*
X133000000Y-96000000D03*
X134500000Y-99750000D03*
X154250000Y-114500000D03*
X116250000Y-94000000D03*
X134500000Y-106750000D03*
X144000000Y-112250000D03*
X145750000Y-85250000D03*
X166750000Y-92000000D03*
X184000000Y-110000000D03*
X182000000Y-110000000D03*
X180000000Y-110000000D03*
X171000000Y-115000000D03*
X147500000Y-93000000D03*
X151750000Y-97750000D03*
X163000000Y-96000000D03*
X157000000Y-98000000D03*
X169000000Y-100750000D03*
X152000000Y-101000000D03*
X161000000Y-86000000D03*
X156000000Y-95000000D03*
X162000000Y-94000000D03*
X154000000Y-94250000D03*
X161000000Y-94000000D03*
X157000000Y-96000000D03*
X145000000Y-106750000D03*
X112500000Y-96750000D03*
X113750000Y-98500000D03*
X148750000Y-106250000D03*
X119000000Y-98000000D03*
X145000000Y-108250000D03*
X144750000Y-99750000D03*
X142990870Y-100750000D03*
X141250000Y-104250000D03*
X138250000Y-104250000D03*
X140000000Y-102250000D03*
X142500000Y-102250000D03*
X142250000Y-95439990D03*
X142250000Y-96560010D03*
X152250000Y-97000000D03*
X149500000Y-93750000D03*
X149000000Y-99000000D03*
X144000000Y-99000000D03*
X149000000Y-103000000D03*
X138750000Y-103500000D03*
D15*
X130824264Y-113400000D02*
X133800000Y-113400000D01*
X130300000Y-113500000D02*
X130724264Y-113500000D01*
X130724264Y-113500000D02*
X130824264Y-113400000D01*
D16*
X133000000Y-96000000D02*
X134000000Y-96000000D01*
X145000000Y-93000000D02*
X145750000Y-92250000D01*
X145750000Y-92250000D02*
X145750000Y-85250000D01*
D17*
G36*
X131873000Y-112365000D02*
X130824264Y-112365000D01*
X130428186Y-112443785D01*
X130396436Y-112465000D01*
X130300000Y-112465000D01*
X129903923Y-112543785D01*
X129568144Y-112768144D01*
X129343785Y-113103923D01*
X129265000Y-113500000D01*
X129343785Y-113896077D01*
X129568144Y-114231856D01*
X129903923Y-114456215D01*
X130300000Y-114535000D01*
X130724259Y-114535000D01*
X130724264Y-114535001D01*
X131120341Y-114456215D01*
X131152092Y-114435000D01*
X131873000Y-114435000D01*
X131873000Y-116873000D01*
X107627000Y-116873000D01*
X107627000Y-113735167D01*
X120914838Y-113735167D01*
X121056883Y-114078943D01*
X121319673Y-114342192D01*
X121663201Y-114484838D01*
X122035167Y-114485162D01*
X122378943Y-114343117D01*
X122642192Y-114080327D01*
X122764753Y-113785167D01*
X125064838Y-113785167D01*
X125206883Y-114128943D01*
X125469673Y-114392192D01*
X125813201Y-114534838D01*
X126185167Y-114535162D01*
X126528943Y-114393117D01*
X126792192Y-114130327D01*
X126934838Y-113786799D01*
X126935162Y-113414833D01*
X126793117Y-113071057D01*
X126530327Y-112807808D01*
X126186799Y-112665162D01*
X125814833Y-112664838D01*
X125471057Y-112806883D01*
X125207808Y-113069673D01*
X125065162Y-113413201D01*
X125064838Y-113785167D01*
X122764753Y-113785167D01*
X122784838Y-113736799D01*
X122785162Y-113364833D01*
X122643117Y-113021057D01*
X122380327Y-112757808D01*
X122036799Y-112615162D01*
X121664833Y-112614838D01*
X121321057Y-112756883D01*
X121057808Y-113019673D01*
X120915162Y-113363201D01*
X120914838Y-113735167D01*
X107627000Y-113735167D01*
X107627000Y-103685167D01*
X122064838Y-103685167D01*
X122206883Y-104028943D01*
X122469673Y-104292192D01*
X122813201Y-104434838D01*
X123185167Y-104435162D01*
X123528943Y-104293117D01*
X123792192Y-104030327D01*
X123934838Y-103686799D01*
X123935162Y-103314833D01*
X123793117Y-102971057D01*
X123530327Y-102707808D01*
X123186799Y-102565162D01*
X122814833Y-102564838D01*
X122471057Y-102706883D01*
X122207808Y-102969673D01*
X122065162Y-103313201D01*
X122064838Y-103685167D01*
X107627000Y-103685167D01*
X107627000Y-98685167D01*
X112814838Y-98685167D01*
X112956883Y-99028943D01*
X113219673Y-99292192D01*
X113563201Y-99434838D01*
X113935167Y-99435162D01*
X114278943Y-99293117D01*
X114542192Y-99030327D01*
X114684838Y-98686799D01*
X114685162Y-98314833D01*
X114631586Y-98185167D01*
X118064838Y-98185167D01*
X118206883Y-98528943D01*
X118469673Y-98792192D01*
X118813201Y-98934838D01*
X119185167Y-98935162D01*
X119528943Y-98793117D01*
X119792192Y-98530327D01*
X119934838Y-98186799D01*
X119935162Y-97814833D01*
X119793117Y-97471057D01*
X119530327Y-97207808D01*
X119186799Y-97065162D01*
X118814833Y-97064838D01*
X118471057Y-97206883D01*
X118207808Y-97469673D01*
X118065162Y-97813201D01*
X118064838Y-98185167D01*
X114631586Y-98185167D01*
X114543117Y-97971057D01*
X114280327Y-97707808D01*
X113936799Y-97565162D01*
X113564833Y-97564838D01*
X113221057Y-97706883D01*
X112957808Y-97969673D01*
X112815162Y-98313201D01*
X112814838Y-98685167D01*
X107627000Y-98685167D01*
X107627000Y-96935167D01*
X111564838Y-96935167D01*
X111706883Y-97278943D01*
X111969673Y-97542192D01*
X112313201Y-97684838D01*
X112685167Y-97685162D01*
X113028943Y-97543117D01*
X113292192Y-97280327D01*
X113434838Y-96936799D01*
X113435162Y-96564833D01*
X113293117Y-96221057D01*
X113030327Y-95957808D01*
X112686799Y-95815162D01*
X112314833Y-95814838D01*
X111971057Y-95956883D01*
X111707808Y-96219673D01*
X111565162Y-96563201D01*
X111564838Y-96935167D01*
X107627000Y-96935167D01*
X107627000Y-94185167D01*
X115314838Y-94185167D01*
X115456883Y-94528943D01*
X115719673Y-94792192D01*
X116063201Y-94934838D01*
X116435167Y-94935162D01*
X116778943Y-94793117D01*
X117042192Y-94530327D01*
X117184838Y-94186799D01*
X117185162Y-93814833D01*
X117043117Y-93471057D01*
X116780327Y-93207808D01*
X116436799Y-93065162D01*
X116064833Y-93064838D01*
X115721057Y-93206883D01*
X115457808Y-93469673D01*
X115315162Y-93813201D01*
X115314838Y-94185167D01*
X107627000Y-94185167D01*
X107627000Y-92127000D01*
X131873000Y-92127000D01*
X131873000Y-112365000D01*
X131873000Y-112365000D01*
G37*
X131873000Y-112365000D02*
X130824264Y-112365000D01*
X130428186Y-112443785D01*
X130396436Y-112465000D01*
X130300000Y-112465000D01*
X129903923Y-112543785D01*
X129568144Y-112768144D01*
X129343785Y-113103923D01*
X129265000Y-113500000D01*
X129343785Y-113896077D01*
X129568144Y-114231856D01*
X129903923Y-114456215D01*
X130300000Y-114535000D01*
X130724259Y-114535000D01*
X130724264Y-114535001D01*
X131120341Y-114456215D01*
X131152092Y-114435000D01*
X131873000Y-114435000D01*
X131873000Y-116873000D01*
X107627000Y-116873000D01*
X107627000Y-113735167D01*
X120914838Y-113735167D01*
X121056883Y-114078943D01*
X121319673Y-114342192D01*
X121663201Y-114484838D01*
X122035167Y-114485162D01*
X122378943Y-114343117D01*
X122642192Y-114080327D01*
X122764753Y-113785167D01*
X125064838Y-113785167D01*
X125206883Y-114128943D01*
X125469673Y-114392192D01*
X125813201Y-114534838D01*
X126185167Y-114535162D01*
X126528943Y-114393117D01*
X126792192Y-114130327D01*
X126934838Y-113786799D01*
X126935162Y-113414833D01*
X126793117Y-113071057D01*
X126530327Y-112807808D01*
X126186799Y-112665162D01*
X125814833Y-112664838D01*
X125471057Y-112806883D01*
X125207808Y-113069673D01*
X125065162Y-113413201D01*
X125064838Y-113785167D01*
X122764753Y-113785167D01*
X122784838Y-113736799D01*
X122785162Y-113364833D01*
X122643117Y-113021057D01*
X122380327Y-112757808D01*
X122036799Y-112615162D01*
X121664833Y-112614838D01*
X121321057Y-112756883D01*
X121057808Y-113019673D01*
X120915162Y-113363201D01*
X120914838Y-113735167D01*
X107627000Y-113735167D01*
X107627000Y-103685167D01*
X122064838Y-103685167D01*
X122206883Y-104028943D01*
X122469673Y-104292192D01*
X122813201Y-104434838D01*
X123185167Y-104435162D01*
X123528943Y-104293117D01*
X123792192Y-104030327D01*
X123934838Y-103686799D01*
X123935162Y-103314833D01*
X123793117Y-102971057D01*
X123530327Y-102707808D01*
X123186799Y-102565162D01*
X122814833Y-102564838D01*
X122471057Y-102706883D01*
X122207808Y-102969673D01*
X122065162Y-103313201D01*
X122064838Y-103685167D01*
X107627000Y-103685167D01*
X107627000Y-98685167D01*
X112814838Y-98685167D01*
X112956883Y-99028943D01*
X113219673Y-99292192D01*
X113563201Y-99434838D01*
X113935167Y-99435162D01*
X114278943Y-99293117D01*
X114542192Y-99030327D01*
X114684838Y-98686799D01*
X114685162Y-98314833D01*
X114631586Y-98185167D01*
X118064838Y-98185167D01*
X118206883Y-98528943D01*
X118469673Y-98792192D01*
X118813201Y-98934838D01*
X119185167Y-98935162D01*
X119528943Y-98793117D01*
X119792192Y-98530327D01*
X119934838Y-98186799D01*
X119935162Y-97814833D01*
X119793117Y-97471057D01*
X119530327Y-97207808D01*
X119186799Y-97065162D01*
X118814833Y-97064838D01*
X118471057Y-97206883D01*
X118207808Y-97469673D01*
X118065162Y-97813201D01*
X118064838Y-98185167D01*
X114631586Y-98185167D01*
X114543117Y-97971057D01*
X114280327Y-97707808D01*
X113936799Y-97565162D01*
X113564833Y-97564838D01*
X113221057Y-97706883D01*
X112957808Y-97969673D01*
X112815162Y-98313201D01*
X112814838Y-98685167D01*
X107627000Y-98685167D01*
X107627000Y-96935167D01*
X111564838Y-96935167D01*
X111706883Y-97278943D01*
X111969673Y-97542192D01*
X112313201Y-97684838D01*
X112685167Y-97685162D01*
X113028943Y-97543117D01*
X113292192Y-97280327D01*
X113434838Y-96936799D01*
X113435162Y-96564833D01*
X113293117Y-96221057D01*
X113030327Y-95957808D01*
X112686799Y-95815162D01*
X112314833Y-95814838D01*
X111971057Y-95956883D01*
X111707808Y-96219673D01*
X111565162Y-96563201D01*
X111564838Y-96935167D01*
X107627000Y-96935167D01*
X107627000Y-94185167D01*
X115314838Y-94185167D01*
X115456883Y-94528943D01*
X115719673Y-94792192D01*
X116063201Y-94934838D01*
X116435167Y-94935162D01*
X116778943Y-94793117D01*
X117042192Y-94530327D01*
X117184838Y-94186799D01*
X117185162Y-93814833D01*
X117043117Y-93471057D01*
X116780327Y-93207808D01*
X116436799Y-93065162D01*
X116064833Y-93064838D01*
X115721057Y-93206883D01*
X115457808Y-93469673D01*
X115315162Y-93813201D01*
X115314838Y-94185167D01*
X107627000Y-94185167D01*
X107627000Y-92127000D01*
X131873000Y-92127000D01*
X131873000Y-112365000D01*
G36*
X174927554Y-86422439D02*
X174821890Y-86953646D01*
X174821890Y-88546354D01*
X174927554Y-89077561D01*
X175228458Y-89527896D01*
X175678793Y-89828800D01*
X176210000Y-89934464D01*
X176741207Y-89828800D01*
X177191542Y-89527896D01*
X177480000Y-89096188D01*
X177768458Y-89527896D01*
X178218793Y-89828800D01*
X178750000Y-89934464D01*
X179281207Y-89828800D01*
X179731542Y-89527896D01*
X180020000Y-89096188D01*
X180308458Y-89527896D01*
X180758793Y-89828800D01*
X181290000Y-89934464D01*
X181821207Y-89828800D01*
X182271542Y-89527896D01*
X182572446Y-89077561D01*
X182678110Y-88546354D01*
X182678110Y-86953646D01*
X182572446Y-86422439D01*
X182375040Y-86127000D01*
X186373000Y-86127000D01*
X186373000Y-114164389D01*
X186293117Y-113971057D01*
X186030327Y-113707808D01*
X185686799Y-113565162D01*
X185314833Y-113564838D01*
X184971057Y-113706883D01*
X184707808Y-113969673D01*
X184565162Y-114313201D01*
X184564838Y-114685167D01*
X184706883Y-115028943D01*
X184969673Y-115292192D01*
X185313201Y-115434838D01*
X185685167Y-115435162D01*
X186028943Y-115293117D01*
X186292192Y-115030327D01*
X186373000Y-114835721D01*
X186373000Y-116873000D01*
X168335040Y-116873000D01*
X168532446Y-116577561D01*
X168638110Y-116046354D01*
X168638110Y-114453646D01*
X168532446Y-113922439D01*
X168231542Y-113472104D01*
X167781207Y-113171200D01*
X167250000Y-113065536D01*
X166718793Y-113171200D01*
X166268458Y-113472104D01*
X165980000Y-113903812D01*
X165691542Y-113472104D01*
X165241207Y-113171200D01*
X164710000Y-113065536D01*
X164178793Y-113171200D01*
X163728458Y-113472104D01*
X163440000Y-113903812D01*
X163151542Y-113472104D01*
X162701207Y-113171200D01*
X162170000Y-113065536D01*
X161638793Y-113171200D01*
X161188458Y-113472104D01*
X160887554Y-113922439D01*
X160781890Y-114453646D01*
X160781890Y-116046354D01*
X160887554Y-116577561D01*
X161084960Y-116873000D01*
X153635111Y-116873000D01*
X153635162Y-116814833D01*
X153493117Y-116471057D01*
X153230327Y-116207808D01*
X152886799Y-116065162D01*
X152514833Y-116064838D01*
X152171057Y-116206883D01*
X151907808Y-116469673D01*
X151765162Y-116813201D01*
X151765110Y-116873000D01*
X133377000Y-116873000D01*
X133377000Y-116499357D01*
X133469673Y-116592192D01*
X133813201Y-116734838D01*
X134185167Y-116735162D01*
X134528943Y-116593117D01*
X134792192Y-116330327D01*
X134934838Y-115986799D01*
X134934839Y-115985167D01*
X135064838Y-115985167D01*
X135206883Y-116328943D01*
X135469673Y-116592192D01*
X135813201Y-116734838D01*
X136185167Y-116735162D01*
X136528943Y-116593117D01*
X136792192Y-116330327D01*
X136934838Y-115986799D01*
X136935162Y-115614833D01*
X136793117Y-115271057D01*
X136707377Y-115185167D01*
X148314838Y-115185167D01*
X148456883Y-115528943D01*
X148719673Y-115792192D01*
X149063201Y-115934838D01*
X149435167Y-115935162D01*
X149750351Y-115804931D01*
X150063201Y-115934838D01*
X150435167Y-115935162D01*
X150778943Y-115793117D01*
X151042192Y-115530327D01*
X151184838Y-115186799D01*
X151185162Y-114814833D01*
X151131586Y-114685167D01*
X155064838Y-114685167D01*
X155206883Y-115028943D01*
X155469673Y-115292192D01*
X155813201Y-115434838D01*
X156185167Y-115435162D01*
X156528943Y-115293117D01*
X156737256Y-115085167D01*
X157564838Y-115085167D01*
X157706883Y-115428943D01*
X157969673Y-115692192D01*
X158313201Y-115834838D01*
X158685167Y-115835162D01*
X159028943Y-115693117D01*
X159292192Y-115430327D01*
X159434838Y-115086799D01*
X159435162Y-114714833D01*
X159293117Y-114371057D01*
X159030327Y-114107808D01*
X158686799Y-113965162D01*
X158314833Y-113964838D01*
X157971057Y-114106883D01*
X157707808Y-114369673D01*
X157565162Y-114713201D01*
X157564838Y-115085167D01*
X156737256Y-115085167D01*
X156792192Y-115030327D01*
X156934838Y-114686799D01*
X156935162Y-114314833D01*
X156793117Y-113971057D01*
X156530327Y-113707808D01*
X156186799Y-113565162D01*
X155814833Y-113564838D01*
X155471057Y-113706883D01*
X155207808Y-113969673D01*
X155065162Y-114313201D01*
X155064838Y-114685167D01*
X151131586Y-114685167D01*
X151043117Y-114471057D01*
X150780327Y-114207808D01*
X150436799Y-114065162D01*
X150064833Y-114064838D01*
X149749649Y-114195069D01*
X149436799Y-114065162D01*
X149064833Y-114064838D01*
X148721057Y-114206883D01*
X148457808Y-114469673D01*
X148315162Y-114813201D01*
X148314838Y-115185167D01*
X136707377Y-115185167D01*
X136530327Y-115007808D01*
X136186799Y-114865162D01*
X135814833Y-114864838D01*
X135471057Y-115006883D01*
X135207808Y-115269673D01*
X135065162Y-115613201D01*
X135064838Y-115985167D01*
X134934839Y-115985167D01*
X134935162Y-115614833D01*
X134793117Y-115271057D01*
X134530327Y-115007808D01*
X134186799Y-114865162D01*
X133814833Y-114864838D01*
X133471057Y-115006883D01*
X133377000Y-115100776D01*
X133377000Y-112435167D01*
X138314838Y-112435167D01*
X138456883Y-112778943D01*
X138719673Y-113042192D01*
X139063201Y-113184838D01*
X139435167Y-113185162D01*
X139778943Y-113043117D01*
X140042192Y-112780327D01*
X140184838Y-112436799D01*
X140184839Y-112435167D01*
X140564838Y-112435167D01*
X140706883Y-112778943D01*
X140969673Y-113042192D01*
X141313201Y-113184838D01*
X141685167Y-113185162D01*
X142028943Y-113043117D01*
X142292192Y-112780327D01*
X142434838Y-112436799D01*
X142435162Y-112064833D01*
X142293117Y-111721057D01*
X142030327Y-111457808D01*
X141686799Y-111315162D01*
X141314833Y-111314838D01*
X140971057Y-111456883D01*
X140707808Y-111719673D01*
X140565162Y-112063201D01*
X140564838Y-112435167D01*
X140184839Y-112435167D01*
X140185162Y-112064833D01*
X140043117Y-111721057D01*
X139780327Y-111457808D01*
X139436799Y-111315162D01*
X139064833Y-111314838D01*
X138721057Y-111456883D01*
X138457808Y-111719673D01*
X138315162Y-112063201D01*
X138314838Y-112435167D01*
X133377000Y-112435167D01*
X133377000Y-110985167D01*
X158064838Y-110985167D01*
X158206883Y-111328943D01*
X158469673Y-111592192D01*
X158813201Y-111734838D01*
X159185167Y-111735162D01*
X159528943Y-111593117D01*
X159792192Y-111330327D01*
X159934838Y-110986799D01*
X159935162Y-110614833D01*
X159793117Y-110271057D01*
X159530327Y-110007808D01*
X159186799Y-109865162D01*
X158814833Y-109864838D01*
X158471057Y-110006883D01*
X158207808Y-110269673D01*
X158065162Y-110613201D01*
X158064838Y-110985167D01*
X133377000Y-110985167D01*
X133377000Y-107935167D01*
X137064838Y-107935167D01*
X137206883Y-108278943D01*
X137469673Y-108542192D01*
X137813201Y-108684838D01*
X138185167Y-108685162D01*
X138528943Y-108543117D01*
X138792192Y-108280327D01*
X138934838Y-107936799D01*
X138935162Y-107564833D01*
X138793117Y-107221057D01*
X138530327Y-106957808D01*
X138475802Y-106935167D01*
X144064838Y-106935167D01*
X144206883Y-107278943D01*
X144427709Y-107500155D01*
X144207808Y-107719673D01*
X144065162Y-108063201D01*
X144064838Y-108435167D01*
X144206883Y-108778943D01*
X144469673Y-109042192D01*
X144813201Y-109184838D01*
X145185167Y-109185162D01*
X145528943Y-109043117D01*
X145792192Y-108780327D01*
X145934838Y-108436799D01*
X145935162Y-108064833D01*
X145793117Y-107721057D01*
X145572291Y-107499845D01*
X145792192Y-107280327D01*
X145934838Y-106936799D01*
X145935162Y-106564833D01*
X145793117Y-106221057D01*
X145530327Y-105957808D01*
X145186799Y-105815162D01*
X144814833Y-105814838D01*
X144471057Y-105956883D01*
X144207808Y-106219673D01*
X144065162Y-106563201D01*
X144064838Y-106935167D01*
X138475802Y-106935167D01*
X138186799Y-106815162D01*
X137814833Y-106814838D01*
X137471057Y-106956883D01*
X137207808Y-107219673D01*
X137065162Y-107563201D01*
X137064838Y-107935167D01*
X133377000Y-107935167D01*
X133377000Y-105184894D01*
X133685167Y-105185162D01*
X134028943Y-105043117D01*
X134292192Y-104780327D01*
X134434838Y-104436799D01*
X134434839Y-104435167D01*
X137314838Y-104435167D01*
X137456883Y-104778943D01*
X137719673Y-105042192D01*
X138063201Y-105184838D01*
X138435167Y-105185162D01*
X138778943Y-105043117D01*
X139042192Y-104780327D01*
X139184838Y-104436799D01*
X139184839Y-104435167D01*
X140314838Y-104435167D01*
X140456883Y-104778943D01*
X140719673Y-105042192D01*
X141063201Y-105184838D01*
X141435167Y-105185162D01*
X141556164Y-105135167D01*
X147514838Y-105135167D01*
X147656883Y-105478943D01*
X147919673Y-105742192D01*
X147944224Y-105752387D01*
X147815162Y-106063201D01*
X147814838Y-106435167D01*
X147956883Y-106778943D01*
X148219673Y-107042192D01*
X148294471Y-107073251D01*
X147971057Y-107206883D01*
X147707808Y-107469673D01*
X147565162Y-107813201D01*
X147564838Y-108185167D01*
X147706883Y-108528943D01*
X147969673Y-108792192D01*
X148313201Y-108934838D01*
X148685167Y-108935162D01*
X149028943Y-108793117D01*
X149292192Y-108530327D01*
X149434838Y-108186799D01*
X149435162Y-107814833D01*
X149293117Y-107471057D01*
X149030327Y-107207808D01*
X148955529Y-107176749D01*
X149177174Y-107085167D01*
X151664838Y-107085167D01*
X151806883Y-107428943D01*
X152069673Y-107692192D01*
X152413201Y-107834838D01*
X152785167Y-107835162D01*
X153128943Y-107693117D01*
X153392192Y-107430327D01*
X153534838Y-107086799D01*
X153535162Y-106714833D01*
X153393117Y-106371057D01*
X153130327Y-106107808D01*
X152786799Y-105965162D01*
X152414833Y-105964838D01*
X152071057Y-106106883D01*
X151807808Y-106369673D01*
X151665162Y-106713201D01*
X151664838Y-107085167D01*
X149177174Y-107085167D01*
X149278943Y-107043117D01*
X149542192Y-106780327D01*
X149684838Y-106436799D01*
X149685162Y-106064833D01*
X149543117Y-105721057D01*
X149280327Y-105457808D01*
X149255776Y-105447613D01*
X149384838Y-105136799D01*
X149385162Y-104764833D01*
X149243117Y-104421057D01*
X148980327Y-104157808D01*
X148636799Y-104015162D01*
X148264833Y-104014838D01*
X147921057Y-104156883D01*
X147657808Y-104419673D01*
X147515162Y-104763201D01*
X147514838Y-105135167D01*
X141556164Y-105135167D01*
X141778943Y-105043117D01*
X142042192Y-104780327D01*
X142184838Y-104436799D01*
X142185162Y-104064833D01*
X142043117Y-103721057D01*
X141780327Y-103457808D01*
X141436799Y-103315162D01*
X141064833Y-103314838D01*
X140721057Y-103456883D01*
X140457808Y-103719673D01*
X140315162Y-104063201D01*
X140314838Y-104435167D01*
X139184839Y-104435167D01*
X139184929Y-104331963D01*
X139278943Y-104293117D01*
X139542192Y-104030327D01*
X139684838Y-103686799D01*
X139685162Y-103314833D01*
X139631586Y-103185167D01*
X148064838Y-103185167D01*
X148206883Y-103528943D01*
X148469673Y-103792192D01*
X148813201Y-103934838D01*
X149185167Y-103935162D01*
X149528943Y-103793117D01*
X149792192Y-103530327D01*
X149934838Y-103186799D01*
X149935162Y-102814833D01*
X149793117Y-102471057D01*
X149600663Y-102278266D01*
X160224581Y-102278266D01*
X160591469Y-103166201D01*
X161270226Y-103846144D01*
X162157519Y-104214580D01*
X163118266Y-104215419D01*
X164006201Y-103848531D01*
X164686144Y-103169774D01*
X165054580Y-102282481D01*
X165055419Y-101321734D01*
X164895693Y-100935167D01*
X168064838Y-100935167D01*
X168206883Y-101278943D01*
X168469673Y-101542192D01*
X168813201Y-101684838D01*
X169185167Y-101685162D01*
X169528943Y-101543117D01*
X169792192Y-101280327D01*
X169831706Y-101185167D01*
X173564838Y-101185167D01*
X173706883Y-101528943D01*
X173765117Y-101587278D01*
X173640162Y-101888201D01*
X173639838Y-102260167D01*
X173781883Y-102603943D01*
X173927640Y-102749954D01*
X173862808Y-102814673D01*
X173720162Y-103158201D01*
X173719838Y-103530167D01*
X173861883Y-103873943D01*
X173947744Y-103959954D01*
X173822808Y-104084673D01*
X173680162Y-104428201D01*
X173679838Y-104800167D01*
X173821883Y-105143943D01*
X173927710Y-105249954D01*
X173822808Y-105354673D01*
X173680162Y-105698201D01*
X173679838Y-106070167D01*
X173821883Y-106413943D01*
X173947675Y-106539954D01*
X173862808Y-106624673D01*
X173720162Y-106968201D01*
X173719838Y-107340167D01*
X173861883Y-107683943D01*
X173927779Y-107749954D01*
X173782808Y-107894673D01*
X173640162Y-108238201D01*
X173639838Y-108610167D01*
X173781883Y-108953943D01*
X174044673Y-109217192D01*
X174388201Y-109359838D01*
X174760167Y-109360162D01*
X175103943Y-109218117D01*
X175367192Y-108955327D01*
X175509838Y-108611799D01*
X175510162Y-108239833D01*
X175368117Y-107896057D01*
X175302221Y-107830046D01*
X175447192Y-107685327D01*
X175589838Y-107341799D01*
X175590162Y-106969833D01*
X175472541Y-106685167D01*
X179064838Y-106685167D01*
X179206883Y-107028943D01*
X179469673Y-107292192D01*
X179813201Y-107434838D01*
X180185167Y-107435162D01*
X180528943Y-107293117D01*
X180792192Y-107030327D01*
X180934838Y-106686799D01*
X180934839Y-106685167D01*
X181064838Y-106685167D01*
X181206883Y-107028943D01*
X181469673Y-107292192D01*
X181813201Y-107434838D01*
X182185167Y-107435162D01*
X182528943Y-107293117D01*
X182792192Y-107030327D01*
X182934838Y-106686799D01*
X182934839Y-106685167D01*
X183064838Y-106685167D01*
X183206883Y-107028943D01*
X183469673Y-107292192D01*
X183813201Y-107434838D01*
X184185167Y-107435162D01*
X184528943Y-107293117D01*
X184792192Y-107030327D01*
X184934838Y-106686799D01*
X184935162Y-106314833D01*
X184793117Y-105971057D01*
X184530327Y-105707808D01*
X184186799Y-105565162D01*
X183814833Y-105564838D01*
X183471057Y-105706883D01*
X183207808Y-105969673D01*
X183065162Y-106313201D01*
X183064838Y-106685167D01*
X182934839Y-106685167D01*
X182935162Y-106314833D01*
X182793117Y-105971057D01*
X182530327Y-105707808D01*
X182186799Y-105565162D01*
X181814833Y-105564838D01*
X181471057Y-105706883D01*
X181207808Y-105969673D01*
X181065162Y-106313201D01*
X181064838Y-106685167D01*
X180934839Y-106685167D01*
X180935162Y-106314833D01*
X180793117Y-105971057D01*
X180530327Y-105707808D01*
X180186799Y-105565162D01*
X179814833Y-105564838D01*
X179471057Y-105706883D01*
X179207808Y-105969673D01*
X179065162Y-106313201D01*
X179064838Y-106685167D01*
X175472541Y-106685167D01*
X175448117Y-106626057D01*
X175322325Y-106500046D01*
X175407192Y-106415327D01*
X175549838Y-106071799D01*
X175550162Y-105699833D01*
X175408117Y-105356057D01*
X175302290Y-105250046D01*
X175407192Y-105145327D01*
X175549838Y-104801799D01*
X175550162Y-104429833D01*
X175408117Y-104086057D01*
X175322256Y-104000046D01*
X175447192Y-103875327D01*
X175589838Y-103531799D01*
X175590162Y-103159833D01*
X175448117Y-102816057D01*
X175302360Y-102670046D01*
X175367192Y-102605327D01*
X175509838Y-102261799D01*
X175510162Y-101889833D01*
X175475098Y-101804971D01*
X180964821Y-101804971D01*
X181122058Y-102185515D01*
X181412954Y-102476919D01*
X181468205Y-102499861D01*
X181414485Y-102522058D01*
X181123081Y-102812954D01*
X180965180Y-103193223D01*
X180964821Y-103604971D01*
X181122058Y-103985515D01*
X181412954Y-104276919D01*
X181793223Y-104434820D01*
X182204971Y-104435179D01*
X182585515Y-104277942D01*
X182876919Y-103987046D01*
X183034820Y-103606777D01*
X183035179Y-103195029D01*
X182877942Y-102814485D01*
X182748850Y-102685167D01*
X184436149Y-102685167D01*
X184578194Y-103028943D01*
X184840984Y-103292192D01*
X185184512Y-103434838D01*
X185556478Y-103435162D01*
X185900254Y-103293117D01*
X186163503Y-103030327D01*
X186306149Y-102686799D01*
X186306473Y-102314833D01*
X186164428Y-101971057D01*
X185901638Y-101707808D01*
X185558110Y-101565162D01*
X185186144Y-101564838D01*
X184842368Y-101706883D01*
X184579119Y-101969673D01*
X184436473Y-102313201D01*
X184436149Y-102685167D01*
X182748850Y-102685167D01*
X182587046Y-102523081D01*
X182531795Y-102500139D01*
X182585515Y-102477942D01*
X182876919Y-102187046D01*
X183034820Y-101806777D01*
X183035179Y-101395029D01*
X182877942Y-101014485D01*
X182587046Y-100723081D01*
X182206777Y-100565180D01*
X181795029Y-100564821D01*
X181414485Y-100722058D01*
X181123081Y-101012954D01*
X180965180Y-101393223D01*
X180964821Y-101804971D01*
X175475098Y-101804971D01*
X175368117Y-101546057D01*
X175309883Y-101487722D01*
X175434838Y-101186799D01*
X175435162Y-100814833D01*
X175293117Y-100471057D01*
X175030327Y-100207808D01*
X174686799Y-100065162D01*
X174314833Y-100064838D01*
X173971057Y-100206883D01*
X173707808Y-100469673D01*
X173565162Y-100813201D01*
X173564838Y-101185167D01*
X169831706Y-101185167D01*
X169934838Y-100936799D01*
X169935162Y-100564833D01*
X169793117Y-100221057D01*
X169530327Y-99957808D01*
X169186799Y-99815162D01*
X168814833Y-99814838D01*
X168471057Y-99956883D01*
X168207808Y-100219673D01*
X168065162Y-100563201D01*
X168064838Y-100935167D01*
X164895693Y-100935167D01*
X164688531Y-100433799D01*
X164009774Y-99753856D01*
X163122481Y-99385420D01*
X162161734Y-99384581D01*
X161273799Y-99751469D01*
X160593856Y-100430226D01*
X160225420Y-101317519D01*
X160224581Y-102278266D01*
X149600663Y-102278266D01*
X149530327Y-102207808D01*
X149186799Y-102065162D01*
X148814833Y-102064838D01*
X148471057Y-102206883D01*
X148207808Y-102469673D01*
X148065162Y-102813201D01*
X148064838Y-103185167D01*
X139631586Y-103185167D01*
X139593807Y-103093737D01*
X139813201Y-103184838D01*
X140185167Y-103185162D01*
X140528943Y-103043117D01*
X140792192Y-102780327D01*
X140934838Y-102436799D01*
X140934839Y-102435167D01*
X141564838Y-102435167D01*
X141706883Y-102778943D01*
X141969673Y-103042192D01*
X142313201Y-103184838D01*
X142685167Y-103185162D01*
X143028943Y-103043117D01*
X143292192Y-102780327D01*
X143434838Y-102436799D01*
X143435162Y-102064833D01*
X143293117Y-101721057D01*
X143233559Y-101661395D01*
X143519813Y-101543117D01*
X143783062Y-101280327D01*
X143822576Y-101185167D01*
X151064838Y-101185167D01*
X151206883Y-101528943D01*
X151469673Y-101792192D01*
X151813201Y-101934838D01*
X152185167Y-101935162D01*
X152528943Y-101793117D01*
X152792192Y-101530327D01*
X152934838Y-101186799D01*
X152935162Y-100814833D01*
X152793117Y-100471057D01*
X152530327Y-100207808D01*
X152186799Y-100065162D01*
X151814833Y-100064838D01*
X151471057Y-100206883D01*
X151207808Y-100469673D01*
X151065162Y-100813201D01*
X151064838Y-101185167D01*
X143822576Y-101185167D01*
X143925708Y-100936799D01*
X143926032Y-100564833D01*
X143783987Y-100221057D01*
X143521197Y-99957808D01*
X143177669Y-99815162D01*
X142805703Y-99814838D01*
X142461927Y-99956883D01*
X142198678Y-100219673D01*
X142056032Y-100563201D01*
X142055708Y-100935167D01*
X142197753Y-101278943D01*
X142257311Y-101338605D01*
X141971057Y-101456883D01*
X141707808Y-101719673D01*
X141565162Y-102063201D01*
X141564838Y-102435167D01*
X140934839Y-102435167D01*
X140935162Y-102064833D01*
X140793117Y-101721057D01*
X140530327Y-101457808D01*
X140186799Y-101315162D01*
X139814833Y-101314838D01*
X139471057Y-101456883D01*
X139207808Y-101719673D01*
X139065162Y-102063201D01*
X139064838Y-102435167D01*
X139156193Y-102656263D01*
X138936799Y-102565162D01*
X138564833Y-102564838D01*
X138221057Y-102706883D01*
X137957808Y-102969673D01*
X137815162Y-103313201D01*
X137815071Y-103418037D01*
X137721057Y-103456883D01*
X137457808Y-103719673D01*
X137315162Y-104063201D01*
X137314838Y-104435167D01*
X134434839Y-104435167D01*
X134435162Y-104064833D01*
X134293117Y-103721057D01*
X134030327Y-103457808D01*
X133686799Y-103315162D01*
X133377000Y-103314892D01*
X133377000Y-101685167D01*
X133564838Y-101685167D01*
X133706883Y-102028943D01*
X133969673Y-102292192D01*
X134313201Y-102434838D01*
X134685167Y-102435162D01*
X135028943Y-102293117D01*
X135292192Y-102030327D01*
X135434838Y-101686799D01*
X135435162Y-101314833D01*
X135293117Y-100971057D01*
X135030327Y-100707808D01*
X134686799Y-100565162D01*
X134314833Y-100564838D01*
X133971057Y-100706883D01*
X133707808Y-100969673D01*
X133565162Y-101313201D01*
X133564838Y-101685167D01*
X133377000Y-101685167D01*
X133377000Y-99185167D01*
X143064838Y-99185167D01*
X143206883Y-99528943D01*
X143469673Y-99792192D01*
X143813201Y-99934838D01*
X143814838Y-99934839D01*
X143814838Y-99935167D01*
X143956883Y-100278943D01*
X144219673Y-100542192D01*
X144563201Y-100684838D01*
X144935167Y-100685162D01*
X145278943Y-100543117D01*
X145542192Y-100280327D01*
X145684838Y-99936799D01*
X145685162Y-99564833D01*
X145543117Y-99221057D01*
X145507290Y-99185167D01*
X148064838Y-99185167D01*
X148206883Y-99528943D01*
X148469673Y-99792192D01*
X148813201Y-99934838D01*
X149185167Y-99935162D01*
X149528943Y-99793117D01*
X149792192Y-99530327D01*
X149934838Y-99186799D01*
X149934839Y-99185167D01*
X183064838Y-99185167D01*
X183206883Y-99528943D01*
X183469673Y-99792192D01*
X183813201Y-99934838D01*
X184185167Y-99935162D01*
X184528943Y-99793117D01*
X184792192Y-99530327D01*
X184934838Y-99186799D01*
X184935162Y-98814833D01*
X184793117Y-98471057D01*
X184530327Y-98207808D01*
X184186799Y-98065162D01*
X183814833Y-98064838D01*
X183471057Y-98206883D01*
X183207808Y-98469673D01*
X183065162Y-98813201D01*
X183064838Y-99185167D01*
X149934839Y-99185167D01*
X149935162Y-98814833D01*
X149793117Y-98471057D01*
X149530327Y-98207808D01*
X149186799Y-98065162D01*
X148814833Y-98064838D01*
X148471057Y-98206883D01*
X148207808Y-98469673D01*
X148065162Y-98813201D01*
X148064838Y-99185167D01*
X145507290Y-99185167D01*
X145280327Y-98957808D01*
X144936799Y-98815162D01*
X144935162Y-98815161D01*
X144935162Y-98814833D01*
X144793117Y-98471057D01*
X144530327Y-98207808D01*
X144186799Y-98065162D01*
X143814833Y-98064838D01*
X143471057Y-98206883D01*
X143207808Y-98469673D01*
X143065162Y-98813201D01*
X143064838Y-99185167D01*
X133377000Y-99185167D01*
X133377000Y-96935167D01*
X134814838Y-96935167D01*
X134893293Y-97125042D01*
X134815162Y-97313201D01*
X134814838Y-97685167D01*
X134956883Y-98028943D01*
X135219673Y-98292192D01*
X135563201Y-98434838D01*
X135935167Y-98435162D01*
X136278943Y-98293117D01*
X136542192Y-98030327D01*
X136581706Y-97935167D01*
X150814838Y-97935167D01*
X150956883Y-98278943D01*
X151219673Y-98542192D01*
X151563201Y-98684838D01*
X151935167Y-98685162D01*
X152278943Y-98543117D01*
X152542192Y-98280327D01*
X152581706Y-98185167D01*
X156064838Y-98185167D01*
X156206883Y-98528943D01*
X156469673Y-98792192D01*
X156813201Y-98934838D01*
X157185167Y-98935162D01*
X157528943Y-98793117D01*
X157792192Y-98530327D01*
X157934838Y-98186799D01*
X157935162Y-97814833D01*
X157881586Y-97685167D01*
X173564838Y-97685167D01*
X173706883Y-98028943D01*
X173969673Y-98292192D01*
X174313201Y-98434838D01*
X174685167Y-98435162D01*
X175028943Y-98293117D01*
X175292192Y-98030327D01*
X175434838Y-97686799D01*
X175435162Y-97314833D01*
X175293117Y-96971057D01*
X175030327Y-96707808D01*
X174686799Y-96565162D01*
X174314833Y-96564838D01*
X173971057Y-96706883D01*
X173707808Y-96969673D01*
X173565162Y-97313201D01*
X173564838Y-97685167D01*
X157881586Y-97685167D01*
X157793117Y-97471057D01*
X157530327Y-97207808D01*
X157186799Y-97065162D01*
X156814833Y-97064838D01*
X156471057Y-97206883D01*
X156207808Y-97469673D01*
X156065162Y-97813201D01*
X156064838Y-98185167D01*
X152581706Y-98185167D01*
X152684838Y-97936799D01*
X152684929Y-97831963D01*
X152778943Y-97793117D01*
X153042192Y-97530327D01*
X153184838Y-97186799D01*
X153185162Y-96814833D01*
X153043117Y-96471057D01*
X152780327Y-96207808D01*
X152436799Y-96065162D01*
X152064833Y-96064838D01*
X151721057Y-96206883D01*
X151457808Y-96469673D01*
X151315162Y-96813201D01*
X151315071Y-96918037D01*
X151221057Y-96956883D01*
X150957808Y-97219673D01*
X150815162Y-97563201D01*
X150814838Y-97935167D01*
X136581706Y-97935167D01*
X136684838Y-97686799D01*
X136685162Y-97314833D01*
X136606707Y-97124958D01*
X136684838Y-96936799D01*
X136685162Y-96564833D01*
X136543117Y-96221057D01*
X136280327Y-95957808D01*
X135936799Y-95815162D01*
X135564833Y-95814838D01*
X135221057Y-95956883D01*
X134957808Y-96219673D01*
X134815162Y-96563201D01*
X134814838Y-96935167D01*
X133377000Y-96935167D01*
X133377000Y-95625157D01*
X141314838Y-95625157D01*
X141456883Y-95968933D01*
X141487720Y-95999824D01*
X141457808Y-96029683D01*
X141315162Y-96373211D01*
X141314838Y-96745177D01*
X141456883Y-97088953D01*
X141719673Y-97352202D01*
X142063201Y-97494848D01*
X142435167Y-97495172D01*
X142778943Y-97353127D01*
X143042192Y-97090337D01*
X143184838Y-96746809D01*
X143185162Y-96374843D01*
X143043117Y-96031067D01*
X143012280Y-96000176D01*
X143042192Y-95970317D01*
X143184838Y-95626789D01*
X143185162Y-95254823D01*
X143156381Y-95185167D01*
X155064838Y-95185167D01*
X155206883Y-95528943D01*
X155469673Y-95792192D01*
X155813201Y-95934838D01*
X156065056Y-95935057D01*
X156064838Y-96185167D01*
X156206883Y-96528943D01*
X156469673Y-96792192D01*
X156813201Y-96934838D01*
X157185167Y-96935162D01*
X157528943Y-96793117D01*
X157792192Y-96530327D01*
X157934838Y-96186799D01*
X157934839Y-96185167D01*
X162064838Y-96185167D01*
X162206883Y-96528943D01*
X162469673Y-96792192D01*
X162813201Y-96934838D01*
X163185167Y-96935162D01*
X163528943Y-96793117D01*
X163792192Y-96530327D01*
X163934838Y-96186799D01*
X163935162Y-95814833D01*
X163793117Y-95471057D01*
X163530327Y-95207808D01*
X163186799Y-95065162D01*
X162814833Y-95064838D01*
X162471057Y-95206883D01*
X162207808Y-95469673D01*
X162065162Y-95813201D01*
X162064838Y-96185167D01*
X157934839Y-96185167D01*
X157935162Y-95814833D01*
X157793117Y-95471057D01*
X157530327Y-95207808D01*
X157475802Y-95185167D01*
X158064838Y-95185167D01*
X158206883Y-95528943D01*
X158469673Y-95792192D01*
X158813201Y-95934838D01*
X159185167Y-95935162D01*
X159528943Y-95793117D01*
X159792192Y-95530327D01*
X159934838Y-95186799D01*
X159935162Y-94814833D01*
X159793117Y-94471057D01*
X159530327Y-94207808D01*
X159475802Y-94185167D01*
X160064838Y-94185167D01*
X160206883Y-94528943D01*
X160469673Y-94792192D01*
X160813201Y-94934838D01*
X161185167Y-94935162D01*
X161500351Y-94804931D01*
X161813201Y-94934838D01*
X162185167Y-94935162D01*
X162528943Y-94793117D01*
X162536906Y-94785167D01*
X178864838Y-94785167D01*
X179006883Y-95128943D01*
X179269673Y-95392192D01*
X179613201Y-95534838D01*
X179985167Y-95535162D01*
X180328943Y-95393117D01*
X180592192Y-95130327D01*
X180734838Y-94786799D01*
X180735162Y-94414833D01*
X180593117Y-94071057D01*
X180330327Y-93807808D01*
X179986799Y-93665162D01*
X179614833Y-93664838D01*
X179271057Y-93806883D01*
X179007808Y-94069673D01*
X178865162Y-94413201D01*
X178864838Y-94785167D01*
X162536906Y-94785167D01*
X162792192Y-94530327D01*
X162934838Y-94186799D01*
X162935162Y-93814833D01*
X162793117Y-93471057D01*
X162530327Y-93207808D01*
X162186799Y-93065162D01*
X161814833Y-93064838D01*
X161499649Y-93195069D01*
X161186799Y-93065162D01*
X160814833Y-93064838D01*
X160471057Y-93206883D01*
X160207808Y-93469673D01*
X160065162Y-93813201D01*
X160064838Y-94185167D01*
X159475802Y-94185167D01*
X159186799Y-94065162D01*
X158814833Y-94064838D01*
X158471057Y-94206883D01*
X158207808Y-94469673D01*
X158065162Y-94813201D01*
X158064838Y-95185167D01*
X157475802Y-95185167D01*
X157186799Y-95065162D01*
X156934944Y-95064943D01*
X156935162Y-94814833D01*
X156793117Y-94471057D01*
X156530327Y-94207808D01*
X156186799Y-94065162D01*
X155814833Y-94064838D01*
X155471057Y-94206883D01*
X155207808Y-94469673D01*
X155065162Y-94813201D01*
X155064838Y-95185167D01*
X143156381Y-95185167D01*
X143043117Y-94911047D01*
X142780327Y-94647798D01*
X142436799Y-94505152D01*
X142064833Y-94504828D01*
X141721057Y-94646873D01*
X141457808Y-94909663D01*
X141315162Y-95253191D01*
X141314838Y-95625157D01*
X133377000Y-95625157D01*
X133377000Y-94685167D01*
X136814838Y-94685167D01*
X136956883Y-95028943D01*
X137219673Y-95292192D01*
X137563201Y-95434838D01*
X137935167Y-95435162D01*
X138278943Y-95293117D01*
X138542192Y-95030327D01*
X138684838Y-94686799D01*
X138685162Y-94314833D01*
X138543117Y-93971057D01*
X138507290Y-93935167D01*
X148564838Y-93935167D01*
X148706883Y-94278943D01*
X148969673Y-94542192D01*
X149313201Y-94684838D01*
X149685167Y-94685162D01*
X150028943Y-94543117D01*
X150137081Y-94435167D01*
X153064838Y-94435167D01*
X153206883Y-94778943D01*
X153469673Y-95042192D01*
X153813201Y-95184838D01*
X154185167Y-95185162D01*
X154528943Y-95043117D01*
X154792192Y-94780327D01*
X154934838Y-94436799D01*
X154935162Y-94064833D01*
X154793117Y-93721057D01*
X154530327Y-93457808D01*
X154186799Y-93315162D01*
X153814833Y-93314838D01*
X153471057Y-93456883D01*
X153207808Y-93719673D01*
X153065162Y-94063201D01*
X153064838Y-94435167D01*
X150137081Y-94435167D01*
X150292192Y-94280327D01*
X150434838Y-93936799D01*
X150435162Y-93564833D01*
X150293117Y-93221057D01*
X150030327Y-92957808D01*
X149686799Y-92815162D01*
X149314833Y-92814838D01*
X148971057Y-92956883D01*
X148707808Y-93219673D01*
X148565162Y-93563201D01*
X148564838Y-93935167D01*
X138507290Y-93935167D01*
X138280327Y-93707808D01*
X137936799Y-93565162D01*
X137564833Y-93564838D01*
X137221057Y-93706883D01*
X136957808Y-93969673D01*
X136815162Y-94313201D01*
X136814838Y-94685167D01*
X133377000Y-94685167D01*
X133377000Y-92127000D01*
X136664889Y-92127000D01*
X136664838Y-92185167D01*
X136806883Y-92528943D01*
X137069673Y-92792192D01*
X137413201Y-92934838D01*
X137785167Y-92935162D01*
X138128943Y-92793117D01*
X138392192Y-92530327D01*
X138534838Y-92186799D01*
X138534890Y-92127000D01*
X147164389Y-92127000D01*
X146971057Y-92206883D01*
X146707808Y-92469673D01*
X146565162Y-92813201D01*
X146564838Y-93185167D01*
X146706883Y-93528943D01*
X146969673Y-93792192D01*
X147313201Y-93934838D01*
X147685167Y-93935162D01*
X148028943Y-93793117D01*
X148292192Y-93530327D01*
X148434838Y-93186799D01*
X148435162Y-92814833D01*
X148293117Y-92471057D01*
X148030327Y-92207808D01*
X147835721Y-92127000D01*
X151764889Y-92127000D01*
X151764838Y-92185167D01*
X151906883Y-92528943D01*
X152169673Y-92792192D01*
X152513201Y-92934838D01*
X152885167Y-92935162D01*
X153228943Y-92793117D01*
X153492192Y-92530327D01*
X153634838Y-92186799D01*
X153634890Y-92127000D01*
X159000000Y-92127000D01*
X159049410Y-92116994D01*
X159091035Y-92088553D01*
X159118315Y-92046159D01*
X159127000Y-92000000D01*
X159127000Y-91795231D01*
X159292192Y-91630327D01*
X159434838Y-91286799D01*
X159435162Y-90914833D01*
X159293117Y-90571057D01*
X159127000Y-90404650D01*
X159127000Y-89627000D01*
X174500000Y-89627000D01*
X174549410Y-89616994D01*
X174591035Y-89588553D01*
X174618315Y-89546159D01*
X174627000Y-89500000D01*
X174627000Y-86127000D01*
X175124960Y-86127000D01*
X174927554Y-86422439D01*
X174927554Y-86422439D01*
G37*
X174927554Y-86422439D02*
X174821890Y-86953646D01*
X174821890Y-88546354D01*
X174927554Y-89077561D01*
X175228458Y-89527896D01*
X175678793Y-89828800D01*
X176210000Y-89934464D01*
X176741207Y-89828800D01*
X177191542Y-89527896D01*
X177480000Y-89096188D01*
X177768458Y-89527896D01*
X178218793Y-89828800D01*
X178750000Y-89934464D01*
X179281207Y-89828800D01*
X179731542Y-89527896D01*
X180020000Y-89096188D01*
X180308458Y-89527896D01*
X180758793Y-89828800D01*
X181290000Y-89934464D01*
X181821207Y-89828800D01*
X182271542Y-89527896D01*
X182572446Y-89077561D01*
X182678110Y-88546354D01*
X182678110Y-86953646D01*
X182572446Y-86422439D01*
X182375040Y-86127000D01*
X186373000Y-86127000D01*
X186373000Y-114164389D01*
X186293117Y-113971057D01*
X186030327Y-113707808D01*
X185686799Y-113565162D01*
X185314833Y-113564838D01*
X184971057Y-113706883D01*
X184707808Y-113969673D01*
X184565162Y-114313201D01*
X184564838Y-114685167D01*
X184706883Y-115028943D01*
X184969673Y-115292192D01*
X185313201Y-115434838D01*
X185685167Y-115435162D01*
X186028943Y-115293117D01*
X186292192Y-115030327D01*
X186373000Y-114835721D01*
X186373000Y-116873000D01*
X168335040Y-116873000D01*
X168532446Y-116577561D01*
X168638110Y-116046354D01*
X168638110Y-114453646D01*
X168532446Y-113922439D01*
X168231542Y-113472104D01*
X167781207Y-113171200D01*
X167250000Y-113065536D01*
X166718793Y-113171200D01*
X166268458Y-113472104D01*
X165980000Y-113903812D01*
X165691542Y-113472104D01*
X165241207Y-113171200D01*
X164710000Y-113065536D01*
X164178793Y-113171200D01*
X163728458Y-113472104D01*
X163440000Y-113903812D01*
X163151542Y-113472104D01*
X162701207Y-113171200D01*
X162170000Y-113065536D01*
X161638793Y-113171200D01*
X161188458Y-113472104D01*
X160887554Y-113922439D01*
X160781890Y-114453646D01*
X160781890Y-116046354D01*
X160887554Y-116577561D01*
X161084960Y-116873000D01*
X153635111Y-116873000D01*
X153635162Y-116814833D01*
X153493117Y-116471057D01*
X153230327Y-116207808D01*
X152886799Y-116065162D01*
X152514833Y-116064838D01*
X152171057Y-116206883D01*
X151907808Y-116469673D01*
X151765162Y-116813201D01*
X151765110Y-116873000D01*
X133377000Y-116873000D01*
X133377000Y-116499357D01*
X133469673Y-116592192D01*
X133813201Y-116734838D01*
X134185167Y-116735162D01*
X134528943Y-116593117D01*
X134792192Y-116330327D01*
X134934838Y-115986799D01*
X134934839Y-115985167D01*
X135064838Y-115985167D01*
X135206883Y-116328943D01*
X135469673Y-116592192D01*
X135813201Y-116734838D01*
X136185167Y-116735162D01*
X136528943Y-116593117D01*
X136792192Y-116330327D01*
X136934838Y-115986799D01*
X136935162Y-115614833D01*
X136793117Y-115271057D01*
X136707377Y-115185167D01*
X148314838Y-115185167D01*
X148456883Y-115528943D01*
X148719673Y-115792192D01*
X149063201Y-115934838D01*
X149435167Y-115935162D01*
X149750351Y-115804931D01*
X150063201Y-115934838D01*
X150435167Y-115935162D01*
X150778943Y-115793117D01*
X151042192Y-115530327D01*
X151184838Y-115186799D01*
X151185162Y-114814833D01*
X151131586Y-114685167D01*
X155064838Y-114685167D01*
X155206883Y-115028943D01*
X155469673Y-115292192D01*
X155813201Y-115434838D01*
X156185167Y-115435162D01*
X156528943Y-115293117D01*
X156737256Y-115085167D01*
X157564838Y-115085167D01*
X157706883Y-115428943D01*
X157969673Y-115692192D01*
X158313201Y-115834838D01*
X158685167Y-115835162D01*
X159028943Y-115693117D01*
X159292192Y-115430327D01*
X159434838Y-115086799D01*
X159435162Y-114714833D01*
X159293117Y-114371057D01*
X159030327Y-114107808D01*
X158686799Y-113965162D01*
X158314833Y-113964838D01*
X157971057Y-114106883D01*
X157707808Y-114369673D01*
X157565162Y-114713201D01*
X157564838Y-115085167D01*
X156737256Y-115085167D01*
X156792192Y-115030327D01*
X156934838Y-114686799D01*
X156935162Y-114314833D01*
X156793117Y-113971057D01*
X156530327Y-113707808D01*
X156186799Y-113565162D01*
X155814833Y-113564838D01*
X155471057Y-113706883D01*
X155207808Y-113969673D01*
X155065162Y-114313201D01*
X155064838Y-114685167D01*
X151131586Y-114685167D01*
X151043117Y-114471057D01*
X150780327Y-114207808D01*
X150436799Y-114065162D01*
X150064833Y-114064838D01*
X149749649Y-114195069D01*
X149436799Y-114065162D01*
X149064833Y-114064838D01*
X148721057Y-114206883D01*
X148457808Y-114469673D01*
X148315162Y-114813201D01*
X148314838Y-115185167D01*
X136707377Y-115185167D01*
X136530327Y-115007808D01*
X136186799Y-114865162D01*
X135814833Y-114864838D01*
X135471057Y-115006883D01*
X135207808Y-115269673D01*
X135065162Y-115613201D01*
X135064838Y-115985167D01*
X134934839Y-115985167D01*
X134935162Y-115614833D01*
X134793117Y-115271057D01*
X134530327Y-115007808D01*
X134186799Y-114865162D01*
X133814833Y-114864838D01*
X133471057Y-115006883D01*
X133377000Y-115100776D01*
X133377000Y-112435167D01*
X138314838Y-112435167D01*
X138456883Y-112778943D01*
X138719673Y-113042192D01*
X139063201Y-113184838D01*
X139435167Y-113185162D01*
X139778943Y-113043117D01*
X140042192Y-112780327D01*
X140184838Y-112436799D01*
X140184839Y-112435167D01*
X140564838Y-112435167D01*
X140706883Y-112778943D01*
X140969673Y-113042192D01*
X141313201Y-113184838D01*
X141685167Y-113185162D01*
X142028943Y-113043117D01*
X142292192Y-112780327D01*
X142434838Y-112436799D01*
X142435162Y-112064833D01*
X142293117Y-111721057D01*
X142030327Y-111457808D01*
X141686799Y-111315162D01*
X141314833Y-111314838D01*
X140971057Y-111456883D01*
X140707808Y-111719673D01*
X140565162Y-112063201D01*
X140564838Y-112435167D01*
X140184839Y-112435167D01*
X140185162Y-112064833D01*
X140043117Y-111721057D01*
X139780327Y-111457808D01*
X139436799Y-111315162D01*
X139064833Y-111314838D01*
X138721057Y-111456883D01*
X138457808Y-111719673D01*
X138315162Y-112063201D01*
X138314838Y-112435167D01*
X133377000Y-112435167D01*
X133377000Y-110985167D01*
X158064838Y-110985167D01*
X158206883Y-111328943D01*
X158469673Y-111592192D01*
X158813201Y-111734838D01*
X159185167Y-111735162D01*
X159528943Y-111593117D01*
X159792192Y-111330327D01*
X159934838Y-110986799D01*
X159935162Y-110614833D01*
X159793117Y-110271057D01*
X159530327Y-110007808D01*
X159186799Y-109865162D01*
X158814833Y-109864838D01*
X158471057Y-110006883D01*
X158207808Y-110269673D01*
X158065162Y-110613201D01*
X158064838Y-110985167D01*
X133377000Y-110985167D01*
X133377000Y-107935167D01*
X137064838Y-107935167D01*
X137206883Y-108278943D01*
X137469673Y-108542192D01*
X137813201Y-108684838D01*
X138185167Y-108685162D01*
X138528943Y-108543117D01*
X138792192Y-108280327D01*
X138934838Y-107936799D01*
X138935162Y-107564833D01*
X138793117Y-107221057D01*
X138530327Y-106957808D01*
X138475802Y-106935167D01*
X144064838Y-106935167D01*
X144206883Y-107278943D01*
X144427709Y-107500155D01*
X144207808Y-107719673D01*
X144065162Y-108063201D01*
X144064838Y-108435167D01*
X144206883Y-108778943D01*
X144469673Y-109042192D01*
X144813201Y-109184838D01*
X145185167Y-109185162D01*
X145528943Y-109043117D01*
X145792192Y-108780327D01*
X145934838Y-108436799D01*
X145935162Y-108064833D01*
X145793117Y-107721057D01*
X145572291Y-107499845D01*
X145792192Y-107280327D01*
X145934838Y-106936799D01*
X145935162Y-106564833D01*
X145793117Y-106221057D01*
X145530327Y-105957808D01*
X145186799Y-105815162D01*
X144814833Y-105814838D01*
X144471057Y-105956883D01*
X144207808Y-106219673D01*
X144065162Y-106563201D01*
X144064838Y-106935167D01*
X138475802Y-106935167D01*
X138186799Y-106815162D01*
X137814833Y-106814838D01*
X137471057Y-106956883D01*
X137207808Y-107219673D01*
X137065162Y-107563201D01*
X137064838Y-107935167D01*
X133377000Y-107935167D01*
X133377000Y-105184894D01*
X133685167Y-105185162D01*
X134028943Y-105043117D01*
X134292192Y-104780327D01*
X134434838Y-104436799D01*
X134434839Y-104435167D01*
X137314838Y-104435167D01*
X137456883Y-104778943D01*
X137719673Y-105042192D01*
X138063201Y-105184838D01*
X138435167Y-105185162D01*
X138778943Y-105043117D01*
X139042192Y-104780327D01*
X139184838Y-104436799D01*
X139184839Y-104435167D01*
X140314838Y-104435167D01*
X140456883Y-104778943D01*
X140719673Y-105042192D01*
X141063201Y-105184838D01*
X141435167Y-105185162D01*
X141556164Y-105135167D01*
X147514838Y-105135167D01*
X147656883Y-105478943D01*
X147919673Y-105742192D01*
X147944224Y-105752387D01*
X147815162Y-106063201D01*
X147814838Y-106435167D01*
X147956883Y-106778943D01*
X148219673Y-107042192D01*
X148294471Y-107073251D01*
X147971057Y-107206883D01*
X147707808Y-107469673D01*
X147565162Y-107813201D01*
X147564838Y-108185167D01*
X147706883Y-108528943D01*
X147969673Y-108792192D01*
X148313201Y-108934838D01*
X148685167Y-108935162D01*
X149028943Y-108793117D01*
X149292192Y-108530327D01*
X149434838Y-108186799D01*
X149435162Y-107814833D01*
X149293117Y-107471057D01*
X149030327Y-107207808D01*
X148955529Y-107176749D01*
X149177174Y-107085167D01*
X151664838Y-107085167D01*
X151806883Y-107428943D01*
X152069673Y-107692192D01*
X152413201Y-107834838D01*
X152785167Y-107835162D01*
X153128943Y-107693117D01*
X153392192Y-107430327D01*
X153534838Y-107086799D01*
X153535162Y-106714833D01*
X153393117Y-106371057D01*
X153130327Y-106107808D01*
X152786799Y-105965162D01*
X152414833Y-105964838D01*
X152071057Y-106106883D01*
X151807808Y-106369673D01*
X151665162Y-106713201D01*
X151664838Y-107085167D01*
X149177174Y-107085167D01*
X149278943Y-107043117D01*
X149542192Y-106780327D01*
X149684838Y-106436799D01*
X149685162Y-106064833D01*
X149543117Y-105721057D01*
X149280327Y-105457808D01*
X149255776Y-105447613D01*
X149384838Y-105136799D01*
X149385162Y-104764833D01*
X149243117Y-104421057D01*
X148980327Y-104157808D01*
X148636799Y-104015162D01*
X148264833Y-104014838D01*
X147921057Y-104156883D01*
X147657808Y-104419673D01*
X147515162Y-104763201D01*
X147514838Y-105135167D01*
X141556164Y-105135167D01*
X141778943Y-105043117D01*
X142042192Y-104780327D01*
X142184838Y-104436799D01*
X142185162Y-104064833D01*
X142043117Y-103721057D01*
X141780327Y-103457808D01*
X141436799Y-103315162D01*
X141064833Y-103314838D01*
X140721057Y-103456883D01*
X140457808Y-103719673D01*
X140315162Y-104063201D01*
X140314838Y-104435167D01*
X139184839Y-104435167D01*
X139184929Y-104331963D01*
X139278943Y-104293117D01*
X139542192Y-104030327D01*
X139684838Y-103686799D01*
X139685162Y-103314833D01*
X139631586Y-103185167D01*
X148064838Y-103185167D01*
X148206883Y-103528943D01*
X148469673Y-103792192D01*
X148813201Y-103934838D01*
X149185167Y-103935162D01*
X149528943Y-103793117D01*
X149792192Y-103530327D01*
X149934838Y-103186799D01*
X149935162Y-102814833D01*
X149793117Y-102471057D01*
X149600663Y-102278266D01*
X160224581Y-102278266D01*
X160591469Y-103166201D01*
X161270226Y-103846144D01*
X162157519Y-104214580D01*
X163118266Y-104215419D01*
X164006201Y-103848531D01*
X164686144Y-103169774D01*
X165054580Y-102282481D01*
X165055419Y-101321734D01*
X164895693Y-100935167D01*
X168064838Y-100935167D01*
X168206883Y-101278943D01*
X168469673Y-101542192D01*
X168813201Y-101684838D01*
X169185167Y-101685162D01*
X169528943Y-101543117D01*
X169792192Y-101280327D01*
X169831706Y-101185167D01*
X173564838Y-101185167D01*
X173706883Y-101528943D01*
X173765117Y-101587278D01*
X173640162Y-101888201D01*
X173639838Y-102260167D01*
X173781883Y-102603943D01*
X173927640Y-102749954D01*
X173862808Y-102814673D01*
X173720162Y-103158201D01*
X173719838Y-103530167D01*
X173861883Y-103873943D01*
X173947744Y-103959954D01*
X173822808Y-104084673D01*
X173680162Y-104428201D01*
X173679838Y-104800167D01*
X173821883Y-105143943D01*
X173927710Y-105249954D01*
X173822808Y-105354673D01*
X173680162Y-105698201D01*
X173679838Y-106070167D01*
X173821883Y-106413943D01*
X173947675Y-106539954D01*
X173862808Y-106624673D01*
X173720162Y-106968201D01*
X173719838Y-107340167D01*
X173861883Y-107683943D01*
X173927779Y-107749954D01*
X173782808Y-107894673D01*
X173640162Y-108238201D01*
X173639838Y-108610167D01*
X173781883Y-108953943D01*
X174044673Y-109217192D01*
X174388201Y-109359838D01*
X174760167Y-109360162D01*
X175103943Y-109218117D01*
X175367192Y-108955327D01*
X175509838Y-108611799D01*
X175510162Y-108239833D01*
X175368117Y-107896057D01*
X175302221Y-107830046D01*
X175447192Y-107685327D01*
X175589838Y-107341799D01*
X175590162Y-106969833D01*
X175472541Y-106685167D01*
X179064838Y-106685167D01*
X179206883Y-107028943D01*
X179469673Y-107292192D01*
X179813201Y-107434838D01*
X180185167Y-107435162D01*
X180528943Y-107293117D01*
X180792192Y-107030327D01*
X180934838Y-106686799D01*
X180934839Y-106685167D01*
X181064838Y-106685167D01*
X181206883Y-107028943D01*
X181469673Y-107292192D01*
X181813201Y-107434838D01*
X182185167Y-107435162D01*
X182528943Y-107293117D01*
X182792192Y-107030327D01*
X182934838Y-106686799D01*
X182934839Y-106685167D01*
X183064838Y-106685167D01*
X183206883Y-107028943D01*
X183469673Y-107292192D01*
X183813201Y-107434838D01*
X184185167Y-107435162D01*
X184528943Y-107293117D01*
X184792192Y-107030327D01*
X184934838Y-106686799D01*
X184935162Y-106314833D01*
X184793117Y-105971057D01*
X184530327Y-105707808D01*
X184186799Y-105565162D01*
X183814833Y-105564838D01*
X183471057Y-105706883D01*
X183207808Y-105969673D01*
X183065162Y-106313201D01*
X183064838Y-106685167D01*
X182934839Y-106685167D01*
X182935162Y-106314833D01*
X182793117Y-105971057D01*
X182530327Y-105707808D01*
X182186799Y-105565162D01*
X181814833Y-105564838D01*
X181471057Y-105706883D01*
X181207808Y-105969673D01*
X181065162Y-106313201D01*
X181064838Y-106685167D01*
X180934839Y-106685167D01*
X180935162Y-106314833D01*
X180793117Y-105971057D01*
X180530327Y-105707808D01*
X180186799Y-105565162D01*
X179814833Y-105564838D01*
X179471057Y-105706883D01*
X179207808Y-105969673D01*
X179065162Y-106313201D01*
X179064838Y-106685167D01*
X175472541Y-106685167D01*
X175448117Y-106626057D01*
X175322325Y-106500046D01*
X175407192Y-106415327D01*
X175549838Y-106071799D01*
X175550162Y-105699833D01*
X175408117Y-105356057D01*
X175302290Y-105250046D01*
X175407192Y-105145327D01*
X175549838Y-104801799D01*
X175550162Y-104429833D01*
X175408117Y-104086057D01*
X175322256Y-104000046D01*
X175447192Y-103875327D01*
X175589838Y-103531799D01*
X175590162Y-103159833D01*
X175448117Y-102816057D01*
X175302360Y-102670046D01*
X175367192Y-102605327D01*
X175509838Y-102261799D01*
X175510162Y-101889833D01*
X175475098Y-101804971D01*
X180964821Y-101804971D01*
X181122058Y-102185515D01*
X181412954Y-102476919D01*
X181468205Y-102499861D01*
X181414485Y-102522058D01*
X181123081Y-102812954D01*
X180965180Y-103193223D01*
X180964821Y-103604971D01*
X181122058Y-103985515D01*
X181412954Y-104276919D01*
X181793223Y-104434820D01*
X182204971Y-104435179D01*
X182585515Y-104277942D01*
X182876919Y-103987046D01*
X183034820Y-103606777D01*
X183035179Y-103195029D01*
X182877942Y-102814485D01*
X182748850Y-102685167D01*
X184436149Y-102685167D01*
X184578194Y-103028943D01*
X184840984Y-103292192D01*
X185184512Y-103434838D01*
X185556478Y-103435162D01*
X185900254Y-103293117D01*
X186163503Y-103030327D01*
X186306149Y-102686799D01*
X186306473Y-102314833D01*
X186164428Y-101971057D01*
X185901638Y-101707808D01*
X185558110Y-101565162D01*
X185186144Y-101564838D01*
X184842368Y-101706883D01*
X184579119Y-101969673D01*
X184436473Y-102313201D01*
X184436149Y-102685167D01*
X182748850Y-102685167D01*
X182587046Y-102523081D01*
X182531795Y-102500139D01*
X182585515Y-102477942D01*
X182876919Y-102187046D01*
X183034820Y-101806777D01*
X183035179Y-101395029D01*
X182877942Y-101014485D01*
X182587046Y-100723081D01*
X182206777Y-100565180D01*
X181795029Y-100564821D01*
X181414485Y-100722058D01*
X181123081Y-101012954D01*
X180965180Y-101393223D01*
X180964821Y-101804971D01*
X175475098Y-101804971D01*
X175368117Y-101546057D01*
X175309883Y-101487722D01*
X175434838Y-101186799D01*
X175435162Y-100814833D01*
X175293117Y-100471057D01*
X175030327Y-100207808D01*
X174686799Y-100065162D01*
X174314833Y-100064838D01*
X173971057Y-100206883D01*
X173707808Y-100469673D01*
X173565162Y-100813201D01*
X173564838Y-101185167D01*
X169831706Y-101185167D01*
X169934838Y-100936799D01*
X169935162Y-100564833D01*
X169793117Y-100221057D01*
X169530327Y-99957808D01*
X169186799Y-99815162D01*
X168814833Y-99814838D01*
X168471057Y-99956883D01*
X168207808Y-100219673D01*
X168065162Y-100563201D01*
X168064838Y-100935167D01*
X164895693Y-100935167D01*
X164688531Y-100433799D01*
X164009774Y-99753856D01*
X163122481Y-99385420D01*
X162161734Y-99384581D01*
X161273799Y-99751469D01*
X160593856Y-100430226D01*
X160225420Y-101317519D01*
X160224581Y-102278266D01*
X149600663Y-102278266D01*
X149530327Y-102207808D01*
X149186799Y-102065162D01*
X148814833Y-102064838D01*
X148471057Y-102206883D01*
X148207808Y-102469673D01*
X148065162Y-102813201D01*
X148064838Y-103185167D01*
X139631586Y-103185167D01*
X139593807Y-103093737D01*
X139813201Y-103184838D01*
X140185167Y-103185162D01*
X140528943Y-103043117D01*
X140792192Y-102780327D01*
X140934838Y-102436799D01*
X140934839Y-102435167D01*
X141564838Y-102435167D01*
X141706883Y-102778943D01*
X141969673Y-103042192D01*
X142313201Y-103184838D01*
X142685167Y-103185162D01*
X143028943Y-103043117D01*
X143292192Y-102780327D01*
X143434838Y-102436799D01*
X143435162Y-102064833D01*
X143293117Y-101721057D01*
X143233559Y-101661395D01*
X143519813Y-101543117D01*
X143783062Y-101280327D01*
X143822576Y-101185167D01*
X151064838Y-101185167D01*
X151206883Y-101528943D01*
X151469673Y-101792192D01*
X151813201Y-101934838D01*
X152185167Y-101935162D01*
X152528943Y-101793117D01*
X152792192Y-101530327D01*
X152934838Y-101186799D01*
X152935162Y-100814833D01*
X152793117Y-100471057D01*
X152530327Y-100207808D01*
X152186799Y-100065162D01*
X151814833Y-100064838D01*
X151471057Y-100206883D01*
X151207808Y-100469673D01*
X151065162Y-100813201D01*
X151064838Y-101185167D01*
X143822576Y-101185167D01*
X143925708Y-100936799D01*
X143926032Y-100564833D01*
X143783987Y-100221057D01*
X143521197Y-99957808D01*
X143177669Y-99815162D01*
X142805703Y-99814838D01*
X142461927Y-99956883D01*
X142198678Y-100219673D01*
X142056032Y-100563201D01*
X142055708Y-100935167D01*
X142197753Y-101278943D01*
X142257311Y-101338605D01*
X141971057Y-101456883D01*
X141707808Y-101719673D01*
X141565162Y-102063201D01*
X141564838Y-102435167D01*
X140934839Y-102435167D01*
X140935162Y-102064833D01*
X140793117Y-101721057D01*
X140530327Y-101457808D01*
X140186799Y-101315162D01*
X139814833Y-101314838D01*
X139471057Y-101456883D01*
X139207808Y-101719673D01*
X139065162Y-102063201D01*
X139064838Y-102435167D01*
X139156193Y-102656263D01*
X138936799Y-102565162D01*
X138564833Y-102564838D01*
X138221057Y-102706883D01*
X137957808Y-102969673D01*
X137815162Y-103313201D01*
X137815071Y-103418037D01*
X137721057Y-103456883D01*
X137457808Y-103719673D01*
X137315162Y-104063201D01*
X137314838Y-104435167D01*
X134434839Y-104435167D01*
X134435162Y-104064833D01*
X134293117Y-103721057D01*
X134030327Y-103457808D01*
X133686799Y-103315162D01*
X133377000Y-103314892D01*
X133377000Y-101685167D01*
X133564838Y-101685167D01*
X133706883Y-102028943D01*
X133969673Y-102292192D01*
X134313201Y-102434838D01*
X134685167Y-102435162D01*
X135028943Y-102293117D01*
X135292192Y-102030327D01*
X135434838Y-101686799D01*
X135435162Y-101314833D01*
X135293117Y-100971057D01*
X135030327Y-100707808D01*
X134686799Y-100565162D01*
X134314833Y-100564838D01*
X133971057Y-100706883D01*
X133707808Y-100969673D01*
X133565162Y-101313201D01*
X133564838Y-101685167D01*
X133377000Y-101685167D01*
X133377000Y-99185167D01*
X143064838Y-99185167D01*
X143206883Y-99528943D01*
X143469673Y-99792192D01*
X143813201Y-99934838D01*
X143814838Y-99934839D01*
X143814838Y-99935167D01*
X143956883Y-100278943D01*
X144219673Y-100542192D01*
X144563201Y-100684838D01*
X144935167Y-100685162D01*
X145278943Y-100543117D01*
X145542192Y-100280327D01*
X145684838Y-99936799D01*
X145685162Y-99564833D01*
X145543117Y-99221057D01*
X145507290Y-99185167D01*
X148064838Y-99185167D01*
X148206883Y-99528943D01*
X148469673Y-99792192D01*
X148813201Y-99934838D01*
X149185167Y-99935162D01*
X149528943Y-99793117D01*
X149792192Y-99530327D01*
X149934838Y-99186799D01*
X149934839Y-99185167D01*
X183064838Y-99185167D01*
X183206883Y-99528943D01*
X183469673Y-99792192D01*
X183813201Y-99934838D01*
X184185167Y-99935162D01*
X184528943Y-99793117D01*
X184792192Y-99530327D01*
X184934838Y-99186799D01*
X184935162Y-98814833D01*
X184793117Y-98471057D01*
X184530327Y-98207808D01*
X184186799Y-98065162D01*
X183814833Y-98064838D01*
X183471057Y-98206883D01*
X183207808Y-98469673D01*
X183065162Y-98813201D01*
X183064838Y-99185167D01*
X149934839Y-99185167D01*
X149935162Y-98814833D01*
X149793117Y-98471057D01*
X149530327Y-98207808D01*
X149186799Y-98065162D01*
X148814833Y-98064838D01*
X148471057Y-98206883D01*
X148207808Y-98469673D01*
X148065162Y-98813201D01*
X148064838Y-99185167D01*
X145507290Y-99185167D01*
X145280327Y-98957808D01*
X144936799Y-98815162D01*
X144935162Y-98815161D01*
X144935162Y-98814833D01*
X144793117Y-98471057D01*
X144530327Y-98207808D01*
X144186799Y-98065162D01*
X143814833Y-98064838D01*
X143471057Y-98206883D01*
X143207808Y-98469673D01*
X143065162Y-98813201D01*
X143064838Y-99185167D01*
X133377000Y-99185167D01*
X133377000Y-96935167D01*
X134814838Y-96935167D01*
X134893293Y-97125042D01*
X134815162Y-97313201D01*
X134814838Y-97685167D01*
X134956883Y-98028943D01*
X135219673Y-98292192D01*
X135563201Y-98434838D01*
X135935167Y-98435162D01*
X136278943Y-98293117D01*
X136542192Y-98030327D01*
X136581706Y-97935167D01*
X150814838Y-97935167D01*
X150956883Y-98278943D01*
X151219673Y-98542192D01*
X151563201Y-98684838D01*
X151935167Y-98685162D01*
X152278943Y-98543117D01*
X152542192Y-98280327D01*
X152581706Y-98185167D01*
X156064838Y-98185167D01*
X156206883Y-98528943D01*
X156469673Y-98792192D01*
X156813201Y-98934838D01*
X157185167Y-98935162D01*
X157528943Y-98793117D01*
X157792192Y-98530327D01*
X157934838Y-98186799D01*
X157935162Y-97814833D01*
X157881586Y-97685167D01*
X173564838Y-97685167D01*
X173706883Y-98028943D01*
X173969673Y-98292192D01*
X174313201Y-98434838D01*
X174685167Y-98435162D01*
X175028943Y-98293117D01*
X175292192Y-98030327D01*
X175434838Y-97686799D01*
X175435162Y-97314833D01*
X175293117Y-96971057D01*
X175030327Y-96707808D01*
X174686799Y-96565162D01*
X174314833Y-96564838D01*
X173971057Y-96706883D01*
X173707808Y-96969673D01*
X173565162Y-97313201D01*
X173564838Y-97685167D01*
X157881586Y-97685167D01*
X157793117Y-97471057D01*
X157530327Y-97207808D01*
X157186799Y-97065162D01*
X156814833Y-97064838D01*
X156471057Y-97206883D01*
X156207808Y-97469673D01*
X156065162Y-97813201D01*
X156064838Y-98185167D01*
X152581706Y-98185167D01*
X152684838Y-97936799D01*
X152684929Y-97831963D01*
X152778943Y-97793117D01*
X153042192Y-97530327D01*
X153184838Y-97186799D01*
X153185162Y-96814833D01*
X153043117Y-96471057D01*
X152780327Y-96207808D01*
X152436799Y-96065162D01*
X152064833Y-96064838D01*
X151721057Y-96206883D01*
X151457808Y-96469673D01*
X151315162Y-96813201D01*
X151315071Y-96918037D01*
X151221057Y-96956883D01*
X150957808Y-97219673D01*
X150815162Y-97563201D01*
X150814838Y-97935167D01*
X136581706Y-97935167D01*
X136684838Y-97686799D01*
X136685162Y-97314833D01*
X136606707Y-97124958D01*
X136684838Y-96936799D01*
X136685162Y-96564833D01*
X136543117Y-96221057D01*
X136280327Y-95957808D01*
X135936799Y-95815162D01*
X135564833Y-95814838D01*
X135221057Y-95956883D01*
X134957808Y-96219673D01*
X134815162Y-96563201D01*
X134814838Y-96935167D01*
X133377000Y-96935167D01*
X133377000Y-95625157D01*
X141314838Y-95625157D01*
X141456883Y-95968933D01*
X141487720Y-95999824D01*
X141457808Y-96029683D01*
X141315162Y-96373211D01*
X141314838Y-96745177D01*
X141456883Y-97088953D01*
X141719673Y-97352202D01*
X142063201Y-97494848D01*
X142435167Y-97495172D01*
X142778943Y-97353127D01*
X143042192Y-97090337D01*
X143184838Y-96746809D01*
X143185162Y-96374843D01*
X143043117Y-96031067D01*
X143012280Y-96000176D01*
X143042192Y-95970317D01*
X143184838Y-95626789D01*
X143185162Y-95254823D01*
X143156381Y-95185167D01*
X155064838Y-95185167D01*
X155206883Y-95528943D01*
X155469673Y-95792192D01*
X155813201Y-95934838D01*
X156065056Y-95935057D01*
X156064838Y-96185167D01*
X156206883Y-96528943D01*
X156469673Y-96792192D01*
X156813201Y-96934838D01*
X157185167Y-96935162D01*
X157528943Y-96793117D01*
X157792192Y-96530327D01*
X157934838Y-96186799D01*
X157934839Y-96185167D01*
X162064838Y-96185167D01*
X162206883Y-96528943D01*
X162469673Y-96792192D01*
X162813201Y-96934838D01*
X163185167Y-96935162D01*
X163528943Y-96793117D01*
X163792192Y-96530327D01*
X163934838Y-96186799D01*
X163935162Y-95814833D01*
X163793117Y-95471057D01*
X163530327Y-95207808D01*
X163186799Y-95065162D01*
X162814833Y-95064838D01*
X162471057Y-95206883D01*
X162207808Y-95469673D01*
X162065162Y-95813201D01*
X162064838Y-96185167D01*
X157934839Y-96185167D01*
X157935162Y-95814833D01*
X157793117Y-95471057D01*
X157530327Y-95207808D01*
X157475802Y-95185167D01*
X158064838Y-95185167D01*
X158206883Y-95528943D01*
X158469673Y-95792192D01*
X158813201Y-95934838D01*
X159185167Y-95935162D01*
X159528943Y-95793117D01*
X159792192Y-95530327D01*
X159934838Y-95186799D01*
X159935162Y-94814833D01*
X159793117Y-94471057D01*
X159530327Y-94207808D01*
X159475802Y-94185167D01*
X160064838Y-94185167D01*
X160206883Y-94528943D01*
X160469673Y-94792192D01*
X160813201Y-94934838D01*
X161185167Y-94935162D01*
X161500351Y-94804931D01*
X161813201Y-94934838D01*
X162185167Y-94935162D01*
X162528943Y-94793117D01*
X162536906Y-94785167D01*
X178864838Y-94785167D01*
X179006883Y-95128943D01*
X179269673Y-95392192D01*
X179613201Y-95534838D01*
X179985167Y-95535162D01*
X180328943Y-95393117D01*
X180592192Y-95130327D01*
X180734838Y-94786799D01*
X180735162Y-94414833D01*
X180593117Y-94071057D01*
X180330327Y-93807808D01*
X179986799Y-93665162D01*
X179614833Y-93664838D01*
X179271057Y-93806883D01*
X179007808Y-94069673D01*
X178865162Y-94413201D01*
X178864838Y-94785167D01*
X162536906Y-94785167D01*
X162792192Y-94530327D01*
X162934838Y-94186799D01*
X162935162Y-93814833D01*
X162793117Y-93471057D01*
X162530327Y-93207808D01*
X162186799Y-93065162D01*
X161814833Y-93064838D01*
X161499649Y-93195069D01*
X161186799Y-93065162D01*
X160814833Y-93064838D01*
X160471057Y-93206883D01*
X160207808Y-93469673D01*
X160065162Y-93813201D01*
X160064838Y-94185167D01*
X159475802Y-94185167D01*
X159186799Y-94065162D01*
X158814833Y-94064838D01*
X158471057Y-94206883D01*
X158207808Y-94469673D01*
X158065162Y-94813201D01*
X158064838Y-95185167D01*
X157475802Y-95185167D01*
X157186799Y-95065162D01*
X156934944Y-95064943D01*
X156935162Y-94814833D01*
X156793117Y-94471057D01*
X156530327Y-94207808D01*
X156186799Y-94065162D01*
X155814833Y-94064838D01*
X155471057Y-94206883D01*
X155207808Y-94469673D01*
X155065162Y-94813201D01*
X155064838Y-95185167D01*
X143156381Y-95185167D01*
X143043117Y-94911047D01*
X142780327Y-94647798D01*
X142436799Y-94505152D01*
X142064833Y-94504828D01*
X141721057Y-94646873D01*
X141457808Y-94909663D01*
X141315162Y-95253191D01*
X141314838Y-95625157D01*
X133377000Y-95625157D01*
X133377000Y-94685167D01*
X136814838Y-94685167D01*
X136956883Y-95028943D01*
X137219673Y-95292192D01*
X137563201Y-95434838D01*
X137935167Y-95435162D01*
X138278943Y-95293117D01*
X138542192Y-95030327D01*
X138684838Y-94686799D01*
X138685162Y-94314833D01*
X138543117Y-93971057D01*
X138507290Y-93935167D01*
X148564838Y-93935167D01*
X148706883Y-94278943D01*
X148969673Y-94542192D01*
X149313201Y-94684838D01*
X149685167Y-94685162D01*
X150028943Y-94543117D01*
X150137081Y-94435167D01*
X153064838Y-94435167D01*
X153206883Y-94778943D01*
X153469673Y-95042192D01*
X153813201Y-95184838D01*
X154185167Y-95185162D01*
X154528943Y-95043117D01*
X154792192Y-94780327D01*
X154934838Y-94436799D01*
X154935162Y-94064833D01*
X154793117Y-93721057D01*
X154530327Y-93457808D01*
X154186799Y-93315162D01*
X153814833Y-93314838D01*
X153471057Y-93456883D01*
X153207808Y-93719673D01*
X153065162Y-94063201D01*
X153064838Y-94435167D01*
X150137081Y-94435167D01*
X150292192Y-94280327D01*
X150434838Y-93936799D01*
X150435162Y-93564833D01*
X150293117Y-93221057D01*
X150030327Y-92957808D01*
X149686799Y-92815162D01*
X149314833Y-92814838D01*
X148971057Y-92956883D01*
X148707808Y-93219673D01*
X148565162Y-93563201D01*
X148564838Y-93935167D01*
X138507290Y-93935167D01*
X138280327Y-93707808D01*
X137936799Y-93565162D01*
X137564833Y-93564838D01*
X137221057Y-93706883D01*
X136957808Y-93969673D01*
X136815162Y-94313201D01*
X136814838Y-94685167D01*
X133377000Y-94685167D01*
X133377000Y-92127000D01*
X136664889Y-92127000D01*
X136664838Y-92185167D01*
X136806883Y-92528943D01*
X137069673Y-92792192D01*
X137413201Y-92934838D01*
X137785167Y-92935162D01*
X138128943Y-92793117D01*
X138392192Y-92530327D01*
X138534838Y-92186799D01*
X138534890Y-92127000D01*
X147164389Y-92127000D01*
X146971057Y-92206883D01*
X146707808Y-92469673D01*
X146565162Y-92813201D01*
X146564838Y-93185167D01*
X146706883Y-93528943D01*
X146969673Y-93792192D01*
X147313201Y-93934838D01*
X147685167Y-93935162D01*
X148028943Y-93793117D01*
X148292192Y-93530327D01*
X148434838Y-93186799D01*
X148435162Y-92814833D01*
X148293117Y-92471057D01*
X148030327Y-92207808D01*
X147835721Y-92127000D01*
X151764889Y-92127000D01*
X151764838Y-92185167D01*
X151906883Y-92528943D01*
X152169673Y-92792192D01*
X152513201Y-92934838D01*
X152885167Y-92935162D01*
X153228943Y-92793117D01*
X153492192Y-92530327D01*
X153634838Y-92186799D01*
X153634890Y-92127000D01*
X159000000Y-92127000D01*
X159049410Y-92116994D01*
X159091035Y-92088553D01*
X159118315Y-92046159D01*
X159127000Y-92000000D01*
X159127000Y-91795231D01*
X159292192Y-91630327D01*
X159434838Y-91286799D01*
X159435162Y-90914833D01*
X159293117Y-90571057D01*
X159127000Y-90404650D01*
X159127000Y-89627000D01*
X174500000Y-89627000D01*
X174549410Y-89616994D01*
X174591035Y-89588553D01*
X174618315Y-89546159D01*
X174627000Y-89500000D01*
X174627000Y-86127000D01*
X175124960Y-86127000D01*
X174927554Y-86422439D01*
M02*
