G04 #@! TF.FileFunction,Copper,L1,Top,Signal*
%FSLAX46Y46*%
G04 Gerber Fmt 4.6, Leading zero omitted, Abs format (unit mm)*
G04 Created by KiCad (PCBNEW (2015-09-03 BZR 6154, Git 4636d8d)-product) date Tue Sep 15 00:06:25 2015*
%MOMM*%
G01*
G04 APERTURE LIST*
%ADD10C,0.100000*%
%ADD11R,0.750000X0.800000*%
%ADD12R,1.800000X0.300000*%
%ADD13R,1.800000X4.250000*%
%ADD14R,0.800000X0.750000*%
%ADD15R,3.500000X1.600000*%
%ADD16R,0.797560X0.797560*%
%ADD17R,0.500000X0.900000*%
%ADD18R,0.900000X0.500000*%
%ADD19O,1.506220X3.014980*%
%ADD20C,1.800000*%
%ADD21R,1.600000X0.760000*%
%ADD22C,0.900000*%
%ADD23R,1.000000X1.000000*%
%ADD24R,1.000000X2.200000*%
%ADD25R,0.950000X1.400000*%
%ADD26R,1.150000X0.750000*%
%ADD27R,0.350000X1.000000*%
%ADD28R,1.060000X0.650000*%
%ADD29R,0.900000X0.700000*%
%ADD30R,0.730000X0.300000*%
%ADD31R,0.300000X0.730000*%
%ADD32R,1.250000X1.250000*%
%ADD33R,0.800100X0.800100*%
%ADD34R,0.250000X0.700000*%
%ADD35R,0.700000X0.250000*%
%ADD36R,2.000000X2.500000*%
%ADD37R,1.400000X1.200000*%
%ADD38R,2.000000X1.200000*%
%ADD39R,2.100000X2.100000*%
%ADD40R,2.000000X1.000000*%
%ADD41R,1.000000X2.000000*%
%ADD42R,1.800860X0.800100*%
%ADD43C,0.600000*%
%ADD44C,0.360000*%
%ADD45C,0.800000*%
%ADD46C,0.400000*%
%ADD47C,0.200000*%
G04 APERTURE END LIST*
D10*
D11*
X122900000Y-113550000D03*
X122900000Y-115050000D03*
D12*
X154400000Y-108200000D03*
X154400000Y-107550000D03*
X154400000Y-106900000D03*
X154400000Y-106250000D03*
X154400000Y-105600000D03*
X154400000Y-104950000D03*
X154400000Y-104300000D03*
X154400000Y-103650000D03*
X154400000Y-103000000D03*
X154400000Y-102350000D03*
X154400000Y-101700000D03*
X154400000Y-101050000D03*
X154400000Y-100400000D03*
X154400000Y-99750000D03*
X154400000Y-99100000D03*
X154400000Y-98450000D03*
X154400000Y-97800000D03*
X154400000Y-97150000D03*
X154400000Y-96500000D03*
X147000000Y-96500000D03*
X147000000Y-97150000D03*
X147000000Y-97800000D03*
X147000000Y-98450000D03*
X147000000Y-99100000D03*
X147000000Y-99750000D03*
X147000000Y-100400000D03*
X147000000Y-102350000D03*
X147000000Y-103000000D03*
X147000000Y-103650000D03*
X147000000Y-104300000D03*
X147000000Y-104950000D03*
X147000000Y-105600000D03*
X147000000Y-106250000D03*
X147000000Y-107550000D03*
X147000000Y-106900000D03*
X147000000Y-108200000D03*
X147000000Y-101700000D03*
X147000000Y-101050000D03*
D13*
X104500000Y-108500000D03*
X92500000Y-108500000D03*
D11*
X117000000Y-109750000D03*
X117000000Y-108250000D03*
X117000000Y-111500000D03*
X117000000Y-113000000D03*
X129300000Y-113500000D03*
X129300000Y-115000000D03*
D14*
X127000000Y-105000000D03*
X125500000Y-105000000D03*
X123000000Y-105000000D03*
X121500000Y-105000000D03*
X117500000Y-94000000D03*
X119000000Y-94000000D03*
D11*
X128000000Y-103000000D03*
X128000000Y-101500000D03*
D14*
X124000000Y-94500000D03*
X122500000Y-94500000D03*
X124000000Y-96500000D03*
X122500000Y-96500000D03*
D11*
X131750000Y-106750000D03*
X131750000Y-105250000D03*
X134500000Y-96000000D03*
X134500000Y-97500000D03*
X133500000Y-106750000D03*
X133500000Y-105250000D03*
X130250000Y-97000000D03*
X130250000Y-98500000D03*
D14*
X137000000Y-101500000D03*
X135500000Y-101500000D03*
D11*
X156000000Y-111750000D03*
X156000000Y-113250000D03*
D14*
X181250000Y-99000000D03*
X182750000Y-99000000D03*
D11*
X182000000Y-109000000D03*
X182000000Y-107500000D03*
D15*
X177250000Y-114500000D03*
X183250000Y-114500000D03*
D11*
X180000000Y-109000000D03*
X180000000Y-107500000D03*
X141500000Y-109750000D03*
X141500000Y-111250000D03*
X184000000Y-109000000D03*
X184000000Y-107500000D03*
X139250000Y-109750000D03*
X139250000Y-111250000D03*
X148500000Y-87750000D03*
X148500000Y-86250000D03*
D14*
X140750000Y-107750000D03*
X139250000Y-107750000D03*
D11*
X151750000Y-115000000D03*
X151750000Y-113500000D03*
X147750000Y-115000000D03*
X147750000Y-113500000D03*
D16*
X169498600Y-97500000D03*
X168000000Y-97500000D03*
D17*
X119000000Y-109500000D03*
X120500000Y-109500000D03*
X137000000Y-99750000D03*
X135500000Y-99750000D03*
D18*
X154250000Y-111750000D03*
X154250000Y-113250000D03*
X171000000Y-112250000D03*
X171000000Y-113750000D03*
X144000000Y-109750000D03*
X144000000Y-111250000D03*
D19*
X181290000Y-87750000D03*
X178750000Y-87750000D03*
X176210000Y-87750000D03*
X167250000Y-115250000D03*
X164710000Y-115250000D03*
X162170000Y-115250000D03*
D20*
X188800000Y-95000000D03*
X188800000Y-108600000D03*
D21*
X170960000Y-100805000D03*
X170960000Y-102075000D03*
X170960000Y-103345000D03*
X170960000Y-104615000D03*
X170960000Y-105885000D03*
X170960000Y-107155000D03*
X170960000Y-108425000D03*
X176040000Y-108425000D03*
X176040000Y-107155000D03*
X176040000Y-105885000D03*
X176040000Y-104615000D03*
X176040000Y-103345000D03*
X176040000Y-102075000D03*
X176040000Y-109695000D03*
X170960000Y-109695000D03*
X176040000Y-100805000D03*
D22*
X164190000Y-86500000D03*
X165460000Y-86500000D03*
X166730000Y-86500000D03*
X168000000Y-86500000D03*
X169270000Y-86500000D03*
X170540000Y-86500000D03*
D23*
X117000000Y-103500000D03*
D24*
X115500000Y-102000000D03*
X118500000Y-102000000D03*
D18*
X127500000Y-115000000D03*
X127500000Y-113500000D03*
X178000000Y-94950000D03*
X178000000Y-93450000D03*
D17*
X171500000Y-97500000D03*
X173000000Y-97500000D03*
D18*
X163000000Y-90500000D03*
X163000000Y-92000000D03*
X160750000Y-90500000D03*
X160750000Y-92000000D03*
X170500000Y-90500000D03*
X170500000Y-92000000D03*
X172500000Y-90500000D03*
X172500000Y-92000000D03*
X165500000Y-90500000D03*
X165500000Y-92000000D03*
X145750000Y-86250000D03*
X145750000Y-87750000D03*
D17*
X111750000Y-108500000D03*
X110250000Y-108500000D03*
D18*
X117000000Y-106750000D03*
X117000000Y-105250000D03*
X113500000Y-105250000D03*
X113500000Y-106750000D03*
D17*
X115000000Y-108500000D03*
X113500000Y-108500000D03*
D25*
X179900000Y-102500000D03*
X184100000Y-102500000D03*
D26*
X180400000Y-100900000D03*
X183600000Y-104100000D03*
X183600000Y-100900000D03*
X180400000Y-104100000D03*
D25*
X143350000Y-87750000D03*
X139150000Y-87750000D03*
D26*
X142850000Y-89350000D03*
X139650000Y-86150000D03*
X139650000Y-89350000D03*
X142850000Y-86150000D03*
D27*
X122000000Y-109500000D03*
X122650000Y-109500000D03*
X123300000Y-109500000D03*
X123300000Y-107700000D03*
X122650000Y-107700000D03*
X122000000Y-107700000D03*
D28*
X115400000Y-96050000D03*
X115400000Y-97000000D03*
X115400000Y-97950000D03*
X117600000Y-97950000D03*
X117600000Y-96050000D03*
D29*
X124500000Y-99500000D03*
X124500000Y-101500000D03*
X125900000Y-101500000D03*
X125900000Y-99500000D03*
D30*
X129715000Y-109750000D03*
X129715000Y-109250000D03*
X129715000Y-108750000D03*
X129715000Y-108250000D03*
X129715000Y-107750000D03*
D31*
X128750000Y-106785000D03*
X128250000Y-106785000D03*
X127750000Y-106785000D03*
X127250000Y-106785000D03*
X126750000Y-106785000D03*
D30*
X125785000Y-107750000D03*
X125785000Y-108250000D03*
X125785000Y-108750000D03*
X125785000Y-109250000D03*
X125785000Y-109750000D03*
D31*
X126750000Y-110715000D03*
X127250000Y-110715000D03*
X127750000Y-110715000D03*
X128250000Y-110715000D03*
X128750000Y-110715000D03*
D32*
X127125000Y-108125000D03*
X127125000Y-109375000D03*
X128375000Y-108125000D03*
X128375000Y-109375000D03*
D33*
X125949240Y-96050000D03*
X125949240Y-97950000D03*
X127948220Y-97000000D03*
D34*
X138500000Y-95250000D03*
X138000000Y-95250000D03*
X137500000Y-95250000D03*
X137000000Y-95250000D03*
D35*
X136750000Y-96000000D03*
X136750000Y-96500000D03*
X136750000Y-97000000D03*
X138750000Y-96000000D03*
X138750000Y-96500000D03*
X138750000Y-97000000D03*
D34*
X137000000Y-97750000D03*
X137500000Y-97750000D03*
X138000000Y-97750000D03*
X138500000Y-97750000D03*
D36*
X151750000Y-111000000D03*
X147750000Y-111000000D03*
D11*
X124900000Y-113600000D03*
X124900000Y-115100000D03*
D37*
X134000000Y-92000000D03*
D38*
X136000000Y-92000000D03*
X132000000Y-92000000D03*
X136000000Y-117000000D03*
D37*
X134000000Y-117000000D03*
D38*
X132000000Y-117000000D03*
D39*
X109500000Y-92500000D03*
X109500000Y-116500000D03*
X158500000Y-116500000D03*
X158500000Y-92500000D03*
D40*
X113500000Y-92000000D03*
X113500000Y-117000000D03*
X154500000Y-117000000D03*
X154500000Y-92000000D03*
D41*
X109000000Y-96500000D03*
X109000000Y-112500000D03*
X159000000Y-112500000D03*
X159000000Y-96500000D03*
D42*
X181200000Y-94600000D03*
X181200000Y-96500000D03*
X184202280Y-95550000D03*
D43*
X185500000Y-114500000D03*
X179800000Y-94600000D03*
X159000000Y-95000000D03*
X107900000Y-92500000D03*
X130200000Y-92000000D03*
X134000000Y-90800000D03*
X137600000Y-92000000D03*
X158500000Y-91100000D03*
X152700000Y-92000000D03*
X159000000Y-110800000D03*
X158500000Y-114900000D03*
X152700000Y-117000000D03*
X136000000Y-115800000D03*
X134000000Y-115800000D03*
X132000000Y-115800000D03*
X109500000Y-114650000D03*
X111800000Y-117000000D03*
X109000000Y-110800000D03*
X115400000Y-92000000D03*
X109000000Y-98300000D03*
X149750000Y-86250000D03*
X138000000Y-88000000D03*
X138000000Y-107750000D03*
X134500000Y-101500000D03*
X135750000Y-97500000D03*
X137750000Y-94500000D03*
X135750000Y-96750000D03*
X156000000Y-114500000D03*
X128375000Y-108125000D03*
X127125000Y-109375000D03*
X127125000Y-108125000D03*
X128375000Y-109375000D03*
X126000000Y-95000000D03*
X121250000Y-94500000D03*
X121250000Y-96500000D03*
X131750000Y-98500000D03*
X123250000Y-99500000D03*
X123250000Y-101500000D03*
X120000000Y-94000000D03*
X114250000Y-97000000D03*
X139250000Y-112250000D03*
X141500000Y-112250000D03*
X148450000Y-104950000D03*
X148500000Y-108000000D03*
X184000000Y-106500000D03*
X182000000Y-106500000D03*
X180000000Y-106500000D03*
X174500000Y-97500000D03*
X185371311Y-102500000D03*
X184000000Y-99000000D03*
X174500000Y-101000000D03*
X174575000Y-102075000D03*
X174655000Y-103345000D03*
X174615000Y-104615000D03*
X174615000Y-105885000D03*
X174655000Y-107155000D03*
X174575000Y-108425000D03*
X152600000Y-106900000D03*
X150250000Y-115000000D03*
X149250000Y-115000000D03*
X113500000Y-104500000D03*
X115630029Y-113000000D03*
X118500000Y-100000000D03*
X115500000Y-100000000D03*
X124900000Y-116100000D03*
X122900000Y-116100000D03*
X129300000Y-115900000D03*
X133500000Y-104250000D03*
X130592511Y-105250000D03*
X125500000Y-104000000D03*
X127500000Y-115750000D03*
X120500000Y-105000000D03*
X122650000Y-110850000D03*
X122000000Y-106500000D03*
X123000000Y-106500000D03*
X175000000Y-114500000D03*
X123000000Y-103500000D03*
X121850000Y-113550000D03*
X126000000Y-113600000D03*
X130300000Y-113500000D03*
X133000000Y-96000000D03*
X134500000Y-99750000D03*
X154250000Y-114500000D03*
X116250000Y-94000000D03*
X134500000Y-106750000D03*
X144000000Y-112250000D03*
X145750000Y-85250000D03*
X166750000Y-92000000D03*
X184000000Y-110000000D03*
X182000000Y-110000000D03*
X180000000Y-110000000D03*
X171000000Y-115000000D03*
X147500000Y-93000000D03*
X151750000Y-97750000D03*
X163000000Y-96000000D03*
X157000000Y-98000000D03*
X169000000Y-100750000D03*
X152000000Y-101000000D03*
X161000000Y-86000000D03*
X156000000Y-95000000D03*
X162000000Y-94000000D03*
X154000000Y-94250000D03*
X161000000Y-94000000D03*
X157000000Y-96000000D03*
X145000000Y-106750000D03*
X112500000Y-96750000D03*
X113750000Y-98500000D03*
X148750000Y-106250000D03*
X119000000Y-98000000D03*
X145000000Y-108250000D03*
X144750000Y-99750000D03*
X142990870Y-100750000D03*
X141250000Y-104250000D03*
X138250000Y-104250000D03*
X140000000Y-102250000D03*
X142500000Y-102250000D03*
X142250000Y-95439990D03*
X142250000Y-96560010D03*
X152250000Y-97000000D03*
X149500000Y-93750000D03*
X149000000Y-99000000D03*
X144000000Y-99000000D03*
X149000000Y-103000000D03*
X138750000Y-103500000D03*
D44*
X110250000Y-108500000D02*
X104500000Y-108500000D01*
D45*
X183250000Y-114500000D02*
X185500000Y-114500000D01*
X181200000Y-94600000D02*
X179800000Y-94600000D01*
D46*
X159000000Y-96500000D02*
X159000000Y-95000000D01*
X159000000Y-96500000D02*
X159000000Y-96000000D01*
D45*
X109500000Y-92500000D02*
X107900000Y-92500000D01*
X132000000Y-92000000D02*
X130200000Y-92000000D01*
X134000000Y-92000000D02*
X134000000Y-90800000D01*
X136000000Y-92000000D02*
X137600000Y-92000000D01*
X158500000Y-92500000D02*
X158500000Y-91100000D01*
X154500000Y-92000000D02*
X152700000Y-92000000D01*
X159000000Y-112500000D02*
X159000000Y-110800000D01*
X158500000Y-116500000D02*
X158500000Y-114900000D01*
X154500000Y-117000000D02*
X152700000Y-117000000D01*
X136000000Y-117000000D02*
X136000000Y-115800000D01*
X134000000Y-117000000D02*
X134000000Y-115800000D01*
X132000000Y-117000000D02*
X132000000Y-115800000D01*
X109450000Y-114600000D02*
X109500000Y-114650000D01*
X109500000Y-116500000D02*
X109500000Y-114650000D01*
X113500000Y-117000000D02*
X111800000Y-117000000D01*
X109000000Y-112500000D02*
X109000000Y-110800000D01*
X113500000Y-92000000D02*
X115400000Y-92000000D01*
X109000000Y-96500000D02*
X109000000Y-98300000D01*
D44*
X148500000Y-86250000D02*
X149750000Y-86250000D01*
D46*
X138250000Y-87750000D02*
X138000000Y-88000000D01*
X139150000Y-87750000D02*
X138250000Y-87750000D01*
D44*
X139250000Y-107750000D02*
X138000000Y-107750000D01*
D47*
X134900000Y-101500000D02*
X134500000Y-101500000D01*
X135500000Y-101500000D02*
X134900000Y-101500000D01*
X134500000Y-97500000D02*
X135750000Y-97500000D01*
X138000000Y-95250000D02*
X138000000Y-94750000D01*
X138000000Y-94750000D02*
X137750000Y-94500000D01*
X137500000Y-95250000D02*
X137500000Y-94750000D01*
X137500000Y-94750000D02*
X137750000Y-94500000D01*
X136000000Y-96800000D02*
X135800000Y-96800000D01*
X135800000Y-96800000D02*
X135750000Y-96750000D01*
X136750000Y-97000000D02*
X136200000Y-97000000D01*
X136200000Y-97000000D02*
X136000000Y-96800000D01*
X135950000Y-96750000D02*
X135750000Y-96750000D01*
X136750000Y-96500000D02*
X136200000Y-96500000D01*
X136200000Y-96500000D02*
X135950000Y-96750000D01*
D44*
X156000000Y-113250000D02*
X156000000Y-114500000D01*
X151750000Y-115000000D02*
X150250000Y-115000000D01*
X147750000Y-115000000D02*
X149250000Y-115000000D01*
X127125000Y-109375000D02*
X128375000Y-108125000D01*
X128375000Y-108125000D02*
X127125000Y-108125000D01*
X127125000Y-108125000D02*
X128375000Y-109375000D01*
X126000000Y-95239190D02*
X126000000Y-95000000D01*
X125949240Y-96050000D02*
X125949240Y-95289950D01*
X125949240Y-95289950D02*
X126000000Y-95239190D01*
X122500000Y-94500000D02*
X121250000Y-94500000D01*
X122500000Y-96500000D02*
X121250000Y-96500000D01*
X130250000Y-98500000D02*
X131750000Y-98500000D01*
X124500000Y-99500000D02*
X123250000Y-99500000D01*
X124500000Y-101500000D02*
X123250000Y-101500000D01*
X119000000Y-94000000D02*
X120000000Y-94000000D01*
X114510000Y-97000000D02*
X114250000Y-97000000D01*
X115400000Y-97000000D02*
X114510000Y-97000000D01*
X139250000Y-112010000D02*
X139250000Y-112250000D01*
X139250000Y-111250000D02*
X139250000Y-112010000D01*
X141500000Y-111250000D02*
X141500000Y-112250000D01*
X147000000Y-104950000D02*
X148450000Y-104950000D01*
X148300000Y-108200000D02*
X148500000Y-108000000D01*
X147000000Y-108200000D02*
X148300000Y-108200000D01*
D45*
X184000000Y-107500000D02*
X184000000Y-106500000D01*
X182000000Y-107500000D02*
X182000000Y-106500000D01*
X180000000Y-107500000D02*
X180000000Y-106500000D01*
D44*
X173000000Y-97500000D02*
X174500000Y-97500000D01*
X184100000Y-102500000D02*
X185371311Y-102500000D01*
X185500000Y-102500000D02*
X185371311Y-102500000D01*
X182750000Y-99000000D02*
X184000000Y-99000000D01*
D45*
X174805000Y-100805000D02*
X174610000Y-101000000D01*
X174610000Y-101000000D02*
X174500000Y-101000000D01*
X176040000Y-100805000D02*
X174805000Y-100805000D01*
X176040000Y-102075000D02*
X174575000Y-102075000D01*
X176040000Y-103345000D02*
X174655000Y-103345000D01*
X176040000Y-104615000D02*
X174615000Y-104615000D01*
X176040000Y-105885000D02*
X174615000Y-105885000D01*
X176040000Y-107155000D02*
X174655000Y-107155000D01*
X176040000Y-108425000D02*
X174575000Y-108425000D01*
D46*
X154400000Y-106900000D02*
X152600000Y-106900000D01*
D44*
X113500000Y-105250000D02*
X113500000Y-104500000D01*
X117000000Y-113000000D02*
X115630029Y-113000000D01*
X115500000Y-113000000D02*
X115630029Y-113000000D01*
X118500000Y-100540000D02*
X118500000Y-100000000D01*
X118500000Y-102000000D02*
X118500000Y-100540000D01*
X115500000Y-102000000D02*
X115500000Y-100000000D01*
D47*
X124900000Y-115100000D02*
X124900000Y-116100000D01*
X122900000Y-115050000D02*
X122900000Y-116100000D01*
X129300000Y-115000000D02*
X129300000Y-115900000D01*
X133500000Y-105250000D02*
X133500000Y-104250000D01*
X131750000Y-105250000D02*
X130592511Y-105250000D01*
X130500000Y-105250000D02*
X130592511Y-105250000D01*
X125500000Y-104425000D02*
X125500000Y-104000000D01*
X125500000Y-105000000D02*
X125500000Y-104425000D01*
X127500000Y-115000000D02*
X127500000Y-115750000D01*
X128250000Y-110715000D02*
X128250000Y-109500000D01*
X128250000Y-109500000D02*
X128375000Y-109375000D01*
X127125000Y-109625000D02*
X126750000Y-110000000D01*
X126750000Y-110000000D02*
X126750000Y-110715000D01*
X127125000Y-109375000D02*
X127125000Y-109625000D01*
D46*
X121500000Y-105000000D02*
X120500000Y-105000000D01*
D47*
X122650000Y-109500000D02*
X122650000Y-110850000D01*
X122000000Y-107700000D02*
X122000000Y-106500000D01*
X123000000Y-106650000D02*
X123000000Y-106500000D01*
X122650000Y-107700000D02*
X122650000Y-107000000D01*
X122650000Y-107000000D02*
X123000000Y-106650000D01*
D44*
X117000000Y-109750000D02*
X117000000Y-111500000D01*
X117750000Y-109750000D02*
X118000000Y-109500000D01*
X118000000Y-109500000D02*
X119000000Y-109500000D01*
X117000000Y-109750000D02*
X117750000Y-109750000D01*
X117000000Y-108250000D02*
X117000000Y-106750000D01*
X115700000Y-108500000D02*
X115950000Y-108250000D01*
X115950000Y-108250000D02*
X117000000Y-108250000D01*
X115000000Y-108500000D02*
X115700000Y-108500000D01*
D45*
X177250000Y-114500000D02*
X175000000Y-114500000D01*
D44*
X123066560Y-103250000D02*
X121750000Y-103250000D01*
X123250000Y-103250000D02*
X123066560Y-103250000D01*
D45*
X123066560Y-103250000D02*
X123066560Y-103433440D01*
X123066560Y-103433440D02*
X123000000Y-103500000D01*
X122900000Y-113550000D02*
X121850000Y-113550000D01*
X124900000Y-113600000D02*
X126000000Y-113600000D01*
X129300000Y-113500000D02*
X130300000Y-113500000D01*
D47*
X125785000Y-109750000D02*
X125220000Y-109750000D01*
X125220000Y-109750000D02*
X124900000Y-110070000D01*
X124900000Y-110070000D02*
X124900000Y-113000000D01*
X124900000Y-113000000D02*
X124900000Y-113600000D01*
X125785000Y-109250000D02*
X125220000Y-109250000D01*
X125220000Y-109250000D02*
X122900000Y-111570000D01*
X122900000Y-111570000D02*
X122900000Y-112950000D01*
X122900000Y-112950000D02*
X122900000Y-113550000D01*
X127750000Y-110715000D02*
X127750000Y-111550000D01*
X129000000Y-112200000D02*
X129300000Y-112500000D01*
X129300000Y-112500000D02*
X129300000Y-113500000D01*
X128400000Y-112200000D02*
X129000000Y-112200000D01*
X127750000Y-111550000D02*
X128400000Y-112200000D01*
D44*
X134500000Y-96000000D02*
X133000000Y-96000000D01*
D47*
X135050000Y-99750000D02*
X134500000Y-99750000D01*
X135500000Y-99750000D02*
X135050000Y-99750000D01*
X136750000Y-96000000D02*
X134500000Y-96000000D01*
D44*
X154250000Y-113250000D02*
X154250000Y-114500000D01*
X121000000Y-98250000D02*
X118800000Y-96050000D01*
X118800000Y-96050000D02*
X117600000Y-96050000D01*
X121000000Y-102500000D02*
X121000000Y-98250000D01*
X121750000Y-103250000D02*
X121000000Y-102500000D01*
X127000000Y-105000000D02*
X127000000Y-104265000D01*
X123250000Y-103250000D02*
X123000000Y-103500000D01*
X127000000Y-104265000D02*
X125985000Y-103250000D01*
X125985000Y-103250000D02*
X123250000Y-103250000D01*
X123000000Y-103500000D02*
X123000000Y-104265000D01*
X123000000Y-104265000D02*
X123000000Y-105000000D01*
X116740000Y-94000000D02*
X116250000Y-94000000D01*
X117500000Y-94000000D02*
X116740000Y-94000000D01*
X117600000Y-96050000D02*
X117600000Y-94100000D01*
X117600000Y-94100000D02*
X117500000Y-94000000D01*
X134235000Y-106750000D02*
X134500000Y-106750000D01*
X133500000Y-106750000D02*
X134235000Y-106750000D01*
X144000000Y-111250000D02*
X144000000Y-112250000D01*
X145750000Y-86250000D02*
X145750000Y-85250000D01*
X165500000Y-92000000D02*
X166750000Y-92000000D01*
D45*
X184000000Y-109000000D02*
X184000000Y-110000000D01*
X182000000Y-109000000D02*
X182000000Y-110000000D01*
X180000000Y-109000000D02*
X180000000Y-110000000D01*
X171000000Y-113750000D02*
X171000000Y-115000000D01*
D47*
X129300000Y-113500000D02*
X129300000Y-113525000D01*
X132750000Y-108250000D02*
X133500000Y-107500000D01*
X133500000Y-107500000D02*
X133500000Y-106750000D01*
X129715000Y-108250000D02*
X132750000Y-108250000D01*
X127250000Y-105825000D02*
X127250000Y-106785000D01*
X127000000Y-105000000D02*
X127000000Y-105575000D01*
X127000000Y-105575000D02*
X127250000Y-105825000D01*
X125000000Y-107500000D02*
X125000000Y-107530000D01*
X125000000Y-107530000D02*
X125220000Y-107750000D01*
X125220000Y-107750000D02*
X125785000Y-107750000D01*
X124500000Y-107000000D02*
X125000000Y-107500000D01*
X124500000Y-105900000D02*
X124500000Y-107000000D01*
X123000000Y-105000000D02*
X123600000Y-105000000D01*
X123600000Y-105000000D02*
X124500000Y-105900000D01*
X128000000Y-104250000D02*
X128000000Y-103000000D01*
X128000000Y-105750000D02*
X128000000Y-104250000D01*
X127750000Y-106000000D02*
X128000000Y-105750000D01*
X127750000Y-106785000D02*
X127750000Y-106000000D01*
D44*
X125900000Y-101500000D02*
X128000000Y-101500000D01*
X124000000Y-96500000D02*
X124000000Y-94500000D01*
X124250000Y-98000000D02*
X124000000Y-97750000D01*
X124000000Y-97750000D02*
X124000000Y-96500000D01*
X125139190Y-98000000D02*
X124250000Y-98000000D01*
X125949240Y-97950000D02*
X125189190Y-97950000D01*
X125189190Y-97950000D02*
X125139190Y-98000000D01*
X125949240Y-97950000D02*
X125949240Y-99450760D01*
X125949240Y-99450760D02*
X125900000Y-99500000D01*
D47*
X129715000Y-107750000D02*
X131350000Y-107750000D01*
X131750000Y-107350000D02*
X131750000Y-106750000D01*
X131350000Y-107750000D02*
X131750000Y-107350000D01*
X131000000Y-95000000D02*
X130250000Y-95750000D01*
X130250000Y-95750000D02*
X130250000Y-97000000D01*
X135912067Y-95000000D02*
X131000000Y-95000000D01*
X147500000Y-93000000D02*
X137912067Y-93000000D01*
X137912067Y-93000000D02*
X135912067Y-95000000D01*
X151950000Y-97750000D02*
X151750000Y-97750000D01*
X154400000Y-99100000D02*
X153300000Y-99100000D01*
X153300000Y-99100000D02*
X151950000Y-97750000D01*
D44*
X127948220Y-97000000D02*
X130250000Y-97000000D01*
D47*
X137000000Y-101500000D02*
X137000000Y-99750000D01*
X137000000Y-97750000D02*
X137000000Y-99750000D01*
D44*
X163000000Y-96000000D02*
X177500000Y-96000000D01*
D47*
X156800000Y-97800000D02*
X157000000Y-98000000D01*
X154400000Y-97800000D02*
X156800000Y-97800000D01*
D44*
X178438455Y-96938455D02*
X178438455Y-99000000D01*
X177500000Y-96000000D02*
X178438455Y-96938455D01*
X178438455Y-99000000D02*
X181250000Y-99000000D01*
X179000000Y-102500000D02*
X178438455Y-101938455D01*
X178438455Y-101938455D02*
X178438455Y-99000000D01*
X179900000Y-102500000D02*
X179000000Y-102500000D01*
X141500000Y-109750000D02*
X144000000Y-109750000D01*
X139250000Y-109750000D02*
X141500000Y-109750000D01*
X144400000Y-105600000D02*
X144000000Y-106000000D01*
X144000000Y-106000000D02*
X144000000Y-109750000D01*
X147000000Y-105600000D02*
X144400000Y-105600000D01*
D46*
X154250000Y-87750000D02*
X151049894Y-87750000D01*
X151049894Y-87750000D02*
X148500000Y-87750000D01*
D47*
X151000000Y-87799894D02*
X151049894Y-87750000D01*
X151000000Y-93078802D02*
X151000000Y-87799894D01*
X146200000Y-95000000D02*
X149078802Y-95000000D01*
X149078802Y-95000000D02*
X151000000Y-93078802D01*
X145100000Y-96100000D02*
X146200000Y-95000000D01*
X145100000Y-97000000D02*
X145100000Y-96100000D01*
X147000000Y-97800000D02*
X145900000Y-97800000D01*
X145900000Y-97800000D02*
X145100000Y-97000000D01*
D46*
X157500000Y-84500000D02*
X154250000Y-87750000D01*
X161500000Y-84500000D02*
X157500000Y-84500000D01*
D44*
X145750000Y-87750000D02*
X148500000Y-87750000D01*
X143350000Y-87750000D02*
X145750000Y-87750000D01*
X167000000Y-84500000D02*
X168000000Y-85500000D01*
X161500000Y-84500000D02*
X167000000Y-84500000D01*
X168000000Y-85500000D02*
X168000000Y-86500000D01*
X147000000Y-104300000D02*
X144450000Y-104300000D01*
X143000000Y-107000000D02*
X142250000Y-107750000D01*
X144450000Y-104300000D02*
X143000000Y-105750000D01*
X143000000Y-105750000D02*
X143000000Y-107000000D01*
X142250000Y-107750000D02*
X140750000Y-107750000D01*
X154400000Y-107550000D02*
X155800000Y-107550000D01*
X155800000Y-107550000D02*
X156000000Y-107750000D01*
X156000000Y-107750000D02*
X156000000Y-108500000D01*
X154500000Y-110000000D02*
X152750000Y-110000000D01*
X156000000Y-108500000D02*
X154500000Y-110000000D01*
X152750000Y-110000000D02*
X151750000Y-111000000D01*
X151750000Y-111000000D02*
X151750000Y-113500000D01*
X150500000Y-109000000D02*
X151300000Y-108200000D01*
X151300000Y-108200000D02*
X154400000Y-108200000D01*
X148140000Y-109000000D02*
X150500000Y-109000000D01*
X147750000Y-111000000D02*
X147750000Y-109390000D01*
X147750000Y-109390000D02*
X148140000Y-109000000D01*
X147750000Y-113500000D02*
X147750000Y-111000000D01*
X169498600Y-97500000D02*
X171500000Y-97500000D01*
D47*
X157950000Y-98950000D02*
X158000000Y-99000000D01*
X158000000Y-99000000D02*
X158500000Y-99000000D01*
X158500000Y-99000000D02*
X159000000Y-98500000D01*
X156000000Y-98950000D02*
X157950000Y-98950000D01*
X154400000Y-98450000D02*
X155500000Y-98450000D01*
X155500000Y-98450000D02*
X156000000Y-98950000D01*
D44*
X168000000Y-97500000D02*
X160000000Y-97500000D01*
X160000000Y-97500000D02*
X159000000Y-98500000D01*
X159000000Y-98500000D02*
X158950000Y-98450000D01*
X120500000Y-109500000D02*
X122000000Y-109500000D01*
D45*
X170960000Y-109695000D02*
X170960000Y-112210000D01*
X170960000Y-112210000D02*
X171000000Y-112250000D01*
X187462831Y-93662831D02*
X188800000Y-95000000D01*
X178000000Y-93450000D02*
X187250000Y-93450000D01*
X187250000Y-93450000D02*
X187462831Y-93662831D01*
X178000000Y-93450000D02*
X178000000Y-91250000D01*
X178000000Y-91250000D02*
X178750000Y-90500000D01*
X178750000Y-90500000D02*
X178750000Y-87750000D01*
X179499570Y-96500000D02*
X179499570Y-96249570D01*
X179499570Y-96249570D02*
X178200000Y-94950000D01*
X178200000Y-94950000D02*
X178000000Y-94950000D01*
X176210000Y-87750000D02*
X176210000Y-94410000D01*
X176750000Y-94950000D02*
X178000000Y-94950000D01*
X176210000Y-94410000D02*
X176750000Y-94950000D01*
X181200000Y-96500000D02*
X179499570Y-96500000D01*
D44*
X154400000Y-104950000D02*
X157685404Y-104950000D01*
X157685404Y-104950000D02*
X164710000Y-111974596D01*
X164710000Y-111974596D02*
X164710000Y-115250000D01*
X154400000Y-105600000D02*
X157600000Y-105600000D01*
X157600000Y-105600000D02*
X162170000Y-110170000D01*
X162170000Y-110170000D02*
X162170000Y-115250000D01*
X157650000Y-103650000D02*
X162425000Y-108425000D01*
X162425000Y-108425000D02*
X170960000Y-108425000D01*
X154400000Y-103650000D02*
X157650000Y-103650000D01*
X162500000Y-107500000D02*
X158000000Y-103000000D01*
X158000000Y-103000000D02*
X154400000Y-103000000D01*
X169455000Y-107500000D02*
X162500000Y-107500000D01*
X170960000Y-107155000D02*
X169800000Y-107155000D01*
X169800000Y-107155000D02*
X169455000Y-107500000D01*
X158350000Y-102350000D02*
X161885000Y-105885000D01*
X161885000Y-105885000D02*
X170960000Y-105885000D01*
X154400000Y-102350000D02*
X158350000Y-102350000D01*
X161615000Y-104615000D02*
X159000000Y-102000000D01*
X159000000Y-102000000D02*
X158735405Y-102000000D01*
X158435405Y-101700000D02*
X155660000Y-101700000D01*
X155660000Y-101700000D02*
X154400000Y-101700000D01*
X158735405Y-102000000D02*
X158435405Y-101700000D01*
X170960000Y-104615000D02*
X161615000Y-104615000D01*
X154400000Y-100400000D02*
X158100000Y-100400000D01*
X158100000Y-100400000D02*
X160000000Y-98500000D01*
X160000000Y-98500000D02*
X164500000Y-98500000D01*
X164500000Y-98500000D02*
X168075000Y-102075000D01*
X168075000Y-102075000D02*
X170960000Y-102075000D01*
X169000000Y-100750000D02*
X170905000Y-100750000D01*
X170905000Y-100750000D02*
X170960000Y-100805000D01*
X150950000Y-101050000D02*
X151000000Y-101000000D01*
X151000000Y-101000000D02*
X152000000Y-101000000D01*
X147000000Y-101050000D02*
X150950000Y-101050000D01*
X154400000Y-101050000D02*
X155660000Y-101050000D01*
X155660000Y-101050000D02*
X155710000Y-101000000D01*
X155710000Y-101000000D02*
X158500000Y-101000000D01*
X169800000Y-103345000D02*
X170960000Y-103345000D01*
X158500000Y-101000000D02*
X160259999Y-99240001D01*
X160259999Y-99240001D02*
X164240001Y-99240001D01*
X164240001Y-99240001D02*
X168500000Y-103500000D01*
X168500000Y-103500000D02*
X169645000Y-103500000D01*
X169645000Y-103500000D02*
X169800000Y-103345000D01*
X160750000Y-90500000D02*
X163000000Y-90500000D01*
X163740001Y-87009999D02*
X163000000Y-87750000D01*
X163000000Y-87750000D02*
X163000000Y-90500000D01*
X164190000Y-86500000D02*
X163740001Y-86949999D01*
X163740001Y-86949999D02*
X163740001Y-87009999D01*
X165460000Y-86500000D02*
X165460000Y-90460000D01*
X165460000Y-90460000D02*
X165500000Y-90500000D01*
D46*
X161750000Y-85250000D02*
X161000000Y-86000000D01*
X162250000Y-85250000D02*
X161750000Y-85250000D01*
D47*
X153000000Y-95000000D02*
X156000000Y-95000000D01*
X150850000Y-97150000D02*
X153000000Y-95000000D01*
X147000000Y-97150000D02*
X150850000Y-97150000D01*
D44*
X163250000Y-85250000D02*
X162250000Y-85250000D01*
X166500000Y-85250000D02*
X163250000Y-85250000D01*
X166730000Y-85480000D02*
X166500000Y-85250000D01*
X166730000Y-86500000D02*
X166730000Y-85480000D01*
X170500000Y-90500000D02*
X172500000Y-90500000D01*
X170540000Y-86500000D02*
X170540000Y-90460000D01*
X170540000Y-90460000D02*
X170500000Y-90500000D01*
X117000000Y-103500000D02*
X117000000Y-105250000D01*
D47*
X127250000Y-110715000D02*
X127250000Y-113250000D01*
X127250000Y-113250000D02*
X127500000Y-113500000D01*
D44*
X162250000Y-94250000D02*
X162000000Y-94000000D01*
X162998081Y-94250000D02*
X162250000Y-94250000D01*
X153750000Y-94250000D02*
X154000000Y-94250000D01*
X151500000Y-94250000D02*
X153750000Y-94250000D01*
X169750000Y-94250000D02*
X162998081Y-94250000D01*
X163000000Y-92000000D02*
X163000000Y-92610000D01*
X162998081Y-92611919D02*
X162998081Y-94250000D01*
X163000000Y-92610000D02*
X162998081Y-92611919D01*
X170500000Y-92000000D02*
X170500000Y-93500000D01*
X170500000Y-93500000D02*
X169750000Y-94250000D01*
X149250000Y-96500000D02*
X147000000Y-96500000D01*
X151500000Y-94250000D02*
X149250000Y-96500000D01*
X162000000Y-95000000D02*
X161000000Y-94000000D01*
X171000000Y-95000000D02*
X162000000Y-95000000D01*
X161000000Y-94000000D02*
X161000000Y-92250000D01*
X161000000Y-92250000D02*
X160750000Y-92000000D01*
D47*
X156500000Y-96500000D02*
X157000000Y-96000000D01*
X154400000Y-96500000D02*
X156500000Y-96500000D01*
D44*
X172500000Y-93500000D02*
X171000000Y-95000000D01*
X172500000Y-92000000D02*
X172500000Y-93500000D01*
X113500000Y-108500000D02*
X113500000Y-106750000D01*
X111750000Y-108500000D02*
X113500000Y-108500000D01*
D47*
X124335000Y-109000000D02*
X124500000Y-109000000D01*
X124500000Y-109000000D02*
X124750000Y-108750000D01*
X124750000Y-108750000D02*
X125220000Y-108750000D01*
X125220000Y-108750000D02*
X125785000Y-108750000D01*
D44*
X123300000Y-109500000D02*
X123835000Y-109500000D01*
X123835000Y-109500000D02*
X124335000Y-109000000D01*
D47*
X125785000Y-108250000D02*
X125220000Y-108250000D01*
X125220000Y-108250000D02*
X124385000Y-108250000D01*
D44*
X123300000Y-107700000D02*
X123835000Y-107700000D01*
X123835000Y-107700000D02*
X124385000Y-108250000D01*
X147000000Y-106900000D02*
X145150000Y-106900000D01*
X145150000Y-106900000D02*
X145000000Y-106750000D01*
X114460000Y-96000000D02*
X113250000Y-96000000D01*
X113250000Y-96000000D02*
X112500000Y-96750000D01*
X115400000Y-96050000D02*
X114510000Y-96050000D01*
X114510000Y-96050000D02*
X114460000Y-96000000D01*
X114460000Y-98000000D02*
X114250000Y-98000000D01*
X114250000Y-98000000D02*
X113750000Y-98500000D01*
X115400000Y-97950000D02*
X114510000Y-97950000D01*
X114510000Y-97950000D02*
X114460000Y-98000000D01*
X147750000Y-106250000D02*
X148750000Y-106250000D01*
X147000000Y-106250000D02*
X147750000Y-106250000D01*
X119000000Y-98000000D02*
X117650000Y-98000000D01*
X117650000Y-98000000D02*
X117600000Y-97950000D01*
X145290000Y-108000000D02*
X145250000Y-108000000D01*
X145250000Y-108000000D02*
X145000000Y-108250000D01*
X147000000Y-107550000D02*
X145740000Y-107550000D01*
X145740000Y-107550000D02*
X145290000Y-108000000D01*
D47*
X147000000Y-99750000D02*
X144750000Y-99750000D01*
X136389991Y-107350879D02*
X142990870Y-100750000D01*
X129715000Y-109750000D02*
X133990870Y-109750000D01*
X133990870Y-109750000D02*
X136389991Y-107350879D01*
X147000000Y-103650000D02*
X141850000Y-103650000D01*
X141850000Y-103650000D02*
X141250000Y-104250000D01*
X133250000Y-109250000D02*
X138250000Y-104250000D01*
X129715000Y-109250000D02*
X133250000Y-109250000D01*
X131000000Y-102750000D02*
X128360010Y-105389990D01*
X128360010Y-105389990D02*
X128360010Y-106109990D01*
X128360010Y-106109990D02*
X128250000Y-106220000D01*
X128250000Y-106220000D02*
X128250000Y-106785000D01*
X139500000Y-102750000D02*
X131000000Y-102750000D01*
X140000000Y-102250000D02*
X139500000Y-102750000D01*
X142650000Y-102350000D02*
X142550000Y-102250000D01*
X142550000Y-102250000D02*
X142500000Y-102250000D01*
X147000000Y-102350000D02*
X142650000Y-102350000D01*
X136750000Y-107500000D02*
X141250000Y-103000000D01*
X141250000Y-103000000D02*
X147000000Y-103000000D01*
X136750000Y-108171198D02*
X136750000Y-107500000D01*
X128750000Y-110715000D02*
X134206198Y-110715000D01*
X134206198Y-110715000D02*
X136750000Y-108171198D01*
X139689990Y-95439990D02*
X139500000Y-95250000D01*
X139500000Y-95250000D02*
X138500000Y-95250000D01*
X142250000Y-95439990D02*
X139689990Y-95439990D01*
X142740870Y-96500000D02*
X142310010Y-96500000D01*
X142310010Y-96500000D02*
X142250000Y-96560010D01*
X147000000Y-99100000D02*
X145340870Y-99100000D01*
X145340870Y-99100000D02*
X142740870Y-96500000D01*
X152400000Y-97150000D02*
X152250000Y-97000000D01*
X154400000Y-97150000D02*
X152400000Y-97150000D01*
X137671198Y-93750000D02*
X149500000Y-93750000D01*
X137000000Y-95250000D02*
X137000000Y-94421198D01*
X137000000Y-94421198D02*
X137671198Y-93750000D01*
X145200000Y-98450000D02*
X142750000Y-96000000D01*
X142750000Y-96000000D02*
X138750000Y-96000000D01*
X147000000Y-98450000D02*
X145200000Y-98450000D01*
X150250000Y-99000000D02*
X151000000Y-99750000D01*
X151000000Y-99750000D02*
X154400000Y-99750000D01*
X149000000Y-99000000D02*
X150250000Y-99000000D01*
X143750000Y-98750000D02*
X144000000Y-99000000D01*
X143611188Y-98750000D02*
X143750000Y-98750000D01*
X141000000Y-96500000D02*
X141361188Y-96500000D01*
X141361188Y-96500000D02*
X143611188Y-98750000D01*
X138750000Y-96500000D02*
X141000000Y-96500000D01*
X138750000Y-97000000D02*
X140750000Y-97000000D01*
X140750000Y-97000000D02*
X144150000Y-100400000D01*
X144150000Y-100400000D02*
X147000000Y-100400000D01*
X152000000Y-103000000D02*
X149000000Y-103000000D01*
X154400000Y-104300000D02*
X153300000Y-104300000D01*
X153300000Y-104300000D02*
X152000000Y-103000000D01*
X138500000Y-103250000D02*
X138750000Y-103500000D01*
X138000000Y-103250000D02*
X138500000Y-103250000D01*
X135250000Y-103250000D02*
X138000000Y-103250000D01*
X133750000Y-103250000D02*
X135250000Y-103250000D01*
X131720000Y-103250000D02*
X133750000Y-103250000D01*
X128750000Y-106785000D02*
X128750000Y-106220000D01*
X128750000Y-106220000D02*
X131720000Y-103250000D01*
D44*
X157250000Y-109740000D02*
X157250000Y-107500000D01*
X157250000Y-107500000D02*
X156000000Y-106250000D01*
X156000000Y-111750000D02*
X156000000Y-110990000D01*
X156000000Y-110990000D02*
X157250000Y-109740000D01*
X154250000Y-111750000D02*
X156000000Y-111750000D01*
X154400000Y-106250000D02*
X156000000Y-106250000D01*
D45*
X176040000Y-109695000D02*
X177640000Y-109695000D01*
X177640000Y-109695000D02*
X177750000Y-109585000D01*
X177750000Y-109585000D02*
X177750000Y-106250000D01*
X185460010Y-105539990D02*
X186400000Y-104600000D01*
X177750000Y-106250000D02*
X178460010Y-105539990D01*
X185950000Y-95550000D02*
X184202280Y-95550000D01*
X178460010Y-105539990D02*
X185460010Y-105539990D01*
X186400000Y-104600000D02*
X186400000Y-96000000D01*
X186400000Y-96000000D02*
X185950000Y-95550000D01*
M02*
