G04 #@! TF.FileFunction,Legend,Bot*
%FSLAX46Y46*%
G04 Gerber Fmt 4.6, Leading zero omitted, Abs format (unit mm)*
G04 Created by KiCad (PCBNEW (2015-10-22 BZR 6274, Git d63c017)-product) date Sat Oct 24 14:44:23 2015*
%MOMM*%
G01*
G04 APERTURE LIST*
%ADD10C,0.100000*%
%ADD11C,0.150000*%
%ADD12C,0.010000*%
G04 APERTURE END LIST*
D10*
D11*
X118110000Y-105410000D02*
X115570000Y-105410000D01*
X115570000Y-105410000D02*
X115570000Y-114300000D01*
X115570000Y-114300000D02*
X119380000Y-114300000D01*
X119380000Y-114300000D02*
X119380000Y-105410000D01*
X119380000Y-105410000D02*
X118110000Y-105410000D01*
D12*
G36*
X145969264Y-109155998D02*
X145416550Y-109251777D01*
X144907417Y-109409038D01*
X144774199Y-109465765D01*
X144217394Y-109786793D01*
X143777348Y-110195135D01*
X143439862Y-110710101D01*
X143190735Y-111350999D01*
X143087134Y-111760000D01*
X143010427Y-112230990D01*
X142951260Y-112830347D01*
X142910756Y-113517900D01*
X142890036Y-114253482D01*
X142890221Y-114996922D01*
X142912434Y-115708052D01*
X142957796Y-116346702D01*
X142958783Y-116356796D01*
X143007043Y-116815178D01*
X143052767Y-117143176D01*
X143105604Y-117379303D01*
X143175202Y-117562068D01*
X143271211Y-117729983D01*
X143321718Y-117805323D01*
X143584232Y-118203675D01*
X143865405Y-118658631D01*
X144146235Y-119136384D01*
X144407717Y-119603128D01*
X144630850Y-120025058D01*
X144796628Y-120368368D01*
X144879093Y-120575775D01*
X144955802Y-120838628D01*
X144975766Y-121003709D01*
X144938113Y-121133098D01*
X144869657Y-121246933D01*
X144788118Y-121358842D01*
X144697081Y-121423968D01*
X144554695Y-121451867D01*
X144319109Y-121452094D01*
X144030554Y-121438518D01*
X143340666Y-121402372D01*
X143318831Y-122156644D01*
X143255861Y-122947430D01*
X143119508Y-123711897D01*
X142919909Y-124411277D01*
X142667200Y-125006803D01*
X142499364Y-125290707D01*
X142300474Y-125583788D01*
X142608904Y-125634796D01*
X142883527Y-125661274D01*
X143289488Y-125676241D01*
X143789238Y-125680456D01*
X144345227Y-125674678D01*
X144919904Y-125659667D01*
X145475721Y-125636181D01*
X145975127Y-125604980D01*
X146380572Y-125566822D01*
X146457726Y-125556987D01*
X147259995Y-125435730D01*
X147906924Y-125312010D01*
X148394376Y-125186786D01*
X148718215Y-125061022D01*
X148797915Y-125013005D01*
X149040555Y-124746205D01*
X149244683Y-124323467D01*
X149406378Y-123754614D01*
X149492609Y-123272034D01*
X149518822Y-122998623D01*
X149541837Y-122578899D01*
X149561543Y-122035856D01*
X149577829Y-121392484D01*
X149590582Y-120671779D01*
X149599693Y-119896731D01*
X149605048Y-119090333D01*
X149606538Y-118275579D01*
X149604051Y-117475461D01*
X149597476Y-116712971D01*
X149586701Y-116011103D01*
X149571615Y-115392848D01*
X149552106Y-114881199D01*
X149534665Y-114583451D01*
X149463330Y-113596901D01*
X148301376Y-113642899D01*
X147139421Y-113688898D01*
X146954544Y-113453864D01*
X146799997Y-113190030D01*
X146798524Y-112954682D01*
X146951075Y-112701932D01*
X146970580Y-112678867D01*
X147140006Y-112522592D01*
X147331711Y-112464997D01*
X147520913Y-112465909D01*
X147742055Y-112470890D01*
X147842250Y-112428742D01*
X147869293Y-112306499D01*
X147869745Y-112270961D01*
X146177000Y-112270961D01*
X146115858Y-112715675D01*
X145940149Y-113064241D01*
X145689102Y-113278464D01*
X145360496Y-113382273D01*
X144964240Y-113403619D01*
X144579163Y-113344451D01*
X144339610Y-113245095D01*
X144030380Y-112971860D01*
X143860148Y-112635879D01*
X143827552Y-112269127D01*
X143931228Y-111903579D01*
X144169813Y-111571212D01*
X144419393Y-111373513D01*
X144651230Y-111263470D01*
X144916575Y-111225923D01*
X145153783Y-111234243D01*
X145447597Y-111271571D01*
X145649473Y-111353099D01*
X145836589Y-111514470D01*
X145894616Y-111576379D01*
X146078116Y-111809180D01*
X146160341Y-112028845D01*
X146177000Y-112270961D01*
X147869745Y-112270961D01*
X147870333Y-112224892D01*
X147911489Y-111950588D01*
X147993604Y-111724879D01*
X148167611Y-111520178D01*
X148431868Y-111338311D01*
X148711045Y-111225607D01*
X148831309Y-111209667D01*
X148908146Y-111192777D01*
X148913881Y-111113554D01*
X148848878Y-110929171D01*
X148834007Y-110892167D01*
X148690194Y-110597627D01*
X148486745Y-110256106D01*
X148256137Y-109915131D01*
X148030844Y-109622229D01*
X147843345Y-109424926D01*
X147817064Y-109403937D01*
X147489459Y-109245671D01*
X147045661Y-109152134D01*
X146525615Y-109122513D01*
X145969264Y-109155998D01*
X145969264Y-109155998D01*
G37*
X145969264Y-109155998D02*
X145416550Y-109251777D01*
X144907417Y-109409038D01*
X144774199Y-109465765D01*
X144217394Y-109786793D01*
X143777348Y-110195135D01*
X143439862Y-110710101D01*
X143190735Y-111350999D01*
X143087134Y-111760000D01*
X143010427Y-112230990D01*
X142951260Y-112830347D01*
X142910756Y-113517900D01*
X142890036Y-114253482D01*
X142890221Y-114996922D01*
X142912434Y-115708052D01*
X142957796Y-116346702D01*
X142958783Y-116356796D01*
X143007043Y-116815178D01*
X143052767Y-117143176D01*
X143105604Y-117379303D01*
X143175202Y-117562068D01*
X143271211Y-117729983D01*
X143321718Y-117805323D01*
X143584232Y-118203675D01*
X143865405Y-118658631D01*
X144146235Y-119136384D01*
X144407717Y-119603128D01*
X144630850Y-120025058D01*
X144796628Y-120368368D01*
X144879093Y-120575775D01*
X144955802Y-120838628D01*
X144975766Y-121003709D01*
X144938113Y-121133098D01*
X144869657Y-121246933D01*
X144788118Y-121358842D01*
X144697081Y-121423968D01*
X144554695Y-121451867D01*
X144319109Y-121452094D01*
X144030554Y-121438518D01*
X143340666Y-121402372D01*
X143318831Y-122156644D01*
X143255861Y-122947430D01*
X143119508Y-123711897D01*
X142919909Y-124411277D01*
X142667200Y-125006803D01*
X142499364Y-125290707D01*
X142300474Y-125583788D01*
X142608904Y-125634796D01*
X142883527Y-125661274D01*
X143289488Y-125676241D01*
X143789238Y-125680456D01*
X144345227Y-125674678D01*
X144919904Y-125659667D01*
X145475721Y-125636181D01*
X145975127Y-125604980D01*
X146380572Y-125566822D01*
X146457726Y-125556987D01*
X147259995Y-125435730D01*
X147906924Y-125312010D01*
X148394376Y-125186786D01*
X148718215Y-125061022D01*
X148797915Y-125013005D01*
X149040555Y-124746205D01*
X149244683Y-124323467D01*
X149406378Y-123754614D01*
X149492609Y-123272034D01*
X149518822Y-122998623D01*
X149541837Y-122578899D01*
X149561543Y-122035856D01*
X149577829Y-121392484D01*
X149590582Y-120671779D01*
X149599693Y-119896731D01*
X149605048Y-119090333D01*
X149606538Y-118275579D01*
X149604051Y-117475461D01*
X149597476Y-116712971D01*
X149586701Y-116011103D01*
X149571615Y-115392848D01*
X149552106Y-114881199D01*
X149534665Y-114583451D01*
X149463330Y-113596901D01*
X148301376Y-113642899D01*
X147139421Y-113688898D01*
X146954544Y-113453864D01*
X146799997Y-113190030D01*
X146798524Y-112954682D01*
X146951075Y-112701932D01*
X146970580Y-112678867D01*
X147140006Y-112522592D01*
X147331711Y-112464997D01*
X147520913Y-112465909D01*
X147742055Y-112470890D01*
X147842250Y-112428742D01*
X147869293Y-112306499D01*
X147869745Y-112270961D01*
X146177000Y-112270961D01*
X146115858Y-112715675D01*
X145940149Y-113064241D01*
X145689102Y-113278464D01*
X145360496Y-113382273D01*
X144964240Y-113403619D01*
X144579163Y-113344451D01*
X144339610Y-113245095D01*
X144030380Y-112971860D01*
X143860148Y-112635879D01*
X143827552Y-112269127D01*
X143931228Y-111903579D01*
X144169813Y-111571212D01*
X144419393Y-111373513D01*
X144651230Y-111263470D01*
X144916575Y-111225923D01*
X145153783Y-111234243D01*
X145447597Y-111271571D01*
X145649473Y-111353099D01*
X145836589Y-111514470D01*
X145894616Y-111576379D01*
X146078116Y-111809180D01*
X146160341Y-112028845D01*
X146177000Y-112270961D01*
X147869745Y-112270961D01*
X147870333Y-112224892D01*
X147911489Y-111950588D01*
X147993604Y-111724879D01*
X148167611Y-111520178D01*
X148431868Y-111338311D01*
X148711045Y-111225607D01*
X148831309Y-111209667D01*
X148908146Y-111192777D01*
X148913881Y-111113554D01*
X148848878Y-110929171D01*
X148834007Y-110892167D01*
X148690194Y-110597627D01*
X148486745Y-110256106D01*
X148256137Y-109915131D01*
X148030844Y-109622229D01*
X147843345Y-109424926D01*
X147817064Y-109403937D01*
X147489459Y-109245671D01*
X147045661Y-109152134D01*
X146525615Y-109122513D01*
X145969264Y-109155998D01*
G36*
X147274662Y-112621175D02*
X147082041Y-112761478D01*
X146957287Y-112958306D01*
X146939000Y-113061186D01*
X146982192Y-113172615D01*
X147136042Y-113242232D01*
X147298833Y-113273190D01*
X147568327Y-113303171D01*
X147934361Y-113329718D01*
X148363455Y-113351990D01*
X148822132Y-113369149D01*
X149276914Y-113380356D01*
X149694323Y-113384770D01*
X150040882Y-113381552D01*
X150283111Y-113369863D01*
X150385509Y-113350585D01*
X150343130Y-113306962D01*
X150139829Y-113233329D01*
X149781071Y-113131116D01*
X149272324Y-113001752D01*
X148619054Y-112846666D01*
X147826728Y-112667287D01*
X147475504Y-112589802D01*
X147274662Y-112621175D01*
X147274662Y-112621175D01*
G37*
X147274662Y-112621175D02*
X147082041Y-112761478D01*
X146957287Y-112958306D01*
X146939000Y-113061186D01*
X146982192Y-113172615D01*
X147136042Y-113242232D01*
X147298833Y-113273190D01*
X147568327Y-113303171D01*
X147934361Y-113329718D01*
X148363455Y-113351990D01*
X148822132Y-113369149D01*
X149276914Y-113380356D01*
X149694323Y-113384770D01*
X150040882Y-113381552D01*
X150283111Y-113369863D01*
X150385509Y-113350585D01*
X150343130Y-113306962D01*
X150139829Y-113233329D01*
X149781071Y-113131116D01*
X149272324Y-113001752D01*
X148619054Y-112846666D01*
X147826728Y-112667287D01*
X147475504Y-112589802D01*
X147274662Y-112621175D01*
G36*
X148959834Y-111453762D02*
X148920433Y-111502943D01*
X148822217Y-111668699D01*
X148831707Y-111800309D01*
X148960948Y-111956712D01*
X149025696Y-112018043D01*
X149248669Y-112161685D01*
X149486544Y-112222420D01*
X149686385Y-112195119D01*
X149789586Y-112092056D01*
X149775802Y-111919740D01*
X149653791Y-111715361D01*
X149462955Y-111529798D01*
X149271617Y-111423260D01*
X149083450Y-111384057D01*
X148959834Y-111453762D01*
X148959834Y-111453762D01*
G37*
X148959834Y-111453762D02*
X148920433Y-111502943D01*
X148822217Y-111668699D01*
X148831707Y-111800309D01*
X148960948Y-111956712D01*
X149025696Y-112018043D01*
X149248669Y-112161685D01*
X149486544Y-112222420D01*
X149686385Y-112195119D01*
X149789586Y-112092056D01*
X149775802Y-111919740D01*
X149653791Y-111715361D01*
X149462955Y-111529798D01*
X149271617Y-111423260D01*
X149083450Y-111384057D01*
X148959834Y-111453762D01*
G36*
X145176386Y-111573408D02*
X145042398Y-111694532D01*
X145035015Y-111714469D01*
X145036328Y-111950762D01*
X145158396Y-112176403D01*
X145359229Y-112357129D01*
X145596835Y-112458675D01*
X145829223Y-112446779D01*
X145893371Y-112414870D01*
X146010170Y-112254477D01*
X146012835Y-112037985D01*
X145914840Y-111820608D01*
X145729656Y-111657561D01*
X145705722Y-111645849D01*
X145408946Y-111556009D01*
X145176386Y-111573408D01*
X145176386Y-111573408D01*
G37*
X145176386Y-111573408D02*
X145042398Y-111694532D01*
X145035015Y-111714469D01*
X145036328Y-111950762D01*
X145158396Y-112176403D01*
X145359229Y-112357129D01*
X145596835Y-112458675D01*
X145829223Y-112446779D01*
X145893371Y-112414870D01*
X146010170Y-112254477D01*
X146012835Y-112037985D01*
X145914840Y-111820608D01*
X145729656Y-111657561D01*
X145705722Y-111645849D01*
X145408946Y-111556009D01*
X145176386Y-111573408D01*
M02*
