G04 #@! TF.FileFunction,Copper,L2,Bot,Signal*
%FSLAX46Y46*%
G04 Gerber Fmt 4.6, Leading zero omitted, Abs format (unit mm)*
G04 Created by KiCad (PCBNEW (2015-10-22 BZR 6274, Git d63c017)-product) date Sat Oct 24 14:44:23 2015*
%MOMM*%
G01*
G04 APERTURE LIST*
%ADD10C,0.100000*%
%ADD11C,0.900000*%
%ADD12C,1.524000*%
%ADD13C,0.600000*%
%ADD14C,0.400000*%
%ADD15C,1.000000*%
%ADD16C,0.200000*%
G04 APERTURE END LIST*
D10*
D11*
X118110000Y-106680000D03*
X118110000Y-107950000D03*
X118110000Y-109220000D03*
X118110000Y-110490000D03*
X118110000Y-111760000D03*
X118110000Y-113030000D03*
D12*
X139192000Y-99695000D03*
X139192000Y-102235000D03*
X136652000Y-99695000D03*
X136652000Y-102235000D03*
X134112000Y-99695000D03*
X134112000Y-102235000D03*
X131572000Y-99695000D03*
X131572000Y-102235000D03*
X129032000Y-99695000D03*
X129032000Y-102235000D03*
X126492000Y-99695000D03*
X126492000Y-102235000D03*
X123952000Y-99695000D03*
X123952000Y-102235000D03*
X134620000Y-111760000D03*
X134620000Y-109220000D03*
X134620000Y-106680000D03*
X137160000Y-106680000D03*
X137160000Y-109220000D03*
X137160000Y-111760000D03*
X137160000Y-120015000D03*
X137160000Y-117475000D03*
X137160000Y-114935000D03*
D13*
X156600000Y-116400000D03*
X155700000Y-119900000D03*
X142700000Y-111000000D03*
X132200000Y-113700000D03*
X145000000Y-104000000D03*
X145000000Y-106500000D03*
X121700000Y-103400000D03*
X121400000Y-99900000D03*
X120000000Y-99000000D03*
X144900000Y-107800000D03*
X148600000Y-107600000D03*
X158500000Y-102500000D03*
X154700000Y-102500000D03*
X161501520Y-107500000D03*
X118200000Y-124800000D03*
X137922000Y-125730000D03*
X135279000Y-125706000D03*
X134633000Y-116852000D03*
X154550000Y-122750000D03*
X139325000Y-118925000D03*
X157000000Y-119250000D03*
X154000000Y-117500000D03*
X151000000Y-119000000D03*
X150250000Y-121500000D03*
X130500000Y-111000000D03*
X124500000Y-110000000D03*
X120180000Y-115500000D03*
X132500000Y-126000000D03*
X132400000Y-124900000D03*
X132300000Y-123800000D03*
X132400000Y-121600000D03*
X132400000Y-119400000D03*
X132300000Y-117200000D03*
X124550000Y-111500000D03*
X123500000Y-111500000D03*
X120000000Y-121500000D03*
X120000000Y-120500000D03*
X120000000Y-122500000D03*
X120000000Y-125000000D03*
X120000000Y-126000000D03*
X154300000Y-107600000D03*
X152000000Y-107600000D03*
X141000000Y-106500000D03*
X127400000Y-107600000D03*
X124800000Y-108650010D03*
X123600000Y-105979990D03*
X123200000Y-108800000D03*
X156799999Y-120799999D03*
X156500000Y-122500000D03*
X122600000Y-111600000D03*
X121400000Y-105979990D03*
X122174000Y-101092000D03*
X120396000Y-104267000D03*
X120396000Y-110490000D03*
X119634000Y-113030000D03*
X119634000Y-105156000D03*
D14*
X156299999Y-116800001D02*
X156600000Y-116500000D01*
X156600000Y-116500000D02*
X156600000Y-116400000D01*
X155700000Y-119900000D02*
X156299999Y-119300001D01*
X156299999Y-119300001D02*
X156299999Y-116800001D01*
D15*
X136399999Y-113400001D02*
X140299999Y-113400001D01*
X140299999Y-113400001D02*
X142700000Y-111000000D01*
X132200000Y-113700000D02*
X132499999Y-113400001D01*
X132499999Y-113400001D02*
X136399999Y-113400001D01*
D14*
X158600000Y-119200000D02*
X161501520Y-116298480D01*
X161501520Y-116298480D02*
X161501520Y-107500000D01*
X158350001Y-118950001D02*
X158600000Y-119200000D01*
X157000000Y-119250000D02*
X157299999Y-118950001D01*
X157299999Y-118950001D02*
X158350001Y-118950001D01*
X120000000Y-99000000D02*
X120500000Y-99000000D01*
X120500000Y-99000000D02*
X121400000Y-99900000D01*
X123500000Y-111500000D02*
X124550000Y-111500000D01*
X130300000Y-103200000D02*
X130300000Y-103800000D01*
X130300000Y-100963000D02*
X130300000Y-103200000D01*
X129032000Y-99695000D02*
X130300000Y-100963000D01*
X129793999Y-100593999D02*
X130200000Y-101000000D01*
X129032000Y-99695000D02*
X129793999Y-100456999D01*
X129793999Y-100456999D02*
X129793999Y-100593999D01*
X154300000Y-107600000D02*
X154724264Y-107600000D01*
X152000000Y-107600000D02*
X154300000Y-107600000D01*
X141000000Y-106500000D02*
X140500000Y-106500000D01*
X140500000Y-106500000D02*
X139600000Y-107400000D01*
X139600000Y-109320000D02*
X137160000Y-111760000D01*
X139600000Y-107400000D02*
X139600000Y-109320000D01*
X125850010Y-107600000D02*
X127400000Y-107600000D01*
X124800000Y-108650010D02*
X125850010Y-107600000D01*
X123499999Y-106100001D02*
X123600000Y-106000000D01*
X123600000Y-106000000D02*
X123600000Y-105979990D01*
X123200000Y-108800000D02*
X123499999Y-108500001D01*
X123499999Y-108500001D02*
X123499999Y-106100001D01*
X156799999Y-120799999D02*
X156849998Y-120750000D01*
X156500000Y-122500000D02*
X156799999Y-122200001D01*
X156799999Y-122200001D02*
X156799999Y-120799999D01*
X122400000Y-106979990D02*
X122400000Y-111400000D01*
X122400000Y-111400000D02*
X122600000Y-111600000D01*
X121400000Y-105979990D02*
X122400000Y-106979990D01*
X121793000Y-101092000D02*
X122174000Y-101092000D01*
X118745000Y-104140000D02*
X121793000Y-101092000D01*
X118745000Y-105303002D02*
X118745000Y-104140000D01*
X118110000Y-109220000D02*
X119033990Y-108296010D01*
X119033990Y-108296010D02*
X119033990Y-105591992D01*
X119033990Y-105591992D02*
X118745000Y-105303002D01*
X120396000Y-110490000D02*
X120396000Y-104267000D01*
X119634000Y-105156000D02*
X119634000Y-113030000D01*
D16*
G36*
X165317000Y-126317000D02*
X129600000Y-126317000D01*
X129600000Y-121500000D01*
X129592121Y-121461094D01*
X129569727Y-121428319D01*
X129536346Y-121406839D01*
X129500000Y-121400000D01*
X123500000Y-121400000D01*
X123461094Y-121407879D01*
X123428319Y-121430273D01*
X123406839Y-121463654D01*
X123400000Y-121500000D01*
X123400000Y-126317000D01*
X117683000Y-126317000D01*
X117683000Y-120745085D01*
X136465270Y-120745085D01*
X136543937Y-120905469D01*
X136931601Y-121073443D01*
X137354036Y-121080279D01*
X137746930Y-120924935D01*
X137776063Y-120905469D01*
X137854730Y-120745085D01*
X137160000Y-120050355D01*
X136465270Y-120745085D01*
X117683000Y-120745085D01*
X117683000Y-120209036D01*
X136094721Y-120209036D01*
X136250065Y-120601930D01*
X136269531Y-120631063D01*
X136429915Y-120709730D01*
X137124645Y-120015000D01*
X137195355Y-120015000D01*
X137890085Y-120709730D01*
X138050469Y-120631063D01*
X138218443Y-120243399D01*
X138221090Y-120079820D01*
X154791843Y-120079820D01*
X154929786Y-120413669D01*
X155184988Y-120669316D01*
X155518595Y-120807842D01*
X155879820Y-120808157D01*
X155891996Y-120803126D01*
X155891842Y-120979819D01*
X155991999Y-121222219D01*
X155991999Y-121727444D01*
X155986331Y-121729786D01*
X155730684Y-121984988D01*
X155592158Y-122318595D01*
X155591843Y-122679820D01*
X155729786Y-123013669D01*
X155984988Y-123269316D01*
X156318595Y-123407842D01*
X156679820Y-123408157D01*
X157013669Y-123270214D01*
X157124993Y-123159083D01*
X160341337Y-123159083D01*
X160502005Y-123547928D01*
X160799247Y-123845690D01*
X161187811Y-124007036D01*
X161608543Y-124007403D01*
X161997388Y-123846735D01*
X162295150Y-123549493D01*
X162456496Y-123160929D01*
X162456863Y-122740197D01*
X162296195Y-122351352D01*
X161998953Y-122053590D01*
X161610389Y-121892244D01*
X161189657Y-121891877D01*
X160800812Y-122052545D01*
X160503050Y-122349787D01*
X160341704Y-122738351D01*
X160341337Y-123159083D01*
X157124993Y-123159083D01*
X157269316Y-123015012D01*
X157369896Y-122772789D01*
X157371342Y-122771343D01*
X157546494Y-122509209D01*
X157607999Y-122200001D01*
X157607999Y-121221850D01*
X157707841Y-120981404D01*
X157708156Y-120620179D01*
X157570213Y-120286330D01*
X157315011Y-120030683D01*
X156981404Y-119892157D01*
X156850641Y-119892043D01*
X156871341Y-119871343D01*
X157046494Y-119609209D01*
X157107999Y-119300001D01*
X157107999Y-118759803D01*
X160341337Y-118759803D01*
X160502005Y-119148648D01*
X160799247Y-119446410D01*
X161187811Y-119607756D01*
X161608543Y-119608123D01*
X161997388Y-119447455D01*
X162295150Y-119150213D01*
X162456496Y-118761649D01*
X162456863Y-118340917D01*
X162296195Y-117952072D01*
X161998953Y-117654310D01*
X161610389Y-117492964D01*
X161189657Y-117492597D01*
X160800812Y-117653265D01*
X160503050Y-117950507D01*
X160341704Y-118339071D01*
X160341337Y-118759803D01*
X157107999Y-118759803D01*
X157107999Y-117172557D01*
X157113669Y-117170214D01*
X157369316Y-116915012D01*
X157507842Y-116581405D01*
X157508157Y-116220180D01*
X157370214Y-115886331D01*
X157115012Y-115630684D01*
X156781405Y-115492158D01*
X156420180Y-115491843D01*
X156086331Y-115629786D01*
X155830684Y-115884988D01*
X155692158Y-116218595D01*
X155692102Y-116283368D01*
X155553504Y-116490792D01*
X155535480Y-116581405D01*
X155491999Y-116800001D01*
X155491999Y-118965317D01*
X155426952Y-119030364D01*
X155186331Y-119129786D01*
X154930684Y-119384988D01*
X154792158Y-119718595D01*
X154791843Y-120079820D01*
X138221090Y-120079820D01*
X138225279Y-119820964D01*
X138069935Y-119428070D01*
X138050469Y-119398937D01*
X137890085Y-119320270D01*
X137195355Y-120015000D01*
X137124645Y-120015000D01*
X136429915Y-119320270D01*
X136269531Y-119398937D01*
X136101557Y-119786601D01*
X136094721Y-120209036D01*
X117683000Y-120209036D01*
X117683000Y-119284915D01*
X136465270Y-119284915D01*
X137160000Y-119979645D01*
X137854730Y-119284915D01*
X137776063Y-119124531D01*
X137388399Y-118956557D01*
X136965964Y-118949721D01*
X136573070Y-119105065D01*
X136543937Y-119124531D01*
X136465270Y-119284915D01*
X117683000Y-119284915D01*
X117683000Y-113998279D01*
X117898628Y-114087816D01*
X118319526Y-114088183D01*
X118708526Y-113927451D01*
X118978182Y-113658265D01*
X119118988Y-113799316D01*
X119452595Y-113937842D01*
X119813820Y-113938157D01*
X120147669Y-113800214D01*
X120248057Y-113700000D01*
X131092000Y-113700000D01*
X131176341Y-114124014D01*
X131416526Y-114483474D01*
X131775986Y-114723659D01*
X132200000Y-114808000D01*
X132624014Y-114723659D01*
X132946767Y-114508001D01*
X135853891Y-114508001D01*
X135790238Y-114661295D01*
X135789763Y-115206314D01*
X135997893Y-115710029D01*
X136382944Y-116095752D01*
X136646067Y-116205011D01*
X136384971Y-116312893D01*
X135999248Y-116697944D01*
X135790238Y-117201295D01*
X135789763Y-117746314D01*
X135997893Y-118250029D01*
X136382944Y-118635752D01*
X136886295Y-118844762D01*
X137431314Y-118845237D01*
X137935029Y-118637107D01*
X138320752Y-118252056D01*
X138529762Y-117748705D01*
X138530237Y-117203686D01*
X138322107Y-116699971D01*
X137937056Y-116314248D01*
X137673933Y-116204989D01*
X137935029Y-116097107D01*
X138320752Y-115712056D01*
X138529762Y-115208705D01*
X138530237Y-114663686D01*
X138465910Y-114508001D01*
X140299999Y-114508001D01*
X140724013Y-114423660D01*
X141083473Y-114183475D01*
X143483474Y-111783474D01*
X143723659Y-111424014D01*
X143808000Y-111000000D01*
X143723659Y-110575986D01*
X143483474Y-110216526D01*
X143124014Y-109976341D01*
X142700000Y-109892000D01*
X142275986Y-109976341D01*
X141916526Y-110216526D01*
X139841051Y-112292001D01*
X138422508Y-112292001D01*
X138529762Y-112033705D01*
X138530199Y-111532485D01*
X140171342Y-109891342D01*
X140346495Y-109629209D01*
X140408000Y-109320000D01*
X140408000Y-107779820D01*
X151091843Y-107779820D01*
X151229786Y-108113669D01*
X151484988Y-108369316D01*
X151818595Y-108507842D01*
X152179820Y-108508157D01*
X152422220Y-108408000D01*
X153878149Y-108408000D01*
X154118595Y-108507842D01*
X154479820Y-108508157D01*
X154722220Y-108408000D01*
X154724264Y-108408000D01*
X155033472Y-108346495D01*
X155295606Y-108171342D01*
X155470759Y-107909208D01*
X155532264Y-107600000D01*
X155470759Y-107290792D01*
X155295606Y-107028658D01*
X155033472Y-106853505D01*
X154724264Y-106792000D01*
X154721851Y-106792000D01*
X154481405Y-106692158D01*
X154120180Y-106691843D01*
X153877780Y-106792000D01*
X152421851Y-106792000D01*
X152181405Y-106692158D01*
X151820180Y-106691843D01*
X151486331Y-106829786D01*
X151230684Y-107084988D01*
X151092158Y-107418595D01*
X151091843Y-107779820D01*
X140408000Y-107779820D01*
X140408000Y-107734684D01*
X140759416Y-107383268D01*
X140818595Y-107407842D01*
X141179820Y-107408157D01*
X141513669Y-107270214D01*
X141769316Y-107015012D01*
X141907842Y-106681405D01*
X141908157Y-106320180D01*
X141770214Y-105986331D01*
X141515012Y-105730684D01*
X141181405Y-105592158D01*
X140820180Y-105591843D01*
X140552503Y-105702444D01*
X140500000Y-105692001D01*
X140190791Y-105753505D01*
X139928658Y-105928658D01*
X139028658Y-106828658D01*
X138853505Y-107090791D01*
X138815851Y-107280091D01*
X138792000Y-107400000D01*
X138792000Y-108985316D01*
X138529977Y-109247339D01*
X138530237Y-108948686D01*
X138322107Y-108444971D01*
X137937056Y-108059248D01*
X137673933Y-107949989D01*
X137935029Y-107842107D01*
X138320752Y-107457056D01*
X138529762Y-106953705D01*
X138530237Y-106408686D01*
X138322107Y-105904971D01*
X137937056Y-105519248D01*
X137433705Y-105310238D01*
X136888686Y-105309763D01*
X136384971Y-105517893D01*
X135999248Y-105902944D01*
X135889989Y-106166067D01*
X135782107Y-105904971D01*
X135397056Y-105519248D01*
X134893705Y-105310238D01*
X134348686Y-105309763D01*
X133844971Y-105517893D01*
X133459248Y-105902944D01*
X133250238Y-106406295D01*
X133249763Y-106951314D01*
X133457893Y-107455029D01*
X133842944Y-107840752D01*
X134106067Y-107950011D01*
X133844971Y-108057893D01*
X133459248Y-108442944D01*
X133250238Y-108946295D01*
X133249763Y-109491314D01*
X133457893Y-109995029D01*
X133842944Y-110380752D01*
X134106067Y-110490011D01*
X133844971Y-110597893D01*
X133459248Y-110982944D01*
X133250238Y-111486295D01*
X133249763Y-112031314D01*
X133357476Y-112292001D01*
X132499999Y-112292001D01*
X132075985Y-112376342D01*
X131716525Y-112616526D01*
X131416526Y-112916526D01*
X131176341Y-113275986D01*
X131092000Y-113700000D01*
X120248057Y-113700000D01*
X120403316Y-113545012D01*
X120541842Y-113211405D01*
X120542157Y-112850180D01*
X120442000Y-112607780D01*
X120442000Y-111398040D01*
X120575820Y-111398157D01*
X120909669Y-111260214D01*
X121165316Y-111005012D01*
X121303842Y-110671405D01*
X121304157Y-110310180D01*
X121204000Y-110067780D01*
X121204000Y-106926674D01*
X121592000Y-107314675D01*
X121592000Y-111400000D01*
X121653505Y-111709209D01*
X121691855Y-111766603D01*
X121691843Y-111779820D01*
X121829786Y-112113669D01*
X122084988Y-112369316D01*
X122418595Y-112507842D01*
X122779820Y-112508157D01*
X123113669Y-112370214D01*
X123369316Y-112115012D01*
X123507842Y-111781405D01*
X123508157Y-111420180D01*
X123370214Y-111086331D01*
X123208000Y-110923834D01*
X123208000Y-109708007D01*
X123379820Y-109708157D01*
X123713669Y-109570214D01*
X123969316Y-109315012D01*
X124031459Y-109165355D01*
X124284988Y-109419326D01*
X124618595Y-109557852D01*
X124979820Y-109558167D01*
X125313669Y-109420224D01*
X125569316Y-109165022D01*
X125669896Y-108922798D01*
X126184695Y-108408000D01*
X126978149Y-108408000D01*
X127218595Y-108507842D01*
X127579820Y-108508157D01*
X127913669Y-108370214D01*
X128169316Y-108115012D01*
X128307842Y-107781405D01*
X128308157Y-107420180D01*
X128170214Y-107086331D01*
X127915012Y-106830684D01*
X127581405Y-106692158D01*
X127220180Y-106691843D01*
X126977780Y-106792000D01*
X125850010Y-106792000D01*
X125540802Y-106853505D01*
X125540800Y-106853506D01*
X125540801Y-106853506D01*
X125278667Y-107028658D01*
X124526952Y-107780374D01*
X124307999Y-107870843D01*
X124307999Y-106556212D01*
X124369316Y-106495002D01*
X124507842Y-106161395D01*
X124508157Y-105800170D01*
X124370214Y-105466321D01*
X124115012Y-105210674D01*
X123781405Y-105072148D01*
X123420180Y-105071833D01*
X123086331Y-105209776D01*
X122830684Y-105464978D01*
X122692158Y-105798585D01*
X122691870Y-106129175D01*
X122269636Y-105706942D01*
X122170214Y-105466321D01*
X121915012Y-105210674D01*
X121581405Y-105072148D01*
X121220180Y-105071833D01*
X121204000Y-105078518D01*
X121204000Y-104688851D01*
X121303842Y-104448405D01*
X121304157Y-104087180D01*
X121166214Y-103753331D01*
X120911012Y-103497684D01*
X120641791Y-103385893D01*
X122027811Y-101999873D01*
X122353820Y-102000157D01*
X122610066Y-101894279D01*
X122582238Y-101961295D01*
X122581763Y-102506314D01*
X122789893Y-103010029D01*
X123174944Y-103395752D01*
X123678295Y-103604762D01*
X124223314Y-103605237D01*
X124727029Y-103397107D01*
X125112752Y-103012056D01*
X125222011Y-102748933D01*
X125329893Y-103010029D01*
X125714944Y-103395752D01*
X126218295Y-103604762D01*
X126763314Y-103605237D01*
X127267029Y-103397107D01*
X127652752Y-103012056D01*
X127762011Y-102748933D01*
X127869893Y-103010029D01*
X128254944Y-103395752D01*
X128758295Y-103604762D01*
X129303314Y-103605237D01*
X129807029Y-103397107D01*
X130192752Y-103012056D01*
X130302011Y-102748933D01*
X130409893Y-103010029D01*
X130794944Y-103395752D01*
X131298295Y-103604762D01*
X131843314Y-103605237D01*
X132347029Y-103397107D01*
X132732752Y-103012056D01*
X132842011Y-102748933D01*
X132949893Y-103010029D01*
X133334944Y-103395752D01*
X133838295Y-103604762D01*
X134383314Y-103605237D01*
X134887029Y-103397107D01*
X135272752Y-103012056D01*
X135382011Y-102748933D01*
X135489893Y-103010029D01*
X135874944Y-103395752D01*
X136378295Y-103604762D01*
X136923314Y-103605237D01*
X137427029Y-103397107D01*
X137812752Y-103012056D01*
X137922011Y-102748933D01*
X138029893Y-103010029D01*
X138414944Y-103395752D01*
X138918295Y-103604762D01*
X139463314Y-103605237D01*
X139967029Y-103397107D01*
X140352752Y-103012056D01*
X140561762Y-102508705D01*
X140562237Y-101963686D01*
X140354107Y-101459971D01*
X139969056Y-101074248D01*
X139705933Y-100964989D01*
X139967029Y-100857107D01*
X140352752Y-100472056D01*
X140561762Y-99968705D01*
X140562237Y-99423686D01*
X140354107Y-98919971D01*
X140117549Y-98683000D01*
X165317000Y-98683000D01*
X165317000Y-126317000D01*
X165317000Y-126317000D01*
G37*
X165317000Y-126317000D02*
X129600000Y-126317000D01*
X129600000Y-121500000D01*
X129592121Y-121461094D01*
X129569727Y-121428319D01*
X129536346Y-121406839D01*
X129500000Y-121400000D01*
X123500000Y-121400000D01*
X123461094Y-121407879D01*
X123428319Y-121430273D01*
X123406839Y-121463654D01*
X123400000Y-121500000D01*
X123400000Y-126317000D01*
X117683000Y-126317000D01*
X117683000Y-120745085D01*
X136465270Y-120745085D01*
X136543937Y-120905469D01*
X136931601Y-121073443D01*
X137354036Y-121080279D01*
X137746930Y-120924935D01*
X137776063Y-120905469D01*
X137854730Y-120745085D01*
X137160000Y-120050355D01*
X136465270Y-120745085D01*
X117683000Y-120745085D01*
X117683000Y-120209036D01*
X136094721Y-120209036D01*
X136250065Y-120601930D01*
X136269531Y-120631063D01*
X136429915Y-120709730D01*
X137124645Y-120015000D01*
X137195355Y-120015000D01*
X137890085Y-120709730D01*
X138050469Y-120631063D01*
X138218443Y-120243399D01*
X138221090Y-120079820D01*
X154791843Y-120079820D01*
X154929786Y-120413669D01*
X155184988Y-120669316D01*
X155518595Y-120807842D01*
X155879820Y-120808157D01*
X155891996Y-120803126D01*
X155891842Y-120979819D01*
X155991999Y-121222219D01*
X155991999Y-121727444D01*
X155986331Y-121729786D01*
X155730684Y-121984988D01*
X155592158Y-122318595D01*
X155591843Y-122679820D01*
X155729786Y-123013669D01*
X155984988Y-123269316D01*
X156318595Y-123407842D01*
X156679820Y-123408157D01*
X157013669Y-123270214D01*
X157124993Y-123159083D01*
X160341337Y-123159083D01*
X160502005Y-123547928D01*
X160799247Y-123845690D01*
X161187811Y-124007036D01*
X161608543Y-124007403D01*
X161997388Y-123846735D01*
X162295150Y-123549493D01*
X162456496Y-123160929D01*
X162456863Y-122740197D01*
X162296195Y-122351352D01*
X161998953Y-122053590D01*
X161610389Y-121892244D01*
X161189657Y-121891877D01*
X160800812Y-122052545D01*
X160503050Y-122349787D01*
X160341704Y-122738351D01*
X160341337Y-123159083D01*
X157124993Y-123159083D01*
X157269316Y-123015012D01*
X157369896Y-122772789D01*
X157371342Y-122771343D01*
X157546494Y-122509209D01*
X157607999Y-122200001D01*
X157607999Y-121221850D01*
X157707841Y-120981404D01*
X157708156Y-120620179D01*
X157570213Y-120286330D01*
X157315011Y-120030683D01*
X156981404Y-119892157D01*
X156850641Y-119892043D01*
X156871341Y-119871343D01*
X157046494Y-119609209D01*
X157107999Y-119300001D01*
X157107999Y-118759803D01*
X160341337Y-118759803D01*
X160502005Y-119148648D01*
X160799247Y-119446410D01*
X161187811Y-119607756D01*
X161608543Y-119608123D01*
X161997388Y-119447455D01*
X162295150Y-119150213D01*
X162456496Y-118761649D01*
X162456863Y-118340917D01*
X162296195Y-117952072D01*
X161998953Y-117654310D01*
X161610389Y-117492964D01*
X161189657Y-117492597D01*
X160800812Y-117653265D01*
X160503050Y-117950507D01*
X160341704Y-118339071D01*
X160341337Y-118759803D01*
X157107999Y-118759803D01*
X157107999Y-117172557D01*
X157113669Y-117170214D01*
X157369316Y-116915012D01*
X157507842Y-116581405D01*
X157508157Y-116220180D01*
X157370214Y-115886331D01*
X157115012Y-115630684D01*
X156781405Y-115492158D01*
X156420180Y-115491843D01*
X156086331Y-115629786D01*
X155830684Y-115884988D01*
X155692158Y-116218595D01*
X155692102Y-116283368D01*
X155553504Y-116490792D01*
X155535480Y-116581405D01*
X155491999Y-116800001D01*
X155491999Y-118965317D01*
X155426952Y-119030364D01*
X155186331Y-119129786D01*
X154930684Y-119384988D01*
X154792158Y-119718595D01*
X154791843Y-120079820D01*
X138221090Y-120079820D01*
X138225279Y-119820964D01*
X138069935Y-119428070D01*
X138050469Y-119398937D01*
X137890085Y-119320270D01*
X137195355Y-120015000D01*
X137124645Y-120015000D01*
X136429915Y-119320270D01*
X136269531Y-119398937D01*
X136101557Y-119786601D01*
X136094721Y-120209036D01*
X117683000Y-120209036D01*
X117683000Y-119284915D01*
X136465270Y-119284915D01*
X137160000Y-119979645D01*
X137854730Y-119284915D01*
X137776063Y-119124531D01*
X137388399Y-118956557D01*
X136965964Y-118949721D01*
X136573070Y-119105065D01*
X136543937Y-119124531D01*
X136465270Y-119284915D01*
X117683000Y-119284915D01*
X117683000Y-113998279D01*
X117898628Y-114087816D01*
X118319526Y-114088183D01*
X118708526Y-113927451D01*
X118978182Y-113658265D01*
X119118988Y-113799316D01*
X119452595Y-113937842D01*
X119813820Y-113938157D01*
X120147669Y-113800214D01*
X120248057Y-113700000D01*
X131092000Y-113700000D01*
X131176341Y-114124014D01*
X131416526Y-114483474D01*
X131775986Y-114723659D01*
X132200000Y-114808000D01*
X132624014Y-114723659D01*
X132946767Y-114508001D01*
X135853891Y-114508001D01*
X135790238Y-114661295D01*
X135789763Y-115206314D01*
X135997893Y-115710029D01*
X136382944Y-116095752D01*
X136646067Y-116205011D01*
X136384971Y-116312893D01*
X135999248Y-116697944D01*
X135790238Y-117201295D01*
X135789763Y-117746314D01*
X135997893Y-118250029D01*
X136382944Y-118635752D01*
X136886295Y-118844762D01*
X137431314Y-118845237D01*
X137935029Y-118637107D01*
X138320752Y-118252056D01*
X138529762Y-117748705D01*
X138530237Y-117203686D01*
X138322107Y-116699971D01*
X137937056Y-116314248D01*
X137673933Y-116204989D01*
X137935029Y-116097107D01*
X138320752Y-115712056D01*
X138529762Y-115208705D01*
X138530237Y-114663686D01*
X138465910Y-114508001D01*
X140299999Y-114508001D01*
X140724013Y-114423660D01*
X141083473Y-114183475D01*
X143483474Y-111783474D01*
X143723659Y-111424014D01*
X143808000Y-111000000D01*
X143723659Y-110575986D01*
X143483474Y-110216526D01*
X143124014Y-109976341D01*
X142700000Y-109892000D01*
X142275986Y-109976341D01*
X141916526Y-110216526D01*
X139841051Y-112292001D01*
X138422508Y-112292001D01*
X138529762Y-112033705D01*
X138530199Y-111532485D01*
X140171342Y-109891342D01*
X140346495Y-109629209D01*
X140408000Y-109320000D01*
X140408000Y-107779820D01*
X151091843Y-107779820D01*
X151229786Y-108113669D01*
X151484988Y-108369316D01*
X151818595Y-108507842D01*
X152179820Y-108508157D01*
X152422220Y-108408000D01*
X153878149Y-108408000D01*
X154118595Y-108507842D01*
X154479820Y-108508157D01*
X154722220Y-108408000D01*
X154724264Y-108408000D01*
X155033472Y-108346495D01*
X155295606Y-108171342D01*
X155470759Y-107909208D01*
X155532264Y-107600000D01*
X155470759Y-107290792D01*
X155295606Y-107028658D01*
X155033472Y-106853505D01*
X154724264Y-106792000D01*
X154721851Y-106792000D01*
X154481405Y-106692158D01*
X154120180Y-106691843D01*
X153877780Y-106792000D01*
X152421851Y-106792000D01*
X152181405Y-106692158D01*
X151820180Y-106691843D01*
X151486331Y-106829786D01*
X151230684Y-107084988D01*
X151092158Y-107418595D01*
X151091843Y-107779820D01*
X140408000Y-107779820D01*
X140408000Y-107734684D01*
X140759416Y-107383268D01*
X140818595Y-107407842D01*
X141179820Y-107408157D01*
X141513669Y-107270214D01*
X141769316Y-107015012D01*
X141907842Y-106681405D01*
X141908157Y-106320180D01*
X141770214Y-105986331D01*
X141515012Y-105730684D01*
X141181405Y-105592158D01*
X140820180Y-105591843D01*
X140552503Y-105702444D01*
X140500000Y-105692001D01*
X140190791Y-105753505D01*
X139928658Y-105928658D01*
X139028658Y-106828658D01*
X138853505Y-107090791D01*
X138815851Y-107280091D01*
X138792000Y-107400000D01*
X138792000Y-108985316D01*
X138529977Y-109247339D01*
X138530237Y-108948686D01*
X138322107Y-108444971D01*
X137937056Y-108059248D01*
X137673933Y-107949989D01*
X137935029Y-107842107D01*
X138320752Y-107457056D01*
X138529762Y-106953705D01*
X138530237Y-106408686D01*
X138322107Y-105904971D01*
X137937056Y-105519248D01*
X137433705Y-105310238D01*
X136888686Y-105309763D01*
X136384971Y-105517893D01*
X135999248Y-105902944D01*
X135889989Y-106166067D01*
X135782107Y-105904971D01*
X135397056Y-105519248D01*
X134893705Y-105310238D01*
X134348686Y-105309763D01*
X133844971Y-105517893D01*
X133459248Y-105902944D01*
X133250238Y-106406295D01*
X133249763Y-106951314D01*
X133457893Y-107455029D01*
X133842944Y-107840752D01*
X134106067Y-107950011D01*
X133844971Y-108057893D01*
X133459248Y-108442944D01*
X133250238Y-108946295D01*
X133249763Y-109491314D01*
X133457893Y-109995029D01*
X133842944Y-110380752D01*
X134106067Y-110490011D01*
X133844971Y-110597893D01*
X133459248Y-110982944D01*
X133250238Y-111486295D01*
X133249763Y-112031314D01*
X133357476Y-112292001D01*
X132499999Y-112292001D01*
X132075985Y-112376342D01*
X131716525Y-112616526D01*
X131416526Y-112916526D01*
X131176341Y-113275986D01*
X131092000Y-113700000D01*
X120248057Y-113700000D01*
X120403316Y-113545012D01*
X120541842Y-113211405D01*
X120542157Y-112850180D01*
X120442000Y-112607780D01*
X120442000Y-111398040D01*
X120575820Y-111398157D01*
X120909669Y-111260214D01*
X121165316Y-111005012D01*
X121303842Y-110671405D01*
X121304157Y-110310180D01*
X121204000Y-110067780D01*
X121204000Y-106926674D01*
X121592000Y-107314675D01*
X121592000Y-111400000D01*
X121653505Y-111709209D01*
X121691855Y-111766603D01*
X121691843Y-111779820D01*
X121829786Y-112113669D01*
X122084988Y-112369316D01*
X122418595Y-112507842D01*
X122779820Y-112508157D01*
X123113669Y-112370214D01*
X123369316Y-112115012D01*
X123507842Y-111781405D01*
X123508157Y-111420180D01*
X123370214Y-111086331D01*
X123208000Y-110923834D01*
X123208000Y-109708007D01*
X123379820Y-109708157D01*
X123713669Y-109570214D01*
X123969316Y-109315012D01*
X124031459Y-109165355D01*
X124284988Y-109419326D01*
X124618595Y-109557852D01*
X124979820Y-109558167D01*
X125313669Y-109420224D01*
X125569316Y-109165022D01*
X125669896Y-108922798D01*
X126184695Y-108408000D01*
X126978149Y-108408000D01*
X127218595Y-108507842D01*
X127579820Y-108508157D01*
X127913669Y-108370214D01*
X128169316Y-108115012D01*
X128307842Y-107781405D01*
X128308157Y-107420180D01*
X128170214Y-107086331D01*
X127915012Y-106830684D01*
X127581405Y-106692158D01*
X127220180Y-106691843D01*
X126977780Y-106792000D01*
X125850010Y-106792000D01*
X125540802Y-106853505D01*
X125540800Y-106853506D01*
X125540801Y-106853506D01*
X125278667Y-107028658D01*
X124526952Y-107780374D01*
X124307999Y-107870843D01*
X124307999Y-106556212D01*
X124369316Y-106495002D01*
X124507842Y-106161395D01*
X124508157Y-105800170D01*
X124370214Y-105466321D01*
X124115012Y-105210674D01*
X123781405Y-105072148D01*
X123420180Y-105071833D01*
X123086331Y-105209776D01*
X122830684Y-105464978D01*
X122692158Y-105798585D01*
X122691870Y-106129175D01*
X122269636Y-105706942D01*
X122170214Y-105466321D01*
X121915012Y-105210674D01*
X121581405Y-105072148D01*
X121220180Y-105071833D01*
X121204000Y-105078518D01*
X121204000Y-104688851D01*
X121303842Y-104448405D01*
X121304157Y-104087180D01*
X121166214Y-103753331D01*
X120911012Y-103497684D01*
X120641791Y-103385893D01*
X122027811Y-101999873D01*
X122353820Y-102000157D01*
X122610066Y-101894279D01*
X122582238Y-101961295D01*
X122581763Y-102506314D01*
X122789893Y-103010029D01*
X123174944Y-103395752D01*
X123678295Y-103604762D01*
X124223314Y-103605237D01*
X124727029Y-103397107D01*
X125112752Y-103012056D01*
X125222011Y-102748933D01*
X125329893Y-103010029D01*
X125714944Y-103395752D01*
X126218295Y-103604762D01*
X126763314Y-103605237D01*
X127267029Y-103397107D01*
X127652752Y-103012056D01*
X127762011Y-102748933D01*
X127869893Y-103010029D01*
X128254944Y-103395752D01*
X128758295Y-103604762D01*
X129303314Y-103605237D01*
X129807029Y-103397107D01*
X130192752Y-103012056D01*
X130302011Y-102748933D01*
X130409893Y-103010029D01*
X130794944Y-103395752D01*
X131298295Y-103604762D01*
X131843314Y-103605237D01*
X132347029Y-103397107D01*
X132732752Y-103012056D01*
X132842011Y-102748933D01*
X132949893Y-103010029D01*
X133334944Y-103395752D01*
X133838295Y-103604762D01*
X134383314Y-103605237D01*
X134887029Y-103397107D01*
X135272752Y-103012056D01*
X135382011Y-102748933D01*
X135489893Y-103010029D01*
X135874944Y-103395752D01*
X136378295Y-103604762D01*
X136923314Y-103605237D01*
X137427029Y-103397107D01*
X137812752Y-103012056D01*
X137922011Y-102748933D01*
X138029893Y-103010029D01*
X138414944Y-103395752D01*
X138918295Y-103604762D01*
X139463314Y-103605237D01*
X139967029Y-103397107D01*
X140352752Y-103012056D01*
X140561762Y-102508705D01*
X140562237Y-101963686D01*
X140354107Y-101459971D01*
X139969056Y-101074248D01*
X139705933Y-100964989D01*
X139967029Y-100857107D01*
X140352752Y-100472056D01*
X140561762Y-99968705D01*
X140562237Y-99423686D01*
X140354107Y-98919971D01*
X140117549Y-98683000D01*
X165317000Y-98683000D01*
X165317000Y-126317000D01*
G36*
X122791248Y-98917944D02*
X122582238Y-99421295D01*
X122581763Y-99966314D01*
X122757260Y-100391051D01*
X122689012Y-100322684D01*
X122355405Y-100184158D01*
X121994180Y-100183843D01*
X121713517Y-100299810D01*
X121483791Y-100345505D01*
X121221658Y-100520658D01*
X118173658Y-103568658D01*
X117998505Y-103830791D01*
X117937000Y-104140000D01*
X117937000Y-105303002D01*
X117998505Y-105612211D01*
X118004984Y-105621908D01*
X117900474Y-105621817D01*
X117683000Y-105711676D01*
X117683000Y-98683000D01*
X123026602Y-98683000D01*
X122791248Y-98917944D01*
X122791248Y-98917944D01*
G37*
X122791248Y-98917944D02*
X122582238Y-99421295D01*
X122581763Y-99966314D01*
X122757260Y-100391051D01*
X122689012Y-100322684D01*
X122355405Y-100184158D01*
X121994180Y-100183843D01*
X121713517Y-100299810D01*
X121483791Y-100345505D01*
X121221658Y-100520658D01*
X118173658Y-103568658D01*
X117998505Y-103830791D01*
X117937000Y-104140000D01*
X117937000Y-105303002D01*
X117998505Y-105612211D01*
X118004984Y-105621908D01*
X117900474Y-105621817D01*
X117683000Y-105711676D01*
X117683000Y-98683000D01*
X123026602Y-98683000D01*
X122791248Y-98917944D01*
G36*
X128445070Y-98785065D02*
X128415937Y-98804531D01*
X128337270Y-98964915D01*
X129032000Y-99659645D01*
X129726730Y-98964915D01*
X129648063Y-98804531D01*
X129367584Y-98683000D01*
X130646602Y-98683000D01*
X130411248Y-98917944D01*
X130202238Y-99421295D01*
X130201763Y-99966314D01*
X130409893Y-100470029D01*
X130794944Y-100855752D01*
X131058067Y-100965011D01*
X130796971Y-101072893D01*
X130411248Y-101457944D01*
X130301989Y-101721067D01*
X130194107Y-101459971D01*
X129809056Y-101074248D01*
X129305705Y-100865238D01*
X128760686Y-100864763D01*
X128256971Y-101072893D01*
X127871248Y-101457944D01*
X127761989Y-101721067D01*
X127654107Y-101459971D01*
X127269056Y-101074248D01*
X127005933Y-100964989D01*
X127267029Y-100857107D01*
X127652752Y-100472056D01*
X127672256Y-100425085D01*
X128337270Y-100425085D01*
X128415937Y-100585469D01*
X128803601Y-100753443D01*
X129226036Y-100760279D01*
X129618930Y-100604935D01*
X129648063Y-100585469D01*
X129726730Y-100425085D01*
X129032000Y-99730355D01*
X128337270Y-100425085D01*
X127672256Y-100425085D01*
X127861762Y-99968705D01*
X127861831Y-99889036D01*
X127966721Y-99889036D01*
X128122065Y-100281930D01*
X128141531Y-100311063D01*
X128301915Y-100389730D01*
X128996645Y-99695000D01*
X129067355Y-99695000D01*
X129762085Y-100389730D01*
X129922469Y-100311063D01*
X130090443Y-99923399D01*
X130097279Y-99500964D01*
X129941935Y-99108070D01*
X129922469Y-99078937D01*
X129762085Y-99000270D01*
X129067355Y-99695000D01*
X128996645Y-99695000D01*
X128301915Y-99000270D01*
X128141531Y-99078937D01*
X127973557Y-99466601D01*
X127966721Y-99889036D01*
X127861831Y-99889036D01*
X127862237Y-99423686D01*
X127654107Y-98919971D01*
X127417549Y-98683000D01*
X128703211Y-98683000D01*
X128445070Y-98785065D01*
X128445070Y-98785065D01*
G37*
X128445070Y-98785065D02*
X128415937Y-98804531D01*
X128337270Y-98964915D01*
X129032000Y-99659645D01*
X129726730Y-98964915D01*
X129648063Y-98804531D01*
X129367584Y-98683000D01*
X130646602Y-98683000D01*
X130411248Y-98917944D01*
X130202238Y-99421295D01*
X130201763Y-99966314D01*
X130409893Y-100470029D01*
X130794944Y-100855752D01*
X131058067Y-100965011D01*
X130796971Y-101072893D01*
X130411248Y-101457944D01*
X130301989Y-101721067D01*
X130194107Y-101459971D01*
X129809056Y-101074248D01*
X129305705Y-100865238D01*
X128760686Y-100864763D01*
X128256971Y-101072893D01*
X127871248Y-101457944D01*
X127761989Y-101721067D01*
X127654107Y-101459971D01*
X127269056Y-101074248D01*
X127005933Y-100964989D01*
X127267029Y-100857107D01*
X127652752Y-100472056D01*
X127672256Y-100425085D01*
X128337270Y-100425085D01*
X128415937Y-100585469D01*
X128803601Y-100753443D01*
X129226036Y-100760279D01*
X129618930Y-100604935D01*
X129648063Y-100585469D01*
X129726730Y-100425085D01*
X129032000Y-99730355D01*
X128337270Y-100425085D01*
X127672256Y-100425085D01*
X127861762Y-99968705D01*
X127861831Y-99889036D01*
X127966721Y-99889036D01*
X128122065Y-100281930D01*
X128141531Y-100311063D01*
X128301915Y-100389730D01*
X128996645Y-99695000D01*
X129067355Y-99695000D01*
X129762085Y-100389730D01*
X129922469Y-100311063D01*
X130090443Y-99923399D01*
X130097279Y-99500964D01*
X129941935Y-99108070D01*
X129922469Y-99078937D01*
X129762085Y-99000270D01*
X129067355Y-99695000D01*
X128996645Y-99695000D01*
X128301915Y-99000270D01*
X128141531Y-99078937D01*
X127973557Y-99466601D01*
X127966721Y-99889036D01*
X127861831Y-99889036D01*
X127862237Y-99423686D01*
X127654107Y-98919971D01*
X127417549Y-98683000D01*
X128703211Y-98683000D01*
X128445070Y-98785065D01*
M02*
