G04 #@! TF.FileFunction,Soldermask,Top*
%FSLAX46Y46*%
G04 Gerber Fmt 4.6, Leading zero omitted, Abs format (unit mm)*
G04 Created by KiCad (PCBNEW (2015-10-22 BZR 6274, Git d63c017)-product) date Sat Oct 24 14:44:23 2015*
%MOMM*%
G01*
G04 APERTURE LIST*
%ADD10C,0.100000*%
%ADD11R,1.150000X1.200000*%
%ADD12R,1.200000X1.150000*%
%ADD13R,2.701240X0.900380*%
%ADD14R,2.899360X2.398980*%
%ADD15C,1.299160*%
%ADD16R,1.197560X1.197560*%
%ADD17R,1.300000X0.900000*%
%ADD18R,0.900000X1.300000*%
%ADD19C,1.300000*%
%ADD20C,1.924000*%
%ADD21R,1.400760X1.901140*%
%ADD22R,2.398980X3.399740*%
%ADD23R,2.150000X0.850000*%
%ADD24R,2.400000X1.100000*%
%ADD25R,1.100000X2.400000*%
G04 APERTURE END LIST*
D10*
D11*
X158500000Y-105150000D03*
X158500000Y-103650000D03*
X154750000Y-105150000D03*
X154750000Y-103650000D03*
D12*
X151150000Y-107600000D03*
X149650000Y-107600000D03*
X147750000Y-104000000D03*
X146250000Y-104000000D03*
X146350000Y-109000000D03*
X144850000Y-109000000D03*
X152250000Y-122750000D03*
X153750000Y-122750000D03*
D11*
X153000000Y-119000000D03*
X153000000Y-117500000D03*
X134000000Y-122500000D03*
X134000000Y-121000000D03*
X133858000Y-118352000D03*
X133858000Y-116852000D03*
D12*
X129000000Y-110000000D03*
X130500000Y-110000000D03*
X127250000Y-110000000D03*
X125750000Y-110000000D03*
X142250000Y-106500000D03*
X143750000Y-106500000D03*
D11*
X118200000Y-122200000D03*
X118200000Y-123700000D03*
D13*
X158800680Y-122350200D03*
X158800680Y-121550100D03*
X158800680Y-120750000D03*
X158800680Y-119949900D03*
X158800680Y-119149800D03*
D14*
X158899740Y-125200080D03*
X164398840Y-125200080D03*
X158899740Y-116299920D03*
X164398840Y-116299920D03*
D15*
X161399100Y-122949640D03*
X161399100Y-118550360D03*
D16*
X151000000Y-112248600D03*
X151000000Y-110750000D03*
X153250000Y-112249300D03*
X153250000Y-110750700D03*
X118200000Y-102101400D03*
X118200000Y-103600000D03*
D17*
X133985000Y-125706000D03*
X133985000Y-124206000D03*
X136652000Y-125730000D03*
X136652000Y-124230000D03*
D18*
X120000000Y-119000000D03*
X118500000Y-119000000D03*
X120000000Y-117000000D03*
X118500000Y-117000000D03*
D19*
X118110000Y-106680000D03*
X118110000Y-107950000D03*
X118110000Y-109220000D03*
X118110000Y-110490000D03*
X118110000Y-111760000D03*
X118110000Y-113030000D03*
D20*
X139192000Y-99695000D03*
X139192000Y-102235000D03*
X136652000Y-99695000D03*
X136652000Y-102235000D03*
X134112000Y-99695000D03*
X134112000Y-102235000D03*
X131572000Y-99695000D03*
X131572000Y-102235000D03*
X129032000Y-99695000D03*
X129032000Y-102235000D03*
X126492000Y-99695000D03*
X126492000Y-102235000D03*
X123952000Y-99695000D03*
X123952000Y-102235000D03*
D18*
X152250000Y-120900000D03*
X153750000Y-120900000D03*
D17*
X151000000Y-115500000D03*
X151000000Y-114000000D03*
X153250000Y-115500000D03*
X153250000Y-114000000D03*
X118200000Y-100500000D03*
X118200000Y-99000000D03*
D21*
X160001140Y-107500000D03*
X158500000Y-107500000D03*
X156998860Y-107500000D03*
D22*
X158500000Y-110451480D03*
D10*
G36*
X157299240Y-109177010D02*
X157799620Y-108027710D01*
X159200380Y-108027710D01*
X159700760Y-109177010D01*
X157299240Y-109177010D01*
X157299240Y-109177010D01*
G37*
D23*
X141150000Y-115025000D03*
X141150000Y-115675000D03*
X141150000Y-116325000D03*
X141150000Y-116975000D03*
X141150000Y-117625000D03*
X141150000Y-118275000D03*
X141150000Y-118925000D03*
X141150000Y-119575000D03*
X141150000Y-120225000D03*
X141150000Y-120875000D03*
X141150000Y-121525000D03*
X141150000Y-122175000D03*
X141150000Y-122825000D03*
X141150000Y-123475000D03*
X148350000Y-123475000D03*
X148350000Y-122825000D03*
X148350000Y-122175000D03*
X148350000Y-121525000D03*
X148350000Y-120875000D03*
X148350000Y-120225000D03*
X148350000Y-119575000D03*
X148350000Y-118925000D03*
X148350000Y-118275000D03*
X148350000Y-117625000D03*
X148350000Y-116975000D03*
X148350000Y-116325000D03*
X148350000Y-115675000D03*
X148350000Y-115025000D03*
D24*
X130820000Y-126000000D03*
X130820000Y-124900000D03*
X130820000Y-123800000D03*
X130820000Y-122700000D03*
X130820000Y-121600000D03*
X130820000Y-120500000D03*
X130820000Y-119400000D03*
X130820000Y-118300000D03*
X130820000Y-117200000D03*
X130820000Y-116100000D03*
X130820000Y-115000000D03*
D25*
X129250000Y-113200000D03*
X128150000Y-113200000D03*
X127050000Y-113200000D03*
X125950000Y-113200000D03*
X124850000Y-113200000D03*
X123750000Y-113200000D03*
D24*
X122180000Y-115000000D03*
X122180000Y-116100000D03*
X122180000Y-117200000D03*
X122180000Y-118300000D03*
X122180000Y-119400000D03*
X122180000Y-120500000D03*
X122180000Y-121600000D03*
X122180000Y-122700000D03*
X122180000Y-123800000D03*
X122180000Y-124900000D03*
X122180000Y-126000000D03*
D20*
X134620000Y-111760000D03*
X134620000Y-109220000D03*
X134620000Y-106680000D03*
X137160000Y-106680000D03*
X137160000Y-109220000D03*
X137160000Y-111760000D03*
X137160000Y-120015000D03*
X137160000Y-117475000D03*
X137160000Y-114935000D03*
M02*
