M48
;DRILL file {KiCad (2015-10-22 BZR 6274, Git d63c017)-product} date Sat Oct 24 14:44:24 2015
;FORMAT={3:3/ absolute / metric / keep zeros}
FMAT,2
METRIC,TZ
T1C0.400
T2C0.600
T3C0.899
T4C1.000
%
G90
G05
M71
T1
X118200Y-124800
X119634Y-105156
X119634Y-113030
X120000Y-099000
X120000Y-120500
X120000Y-121500
X120000Y-122500
X120000Y-125000
X120000Y-126000
X120180Y-115500
X120396Y-104267
X120396Y-110490
X121400Y-099900
X121400Y-105980
X121700Y-103400
X122174Y-101092
X122600Y-111600
X123200Y-108800
X123500Y-111500
X123600Y-105980
X124500Y-110000
X124550Y-111500
X124800Y-108650
X127400Y-107600
X130500Y-111000
X132200Y-113700
X132300Y-117200
X132300Y-123800
X132400Y-119400
X132400Y-121600
X132400Y-124900
X132500Y-126000
X134633Y-116852
X135279Y-125706
X137922Y-125730
X139325Y-118925
X141000Y-106500
X142700Y-111000
X144900Y-107800
X145000Y-104000
X145000Y-106500
X148600Y-107600
X150250Y-121500
X151000Y-119000
X152000Y-107600
X154000Y-117500
X154300Y-107600
X154550Y-122750
X154700Y-102500
X155700Y-119900
X156500Y-122500
X156600Y-116400
X156800Y-120800
X157000Y-119250
X158500Y-102500
X161502Y-107500
T2
X118110Y-106680
X118110Y-107950
X118110Y-109220
X118110Y-110490
X118110Y-111760
X118110Y-113030
T3
X161399Y-118550
X161399Y-122950
T4
X123952Y-099695
X123952Y-102235
X126492Y-099695
X126492Y-102235
X129032Y-099695
X129032Y-102235
X131572Y-099695
X131572Y-102235
X134112Y-099695
X134112Y-102235
X134620Y-106680
X134620Y-109220
X134620Y-111760
X136652Y-099695
X136652Y-102235
X137160Y-106680
X137160Y-109220
X137160Y-111760
X137160Y-114935
X137160Y-117475
X137160Y-120015
X139192Y-099695
X139192Y-102235
T0
M30
